SplineFontDB: 3.0
FontName: Gentium
FullName: Gentium
FamilyName: Gentium
Weight: Book
Copyright: Copyright (c) 2003-2011, SIL International (http://scripts.sil.org/).\n
Version: 1.03; 2011; OFL 1.1 release
ItalicAngle: 0
UnderlinePosition: -41
UnderlineWidth: 14
Ascent: 1638
Descent: 410
sfntRevision: 0x000107ae
LayerCount: 2
Layer: 0 1 "Back"  1
Layer: 1 1 "Fore"  0
XUID: [1021 288 713564382 7791605]
FSType: 0
OS2Version: 1
OS2_WeightWidthSlopeOnly: 0
OS2_UseTypoMetrics: 1
CreationTime: 1032220800
ModificationTime: 1309534909
PfmFamily: 17
TTFWeight: 400
TTFWidth: 5
LineGap: 0
VLineGap: 0
Panose: 2 0 5 3 6 0 0 2 0 4
OS2TypoAscent: 2169
OS2TypoAOffset: 0
OS2TypoDescent: -610
OS2TypoDOffset: 0
OS2TypoLinegap: 0
OS2WinAscent: 2169
OS2WinAOffset: 0
OS2WinDescent: 610
OS2WinDOffset: 0
HheadAscent: 2169
HheadAOffset: 0
HheadDescent: -610
HheadDOffset: 0
OS2SubXSize: 856
OS2SubYSize: 856
OS2SubXOff: 0
OS2SubYOff: 1200
OS2SupXSize: 856
OS2SupYSize: 856
OS2SupXOff: 0
OS2SupYOff: 1200
OS2StrikeYSize: 102
OS2StrikeYPos: 512
OS2Vendor: 'SIL '
OS2CodePages: 2000001b.00000000
OS2UnicodeRanges: e00000ff.00000003.00000000.00000000
Lookup: 258 0 0 "'kern' Horizontal Kerning lookup 0"  {"'kern' Horizontal Kerning lookup 0 subtable"  } ['kern' ('DFLT' <'dflt' > 'grek' <'dflt' > 'latn' <'dflt' > ) ]
MarkAttachClasses: 1
DEI: 91125
TtTable: prep
PUSHW_1
 0
CALL
SVTCA[y-axis]
PUSHW_3
 1
 2
 2
CALL
SVTCA[x-axis]
PUSHW_3
 3
 2
 2
CALL
PUSHW_7
 3
 76
 60
 47
 34
 20
 8
CALL
PUSHW_7
 4
 71
 60
 47
 34
 20
 8
CALL
PUSHW_7
 1
 128
 102
 80
 57
 34
 8
CALL
PUSHW_7
 2
 120
 102
 80
 57
 34
 8
CALL
SVTCA[y-axis]
PUSHW_3
 5
 4
 7
CALL
PUSHW_1
 0
DUP
RCVT
RDTG
ROUND[Black]
RTG
WCVTP
EndTTInstrs
TtTable: fpgm
PUSHW_1
 0
FDEF
MPPEM
PUSHW_1
 9
LT
IF
PUSHB_2
 1
 1
INSTCTRL
EIF
PUSHW_1
 511
SCANCTRL
PUSHW_1
 68
SCVTCI
PUSHW_2
 9
 3
SDS
SDB
ENDF
PUSHW_1
 1
FDEF
DUP
DUP
RCVT
ROUND[Black]
WCVTP
PUSHB_1
 1
ADD
ENDF
PUSHW_1
 2
FDEF
PUSHW_1
 1
LOOPCALL
POP
ENDF
PUSHW_1
 3
FDEF
DUP
GC[cur]
PUSHB_1
 3
CINDEX

StartChar: dollar
Encoding: 36 36 4
Width: 961
Flags: W
LayerCount: 2
Fore
SplineSet
225 958 m 0,0,1
 225 920 225 920 241 891.5 c 128,-1,2
 257 863 257 863 285 840 c 128,-1,3
 313 817 313 817 351 798.5 c 128,-1,4
 389 780 389 780 432 763 c 1,5,-1
 432 1115 l 1,6,7
 374 1113 374 1113 334.5 1098.5 c 128,-1,8
 295 1084 295 1084 270.5 1062 c 128,-1,9
 246 1040 246 1040 235.5 1012.5 c 128,-1,10
 225 985 225 985 225 958 c 0,0,1
727 324 m 0,11,12
 727 371 727 371 711 407 c 128,-1,13
 695 443 695 443 667 470.5 c 128,-1,14
 639 498 639 498 601.5 519 c 128,-1,15
 564 540 564 540 522 558 c 1,16,-1
 522 113 l 1,17,18
 562 118 562 118 599 135.5 c 128,-1,19
 636 153 636 153 664.5 180.5 c 128,-1,20
 693 208 693 208 710 244.5 c 128,-1,21
 727 281 727 281 727 324 c 0,11,12
522 -143 m 1,22,23
 513 -151 513 -151 506.5 -155.5 c 128,-1,24
 500 -160 500 -160 493.5 -163 c 128,-1,25
 487 -166 487 -166 479 -168.5 c 128,-1,26
 471 -171 471 -171 459 -174 c 1,27,-1
 432 -152 l 1,28,-1
 432 -9 l 1,29,30
 427 -9 427 -9 422 -9.5 c 128,-1,31
 417 -10 417 -10 412 -10 c 0,32,33
 342 -10 342 -10 267.5 14.5 c 128,-1,34
 193 39 193 39 102 96 c 0,35,36
 95 101 95 101 91.5 129.5 c 128,-1,37
 88 158 88 158 88 195 c 0,38,39
 88 233 88 233 91 272.5 c 128,-1,40
 94 312 94 312 102 340 c 1,41,-1
 145 336 l 1,42,43
 193 233 193 233 267 179.5 c 128,-1,44
 341 126 341 126 432 114 c 1,45,-1
 432 593 l 1,46,47
 370 616 370 616 310.5 641 c 128,-1,48
 251 666 251 666 203.5 701.5 c 128,-1,49
 156 737 156 737 127 787 c 128,-1,50
 98 837 98 837 98 911 c 0,51,52
 98 953 98 953 114.5 1001.5 c 128,-1,53
 131 1050 131 1050 170 1092.5 c 128,-1,54
 209 1135 209 1135 273 1167 c 128,-1,55
 337 1199 337 1199 432 1210 c 1,56,-1
 432 1356 l 1,57,58
 446 1364 446 1364 452 1368 c 128,-1,59
 458 1372 458 1372 463 1374.5 c 128,-1,60
 468 1377 468 1377 474.5 1378.5 c 128,-1,61
 481 1380 481 1380 496 1384 c 1,62,-1
 522 1362 l 1,63,-1
 522 1214 l 1,64,65
 568 1213 568 1213 611.5 1206.5 c 128,-1,66
 655 1200 655 1200 693 1188 c 128,-1,67
 731 1176 731 1176 761 1159.5 c 128,-1,68
 791 1143 791 1143 811 1124 c 0,69,70
 817 1117 817 1117 809.5 1098.5 c 128,-1,71
 802 1080 802 1080 788 1058.5 c 128,-1,72
 774 1037 774 1037 757 1016 c 128,-1,73
 740 995 740 995 727 983 c 1,74,-1
 688 991 l 1,75,76
 648 1037 648 1037 606 1065 c 128,-1,77
 564 1093 564 1093 522 1105 c 1,78,-1
 522 728 l 1,79,80
 584 704 584 704 645 676 c 128,-1,81
 706 648 706 648 754 607.5 c 128,-1,82
 802 567 802 567 832 511.5 c 128,-1,83
 862 456 862 456 862 377 c 0,84,85
 862 318 862 318 842.5 258 c 128,-1,86
 823 198 823 198 781.5 146 c 128,-1,87
 740 94 740 94 675.5 55 c 128,-1,88
 611 16 611 16 522 0 c 1,89,-1
 522 -143 l 1,90,-1
 522 -143 l 1,22,23
EndSplineSet
EndChar

StartChar: percent
Encoding: 37 37 5
Width: 1413
Flags: W
LayerCount: 2
Fore
SplineSet
1194 289 m 0,0,1
 1194 359 1194 359 1181.5 411 c 128,-1,2
 1169 463 1169 463 1148 497.5 c 128,-1,3
 1127 532 1127 532 1100 548.5 c 128,-1,4
 1073 565 1073 565 1044 565 c 0,5,6
 1022 565 1022 565 1000.5 550.5 c 128,-1,7
 979 536 979 536 962 507 c 128,-1,8
 945 478 945 478 934.5 434.5 c 128,-1,9
 924 391 924 391 924 332 c 0,10,11
 924 260 924 260 935 207 c 128,-1,12
 946 154 946 154 965.5 119.5 c 128,-1,13
 985 85 985 85 1012 68 c 128,-1,14
 1039 51 1039 51 1071 51 c 0,15,16
 1096 51 1096 51 1118 66 c 128,-1,17
 1140 81 1140 81 1157 111 c 128,-1,18
 1174 141 1174 141 1184 185.5 c 128,-1,19
 1194 230 1194 230 1194 289 c 0,0,1
492 877 m 0,20,21
 492 948 492 948 479.5 1000 c 128,-1,22
 467 1052 467 1052 446 1086 c 128,-1,23
 425 1120 425 1120 398 1136.5 c 128,-1,24
 371 1153 371 1153 342 1153 c 0,25,26
 320 1153 320 1153 298.5 1138.5 c 128,-1,27
 277 1124 277 1124 259.5 1095 c 128,-1,28
 242 1066 242 1066 231.5 1022.5 c 128,-1,29
 221 979 221 979 221 920 c 0,30,31
 221 848 221 848 232 795 c 128,-1,32
 243 742 243 742 262.5 707.5 c 128,-1,33
 282 673 282 673 309.5 656 c 128,-1,34
 337 639 337 639 369 639 c 0,35,36
 393 639 393 639 415.5 654 c 128,-1,37
 438 669 438 669 455 699 c 128,-1,38
 472 729 472 729 482 773.5 c 128,-1,39
 492 818 492 818 492 877 c 0,20,21
358 17 m 1,40,41
 349 10 349 10 331.5 2.5 c 128,-1,42
 314 -5 314 -5 294 -11.5 c 128,-1,43
 274 -18 274 -18 254.5 -24 c 128,-1,44
 235 -30 235 -30 223 -34 c 1,45,-1
 199 1 l 1,46,-1
 1055 1188 l 1,47,48
 1083 1205 1083 1205 1120 1217 c 128,-1,49
 1157 1229 1157 1229 1188 1237 c 1,50,-1
 1217 1204 l 1,51,-1
 358 17 l 1,40,41
1337 309 m 0,52,53
 1337 240 1337 240 1313 178.5 c 128,-1,54
 1289 117 1289 117 1249 70.5 c 128,-1,55
 1209 24 1209 24 1155.5 -3 c 128,-1,56
 1102 -30 1102 -30 1044 -30 c 256,57,58
 986 -30 986 -30 937 -3 c 128,-1,59
 888 24 888 24 853 70.5 c 128,-1,60
 818 117 818 117 798 178.5 c 128,-1,61
 778 240 778 240 778 309 c 256,62,63
 778 378 778 378 802.5 439.5 c 128,-1,64
 827 501 827 501 867.5 547 c 128,-1,65
 908 593 908 593 961 619.5 c 128,-1,66
 1014 646 1014 646 1071 646 c 0,67,68
 1131 646 1131 646 1180 619.5 c 128,-1,69
 1229 593 1229 593 1264 547.5 c 128,-1,70
 1299 502 1299 502 1318 440.5 c 128,-1,71
 1337 379 1337 379 1337 309 c 0,52,53
637 897 m 0,72,73
 637 828 637 828 613 766.5 c 128,-1,74
 589 705 589 705 548.5 658.5 c 128,-1,75
 508 612 508 612 454.5 585 c 128,-1,76
 401 558 401 558 342 558 c 256,77,78
 283 558 283 558 234.5 585 c 128,-1,79
 186 612 186 612 150.5 658.5 c 128,-1,80
 115 705 115 705 95.5 766.5 c 128,-1,81
 76 828 76 828 76 897 c 256,82,83
 76 966 76 966 100 1027.5 c 128,-1,84
 124 1089 124 1089 164.5 1134.5 c 128,-1,85
 205 1180 205 1180 258 1207 c 128,-1,86
 311 1234 311 1234 369 1234 c 0,87,88
 429 1234 429 1234 478 1207.5 c 128,-1,89
 527 1181 527 1181 562.5 1135 c 128,-1,90
 598 1089 598 1089 617.5 1028 c 128,-1,91
 637 967 637 967 637 897 c 0,72,73
EndSplineSet
EndChar

StartChar: ampersand
Encoding: 38 38 6
Width: 1366
Flags: W
LayerCount: 2
Fore
SplineSet
444 1130 m 0,0,1
 444 1072 444 1072 461 1009 c 128,-1,2
 478 946 478 946 507 880 c 1,3,4
 510 881 510 881 516 885 c 0,5,6
 580 920 580 920 621.5 957 c 128,-1,7
 663 994 663 994 687 1030.5 c 128,-1,8
 711 1067 711 1067 720 1102.5 c 128,-1,9
 729 1138 729 1138 729 1171 c 0,10,11
 729 1206 729 1206 720 1237 c 128,-1,12
 711 1268 711 1268 693.5 1291.5 c 128,-1,13
 676 1315 676 1315 649.5 1329 c 128,-1,14
 623 1343 623 1343 588 1343 c 0,15,16
 552 1343 552 1343 525 1324.5 c 128,-1,17
 498 1306 498 1306 480 1276 c 128,-1,18
 462 1246 462 1246 453 1207.5 c 128,-1,19
 444 1169 444 1169 444 1130 c 0,0,1
528 84 m 0,20,21
 613 84 613 84 684 111 c 128,-1,22
 755 138 755 138 812 183 c 1,23,24
 762 235 762 235 709 295.5 c 128,-1,25
 656 356 656 356 605.5 422.5 c 128,-1,26
 555 489 555 489 508.5 560 c 128,-1,27
 462 631 462 631 425 703 c 1,28,29
 374 659 374 659 339 618 c 128,-1,30
 304 577 304 577 282.5 536.5 c 128,-1,31
 261 496 261 496 251.5 455.5 c 128,-1,32
 242 415 242 415 242 373 c 0,33,34
 242 303 242 303 266 249 c 128,-1,35
 290 195 290 195 330 158.5 c 128,-1,36
 370 122 370 122 421.5 103 c 128,-1,37
 473 84 473 84 528 84 c 0,20,21
1346 748 m 1,38,39
 1321 717 1321 717 1296.5 696.5 c 128,-1,40
 1272 676 1272 676 1247 659 c 1,41,42
 1229 668 1229 668 1206 675 c 128,-1,43
 1183 682 1183 682 1159.5 687.5 c 128,-1,44
 1136 693 1136 693 1114 696 c 128,-1,45
 1092 699 1092 699 1075 700 c 1,46,47
 1086 682 1086 682 1092.5 666.5 c 128,-1,48
 1099 651 1099 651 1102.5 633 c 128,-1,49
 1106 615 1106 615 1107 593.5 c 128,-1,50
 1108 572 1108 572 1108 543 c 0,51,52
 1108 472 1108 472 1077 393 c 128,-1,53
 1046 314 1046 314 989 239 c 1,54,55
 1058 173 1058 173 1116 127 c 1,56,57
 1154 95 1154 95 1198 84.5 c 128,-1,58
 1242 74 1242 74 1300 88 c 1,59,-1
 1309 45 l 1,60,61
 1222 7 1222 7 1162.5 -11.5 c 128,-1,62
 1103 -30 1103 -30 1081 -30 c 256,63,64
 1059 -30 1059 -30 1004 10 c 128,-1,65
 949 50 949 50 877 119 c 1,66,67
 799 53 799 53 703 11.5 c 128,-1,68
 607 -30 607 -30 498 -30 c 0,69,70
 405 -30 405 -30 328 -5.5 c 128,-1,71
 251 19 251 19 196 67 c 128,-1,72
 141 115 141 115 110.5 186.5 c 128,-1,73
 80 258 80 258 80 352 c 0,74,75
 80 464 80 464 157 578.5 c 128,-1,76
 234 693 234 693 380 799 c 1,77,78
 351 870 351 870 334 938.5 c 128,-1,79
 317 1007 317 1007 317 1073 c 0,80,81
 317 1154 317 1154 344 1223 c 128,-1,82
 371 1292 371 1292 416 1342.5 c 128,-1,83
 461 1393 461 1393 519.5 1421.5 c 128,-1,84
 578 1450 578 1450 641 1450 c 0,85,86
 705 1450 705 1450 748.5 1429.5 c 128,-1,87
 792 1409 792 1409 818.5 1375 c 128,-1,88
 845 1341 845 1341 856.5 1296.5 c 128,-1,89
 868 1252 868 1252 868 1204 c 0,90,91
 868 1099 868 1099 802.5 1007.5 c 128,-1,92
 737 916 737 916 618 842 c 0,93,94
 599 830 599 830 582 818.5 c 128,-1,95
 565 807 565 807 549 796 c 1,96,97
 584 731 584 731 627.5 666 c 128,-1,98
 671 601 671 601 719.5 538 c 128,-1,99
 768 475 768 475 819.5 416 c 128,-1,100
 871 357 871 357 922 305 c 1,101,102
 954 355 954 355 970.5 406 c 128,-1,103
 987 457 987 457 987 502 c 0,104,105
 987 544 987 544 973 581 c 128,-1,106
 959 618 959 618 936.5 645.5 c 128,-1,107
 914 673 914 673 885 689 c 128,-1,108
 856 705 856 705 827 705 c 1,109,-1
 805 733 l 1,110,111
 816 746 816 746 837.5 761 c 128,-1,112
 859 776 859 776 879 784 c 1,113,-1
 1323 784 l 1,114,-1
 1346 748 l 1,115,-1
 1346 748 l 1,38,39
EndSplineSet
EndChar

StartChar: quotesingle
Encoding: 39 39 7
Width: 512
Flags: W
LayerCount: 2
Fore
SplineSet
309 834 m 1,0,1
 301 830 301 830 289.5 826 c 128,-1,2
 278 822 278 822 265 819 c 128,-1,3
 252 816 252 816 238.5 814.5 c 128,-1,4
 225 813 225 813 213 813 c 1,5,-1
 160 1426 l 1,6,7
 171 1432 171 1432 192 1440.5 c 128,-1,8
 213 1449 213 1449 235.5 1457 c 128,-1,9
 258 1465 258 1465 278 1471.5 c 128,-1,10
 298 1478 298 1478 309 1480 c 1,11,-1
 352 1459 l 1,12,-1
 309 834 l 1,0,1
EndSplineSet
EndChar

StartChar: parenleft
Encoding: 40 40 8
Width: 649
Flags: W
LayerCount: 2
Fore
SplineSet
578 -315 m 1,0,1
 465 -263 465 -263 379.5 -169.5 c 128,-1,2
 294 -76 294 -76 236.5 47 c 128,-1,3
 179 170 179 170 150 317 c 128,-1,4
 121 464 121 464 121 623 c 0,5,6
 121 787 121 787 153.5 940 c 128,-1,7
 186 1093 186 1093 246 1222 c 128,-1,8
 306 1351 306 1351 390.5 1448.5 c 128,-1,9
 475 1546 475 1546 578 1600 c 1,10,-1
 610 1555 l 1,11,12
 545 1501 545 1501 487 1413 c 128,-1,13
 429 1325 429 1325 385.5 1209 c 128,-1,14
 342 1093 342 1093 316.5 952 c 128,-1,15
 291 811 291 811 291 651 c 0,16,17
 291 505 291 505 312 366.5 c 128,-1,18
 333 228 333 228 374 107.5 c 128,-1,19
 415 -13 415 -13 474 -110 c 128,-1,20
 533 -207 533 -207 610 -270 c 1,21,-1
 578 -315 l 1,0,1
EndSplineSet
EndChar

StartChar: parenright
Encoding: 41 41 9
Width: 649
Flags: W
LayerCount: 2
Fore
SplineSet
530 664 m 0,0,1
 530 499 530 499 497 345.5 c 128,-1,2
 464 192 464 192 404 63 c 128,-1,3
 344 -66 344 -66 259.5 -163.5 c 128,-1,4
 175 -261 175 -261 72 -315 c 1,5,-1
 41 -270 l 1,6,7
 105 -216 105 -216 163 -128 c 128,-1,8
 221 -40 221 -40 265 76 c 128,-1,9
 309 192 309 192 334.5 333 c 128,-1,10
 360 474 360 474 360 635 c 0,11,12
 360 780 360 780 339 918.5 c 128,-1,13
 318 1057 318 1057 277.5 1178 c 128,-1,14
 237 1299 237 1299 177.5 1396 c 128,-1,15
 118 1493 118 1493 41 1555 c 1,16,-1
 72 1600 l 1,17,18
 185 1549 185 1549 270.5 1455.5 c 128,-1,19
 356 1362 356 1362 414 1239 c 128,-1,20
 472 1116 472 1116 501 969.5 c 128,-1,21
 530 823 530 823 530 664 c 0,0,1
EndSplineSet
EndChar

StartChar: asterisk
Encoding: 42 42 10
Width: 915
Flags: W
LayerCount: 2
Fore
SplineSet
489 1188 m 1,0,-1
 750 1384 l 1,1,2
 771 1370 771 1370 799.5 1352 c 128,-1,3
 828 1334 828 1334 844 1317 c 1,4,-1
 846 1276 l 1,5,-1
 520 1135 l 1,6,-1
 821 1006 l 1,7,8
 819 981 819 981 818 947 c 128,-1,9
 817 913 817 913 809 891 c 1,10,-1
 772 868 l 1,11,-1
 490 1079 l 1,12,-1
 528 756 l 1,13,14
 517 750 517 750 504 742.5 c 128,-1,15
 491 735 491 735 476.5 728.5 c 128,-1,16
 462 722 462 722 448.5 716.5 c 128,-1,17
 435 711 435 711 424 709 c 1,18,-1
 385 727 l 1,19,-1
 427 1079 l 1,20,-1
 166 883 l 1,21,22
 155 890 155 890 141.5 898.5 c 128,-1,23
 128 907 128 907 115 916 c 128,-1,24
 102 925 102 925 90.5 933.5 c 128,-1,25
 79 942 79 942 72 950 c 1,26,-1
 70 993 l 1,27,-1
 396 1133 l 1,28,-1
 94 1262 l 1,29,30
 95 1274 95 1274 95.5 1289.5 c 128,-1,31
 96 1305 96 1305 97 1321 c 128,-1,32
 98 1337 98 1337 100 1351.5 c 128,-1,33
 102 1366 102 1366 106 1376 c 1,34,-1
 141 1399 l 1,35,-1
 426 1187 l 1,36,-1
 387 1513 l 1,37,38
 398 1519 398 1519 412 1526 c 128,-1,39
 426 1533 426 1533 440.5 1540 c 128,-1,40
 455 1547 455 1547 469 1552.5 c 128,-1,41
 483 1558 483 1558 494 1561 c 1,42,-1
 530 1540 l 1,43,-1
 489 1188 l 1,0,-1
EndSplineSet
EndChar

StartChar: plus
Encoding: 43 43 11
Width: 840
Flags: W
LayerCount: 2
Fore
SplineSet
477 236 m 1,0,1
 457 226 457 226 433 218 c 128,-1,2
 409 210 409 210 387 205 c 1,3,-1
 362 227 l 1,4,-1
 362 506 l 1,5,-1
 86 506 l 1,6,-1
 61 530 l 1,7,8
 66 550 66 550 74.5 574 c 128,-1,9
 83 598 83 598 92 618 c 1,10,-1
 362 618 l 1,11,-1
 362 891 l 1,12,13
 381 897 381 897 406 906 c 128,-1,14
 431 915 431 915 453 920 c 1,15,-1
 477 897 l 1,16,-1
 477 618 l 1,17,-1
 754 618 l 1,18,-1
 778 594 l 1,19,20
 773 574 773 574 764.5 548.5 c 128,-1,21
 756 523 756 523 748 506 c 1,22,-1
 477 506 l 1,23,-1
 477 236 l 1,24,-1
 477 236 l 1,0,1
EndSplineSet
EndChar

StartChar: comma
Encoding: 44 44 12
Width: 469
Flags: W
LayerCount: 2
Fore
SplineSet
391 70 m 0,0,1
 391 31 391 31 375.5 -18 c 128,-1,2
 360 -67 360 -67 330.5 -118 c 128,-1,3
 301 -169 301 -169 259.5 -217.5 c 128,-1,4
 218 -266 218 -266 166 -305 c 1,5,-1
 121 -270 l 1,6,7
 149 -238 149 -238 168.5 -208 c 128,-1,8
 188 -178 188 -178 200 -146 c 128,-1,9
 212 -114 212 -114 217.5 -78.5 c 128,-1,10
 223 -43 223 -43 223 0 c 0,11,12
 223 44 223 44 195.5 70 c 128,-1,13
 168 96 168 96 104 92 c 1,14,-1
 88 139 l 1,15,16
 97 151 97 151 126 166.5 c 128,-1,17
 155 182 155 182 189.5 196.5 c 128,-1,18
 224 211 224 211 257.5 220.5 c 128,-1,19
 291 230 291 230 309 229 c 1,20,21
 357 206 357 206 374 166.5 c 128,-1,22
 391 127 391 127 391 70 c 0,0,1
EndSplineSet
EndChar

StartChar: hyphen
Encoding: 45 45 13
Width: 690
Flags: W
LayerCount: 2
Fore
SplineSet
629 545 m 1,0,1
 623 523 623 523 614.5 497.5 c 128,-1,2
 606 472 606 472 598 455 c 1,3,-1
 86 455 l 1,4,-1
 61 479 l 1,5,6
 66 501 66 501 74.5 525 c 128,-1,7
 83 549 83 549 92 569 c 1,8,-1
 604 569 l 1,9,-1
 629 545 l 1,10,-1
 629 545 l 1,0,1
EndSplineSet
EndChar

StartChar: period
Encoding: 46 46 14
Width: 469
Flags: W
LayerCount: 2
Fore
SplineSet
369 123 m 0,0,1
 369 88 369 88 358.5 58.5 c 128,-1,2
 348 29 348 29 329.5 7 c 128,-1,3
 311 -15 311 -15 285.5 -27.5 c 128,-1,4
 260 -40 260 -40 231 -40 c 0,5,6
 177 -40 177 -40 154 -11 c 128,-1,7
 131 18 131 18 131 72 c 0,8,9
 131 106 131 106 142 135.5 c 128,-1,10
 153 165 153 165 172 187.5 c 128,-1,11
 191 210 191 210 216.5 223 c 128,-1,12
 242 236 242 236 270 236 c 0,13,14
 320 236 320 236 344.5 206.5 c 128,-1,15
 369 177 369 177 369 123 c 0,0,1
EndSplineSet
EndChar

StartChar: slash
Encoding: 47 47 15
Width: 961
Flags: W
LayerCount: 2
Fore
SplineSet
211 -284 m 1,0,1
 201 -291 201 -291 185 -298.5 c 128,-1,2
 169 -306 169 -306 151 -312.5 c 128,-1,3
 133 -319 133 -319 115.5 -325 c 128,-1,4
 98 -331 98 -331 86 -335 c 1,5,-1
 49 -310 l 1,6,-1
 750 1551 l 1,7,8
 777 1568 777 1568 810 1580 c 128,-1,9
 843 1592 843 1592 872 1600 c 1,10,-1
 909 1578 l 1,11,-1
 211 -284 l 1,0,1
EndSplineSet
EndChar

StartChar: zero
Encoding: 48 48 16
Width: 961
Flags: W
LayerCount: 2
Fore
SplineSet
721 565 m 0,0,1
 721 702 721 702 699.5 806 c 128,-1,2
 678 910 678 910 642 979.5 c 128,-1,3
 606 1049 606 1049 559 1084.5 c 128,-1,4
 512 1120 512 1120 461 1120 c 256,5,6
 410 1120 410 1120 369 1092.5 c 128,-1,7
 328 1065 328 1065 299.5 1007.5 c 128,-1,8
 271 950 271 950 255.5 860 c 128,-1,9
 240 770 240 770 240 645 c 0,10,11
 240 508 240 508 260 403 c 128,-1,12
 280 298 280 298 314.5 227.5 c 128,-1,13
 349 157 349 157 396.5 121 c 128,-1,14
 444 85 444 85 500 85 c 0,15,16
 552 85 552 85 593 112.5 c 128,-1,17
 634 140 634 140 662.5 198.5 c 128,-1,18
 691 257 691 257 706 347.5 c 128,-1,19
 721 438 721 438 721 565 c 0,0,1
885 602 m 0,20,21
 885 473 885 473 854.5 358 c 128,-1,22
 824 243 824 243 768.5 157 c 128,-1,23
 713 71 713 71 634.5 20.5 c 128,-1,24
 556 -30 556 -30 461 -30 c 256,25,26
 366 -30 366 -30 294 20.5 c 128,-1,27
 222 71 222 71 173.5 157 c 128,-1,28
 125 243 125 243 100.5 358 c 128,-1,29
 76 473 76 473 76 602 c 256,30,31
 76 731 76 731 107 846 c 128,-1,32
 138 961 138 961 193.5 1047.5 c 128,-1,33
 249 1134 249 1134 327 1184.5 c 128,-1,34
 405 1235 405 1235 500 1235 c 256,35,36
 595 1235 595 1235 667 1185 c 128,-1,37
 739 1135 739 1135 787.5 1049 c 128,-1,38
 836 963 836 963 860.5 847.5 c 128,-1,39
 885 732 885 732 885 602 c 0,20,21
EndSplineSet
EndChar

StartChar: one
Encoding: 49 49 17
Width: 961
Flags: W
LayerCount: 2
Fore
SplineSet
170 0 m 1,0,-1
 170 53 l 1,1,2
 248 62 248 62 300 73.5 c 128,-1,3
 352 85 352 85 383 97 c 128,-1,4
 414 109 414 109 427 120.5 c 128,-1,5
 440 132 440 132 440 143 c 2,6,-1
 440 940 l 2,7,8
 440 980 440 980 437 1002 c 128,-1,9
 434 1024 434 1024 422 1038 c 0,10,11
 416 1044 416 1044 399 1048 c 128,-1,12
 382 1052 382 1052 351 1051 c 128,-1,13
 320 1050 320 1050 273 1044 c 128,-1,14
 226 1038 226 1038 160 1024 c 1,15,-1
 139 1075 l 1,16,17
 181 1087 181 1087 238.5 1108 c 128,-1,18
 296 1129 296 1129 355 1153.5 c 128,-1,19
 414 1178 414 1178 467 1202.5 c 128,-1,20
 520 1227 520 1227 553 1245 c 1,21,-1
 590 1210 l 1,22,-1
 590 143 l 2,23,24
 590 133 590 133 601 121.5 c 128,-1,25
 612 110 612 110 640 98 c 128,-1,26
 668 86 668 86 716.5 74 c 128,-1,27
 765 62 765 62 840 53 c 1,28,-1
 840 0 l 1,29,-1
 170 0 l 1,0,-1
EndSplineSet
EndChar

StartChar: two
Encoding: 50 50 18
Width: 961
Flags: W
LayerCount: 2
Fore
SplineSet
821 0 m 1,0,-1
 127 0 l 1,1,-1
 98 74 l 1,2,3
 217 212 217 212 305.5 318 c 128,-1,4
 394 424 394 424 457 505.5 c 128,-1,5
 520 587 520 587 561 648.5 c 128,-1,6
 602 710 602 710 626 758.5 c 128,-1,7
 650 807 650 807 659 846.5 c 128,-1,8
 668 886 668 886 668 924 c 0,9,10
 668 970 668 970 657 1009.5 c 128,-1,11
 646 1049 646 1049 622 1078.5 c 128,-1,12
 598 1108 598 1108 559.5 1124.5 c 128,-1,13
 521 1141 521 1141 467 1141 c 0,14,15
 426 1141 426 1141 392 1122 c 128,-1,16
 358 1103 358 1103 333 1073 c 128,-1,17
 308 1043 308 1043 294.5 1006 c 128,-1,18
 281 969 281 969 281 934 c 1,19,20
 264 925 264 925 250.5 917 c 128,-1,21
 237 909 237 909 222.5 902.5 c 128,-1,22
 208 896 208 896 191.5 891.5 c 128,-1,23
 175 887 175 887 152 885 c 1,24,-1
 125 915 l 1,25,26
 125 967 125 967 160 1023.5 c 128,-1,27
 195 1080 195 1080 253 1127 c 128,-1,28
 311 1174 311 1174 384.5 1204.5 c 128,-1,29
 458 1235 458 1235 535 1235 c 0,30,31
 595 1235 595 1235 647.5 1218 c 128,-1,32
 700 1201 700 1201 738.5 1166.5 c 128,-1,33
 777 1132 777 1132 799 1078.5 c 128,-1,34
 821 1025 821 1025 821 952 c 0,35,36
 821 908 821 908 808.5 862.5 c 128,-1,37
 796 817 796 817 768.5 764.5 c 128,-1,38
 741 712 741 712 697.5 650 c 128,-1,39
 654 588 654 588 592 510.5 c 128,-1,40
 530 433 530 433 449 337 c 128,-1,41
 368 241 368 241 266 121 c 1,42,-1
 684 121 l 2,43,44
 711 121 711 121 729.5 139.5 c 128,-1,45
 748 158 748 158 759 183.5 c 128,-1,46
 770 209 770 209 776 236 c 128,-1,47
 782 263 782 263 784 280.5 c 128,-1,48
 786 298 786 298 786 299 c 2,49,-1
 836 287 l 1,50,-1
 821 0 l 1,0,-1
EndSplineSet
EndChar

StartChar: three
Encoding: 51 51 19
Width: 961
Flags: W
LayerCount: 2
Fore
SplineSet
825 381 m 0,0,1
 825 297 825 297 798 222 c 128,-1,2
 771 147 771 147 718 91 c 128,-1,3
 665 35 665 35 587 2.5 c 128,-1,4
 509 -30 509 -30 406 -30 c 0,5,6
 367 -30 367 -30 326 -23 c 128,-1,7
 285 -16 285 -16 242.5 1.5 c 128,-1,8
 200 19 200 19 156.5 47.5 c 128,-1,9
 113 76 113 76 68 119 c 1,10,-1
 102 186 l 1,11,12
 147 152 147 152 184.5 130 c 128,-1,13
 222 108 222 108 255.5 95 c 128,-1,14
 289 82 289 82 322 77 c 128,-1,15
 355 72 355 72 393 72 c 0,16,17
 454 72 454 72 504 91 c 128,-1,18
 554 110 554 110 590 146 c 128,-1,19
 626 182 626 182 646 233 c 128,-1,20
 666 284 666 284 666 348 c 0,21,22
 666 423 666 423 642.5 475.5 c 128,-1,23
 619 528 619 528 582 561 c 128,-1,24
 545 594 545 594 499.5 608.5 c 128,-1,25
 454 623 454 623 410 623 c 0,26,27
 396 623 396 623 389 623 c 0,28,29
 383 623 383 623 377.5 622 c 128,-1,30
 372 621 372 621 364.5 620 c 128,-1,31
 357 619 357 619 342 616 c 1,32,-1
 328 676 l 1,33,34
 420 701 420 701 475 734 c 128,-1,35
 530 767 530 767 559.5 802.5 c 128,-1,36
 589 838 589 838 598.5 873.5 c 128,-1,37
 608 909 608 909 608 940 c 0,38,39
 608 974 608 974 597.5 1010 c 128,-1,40
 587 1046 587 1046 564.5 1075 c 128,-1,41
 542 1104 542 1104 508 1122.5 c 128,-1,42
 474 1141 474 1141 426 1141 c 0,43,44
 386 1141 386 1141 354.5 1127.5 c 128,-1,45
 323 1114 323 1114 302 1091 c 128,-1,46
 281 1068 281 1068 272.5 1037.5 c 128,-1,47
 264 1007 264 1007 270 973 c 1,48,49
 236 956 236 956 205 946.5 c 128,-1,50
 174 937 174 937 131 934 c 1,51,-1
 104 965 l 1,52,53
 104 1007 104 1007 135 1054.5 c 128,-1,54
 166 1102 166 1102 218 1142 c 128,-1,55
 270 1182 270 1182 338.5 1208.5 c 128,-1,56
 407 1235 407 1235 483 1235 c 0,57,58
 558 1235 558 1235 611.5 1211 c 128,-1,59
 665 1187 665 1187 699.5 1147.5 c 128,-1,60
 734 1108 734 1108 750 1058.5 c 128,-1,61
 766 1009 766 1009 766 958 c 0,62,63
 766 920 766 920 751.5 883 c 128,-1,64
 737 846 737 846 709.5 812 c 128,-1,65
 682 778 682 778 643 749 c 128,-1,66
 604 720 604 720 555 698 c 1,67,68
 612 691 612 691 661.5 663.5 c 128,-1,69
 711 636 711 636 747 593.5 c 128,-1,70
 783 551 783 551 804 496.5 c 128,-1,71
 825 442 825 442 825 381 c 0,0,1
EndSplineSet
EndChar

StartChar: four
Encoding: 52 52 20
Width: 961
Flags: W
LayerCount: 2
Fore
SplineSet
586 1040 m 1,0,-1
 213 461 l 1,1,-1
 586 461 l 1,2,-1
 586 1040 l 1,0,-1
874 430 m 1,3,4
 853 398 853 398 835.5 382.5 c 128,-1,5
 818 367 818 367 795 350 c 1,6,-1
 725 350 l 1,7,-1
 725 104 l 2,8,9
 725 96 725 96 731 89.5 c 128,-1,10
 737 83 737 83 753 75.5 c 128,-1,11
 769 68 769 68 796 60 c 128,-1,12
 823 52 823 52 864 43 c 1,13,-1
 864 0 l 1,14,-1
 375 0 l 1,15,-1
 375 43 l 1,16,17
 440 54 440 54 481 63.5 c 128,-1,18
 522 73 522 73 545.5 81.5 c 128,-1,19
 569 90 569 90 577.5 98 c 128,-1,20
 586 106 586 106 586 115 c 2,21,-1
 586 350 l 1,22,-1
 88 350 l 1,23,-1
 55 383 l 1,24,-1
 551 1174 l 1,25,26
 593 1192 593 1192 626 1211 c 128,-1,27
 659 1230 659 1230 688 1245 c 1,28,-1
 725 1210 l 1,29,-1
 725 461 l 1,30,-1
 848 461 l 1,31,-1
 874 430 l 1,32,-1
 874 430 l 1,3,4
EndSplineSet
EndChar

StartChar: five
Encoding: 53 53 21
Width: 961
Flags: W
LayerCount: 2
Fore
SplineSet
836 410 m 0,0,1
 836 323 836 323 809.5 243.5 c 128,-1,2
 783 164 783 164 732.5 103 c 128,-1,3
 682 42 682 42 608 6 c 128,-1,4
 534 -30 534 -30 440 -30 c 0,5,6
 347 -30 347 -30 256 4 c 128,-1,7
 165 38 165 38 78 119 c 1,8,-1
 113 186 l 1,9,10
 166 149 166 149 209.5 126.5 c 128,-1,11
 253 104 253 104 290 92 c 128,-1,12
 327 80 327 80 358 76 c 128,-1,13
 389 72 389 72 418 72 c 0,14,15
 483 72 483 72 531.5 96.5 c 128,-1,16
 580 121 580 121 612 162.5 c 128,-1,17
 644 204 644 204 660 257 c 128,-1,18
 676 310 676 310 676 367 c 0,19,20
 676 435 676 435 659.5 491 c 128,-1,21
 643 547 643 547 609.5 586.5 c 128,-1,22
 576 626 576 626 524.5 648 c 128,-1,23
 473 670 473 670 403 670 c 0,24,25
 382 670 382 670 355 665 c 128,-1,26
 328 660 328 660 298.5 650 c 128,-1,27
 269 640 269 640 239.5 625 c 128,-1,28
 210 610 210 610 184 590 c 1,29,-1
 137 623 l 1,30,31
 143 659 143 659 151 706.5 c 128,-1,32
 159 754 159 754 167.5 807 c 128,-1,33
 176 860 176 860 184.5 915 c 128,-1,34
 193 970 193 970 200 1022.5 c 128,-1,35
 207 1075 207 1075 212 1122 c 128,-1,36
 217 1169 217 1169 219 1204 c 1,37,-1
 655 1204 l 2,38,39
 712 1204 712 1204 744 1213.5 c 128,-1,40
 776 1223 776 1223 776 1223 c 1,41,-1
 805 1194 l 1,42,43
 794 1178 794 1178 779.5 1160.5 c 128,-1,44
 765 1143 765 1143 750 1127 c 128,-1,45
 735 1111 735 1111 720.5 1097.5 c 128,-1,46
 706 1084 706 1084 694 1075 c 1,47,-1
 307 1075 l 1,48,49
 305 1046 305 1046 300 1000.5 c 128,-1,50
 295 955 295 955 288.5 907.5 c 128,-1,51
 282 860 282 860 275 818 c 128,-1,52
 268 776 268 776 264 754 c 1,53,54
 304 766 304 766 358 773 c 128,-1,55
 412 780 412 780 463 780 c 0,56,57
 554 780 554 780 623.5 749.5 c 128,-1,58
 693 719 693 719 740 668 c 128,-1,59
 787 617 787 617 811.5 550 c 128,-1,60
 836 483 836 483 836 410 c 0,0,1
EndSplineSet
EndChar

StartChar: six
Encoding: 54 54 22
Width: 961
Flags: W
LayerCount: 2
Fore
SplineSet
500 659 m 0,0,1
 449 659 449 659 387.5 631 c 128,-1,2
 326 603 326 603 270 536 c 1,3,4
 270 417 270 417 289.5 330.5 c 128,-1,5
 309 244 309 244 345 187.5 c 128,-1,6
 381 131 381 131 432 103.5 c 128,-1,7
 483 76 483 76 545 76 c 0,8,9
 599 76 599 76 634.5 101 c 128,-1,10
 670 126 670 126 691.5 165.5 c 128,-1,11
 713 205 713 205 722 253.5 c 128,-1,12
 731 302 731 302 731 348 c 0,13,14
 731 442 731 442 708.5 502 c 128,-1,15
 686 562 686 562 652 597 c 128,-1,16
 618 632 618 632 577.5 645.5 c 128,-1,17
 537 659 537 659 500 659 c 0,0,1
881 412 m 0,18,19
 881 365 881 365 870.5 314 c 128,-1,20
 860 263 860 263 838.5 214 c 128,-1,21
 817 165 817 165 785.5 121 c 128,-1,22
 754 77 754 77 712.5 43.5 c 128,-1,23
 671 10 671 10 619 -10 c 128,-1,24
 567 -30 567 -30 506 -30 c 0,25,26
 424 -30 424 -30 352 6.5 c 128,-1,27
 280 43 280 43 226.5 109 c 128,-1,28
 173 175 173 175 142 267.5 c 128,-1,29
 111 360 111 360 111 473 c 0,30,31
 111 614 111 614 151.5 743.5 c 128,-1,32
 192 873 192 873 275.5 977 c 128,-1,33
 359 1081 359 1081 486.5 1152.5 c 128,-1,34
 614 1224 614 1224 788 1249 c 1,35,-1
 807 1190 l 1,36,37
 689 1163 689 1163 597.5 1108.5 c 128,-1,38
 506 1054 506 1054 440.5 982 c 128,-1,39
 375 910 375 910 334.5 824.5 c 128,-1,40
 294 739 294 739 279 650 c 1,41,42
 314 684 314 684 350.5 707 c 128,-1,43
 387 730 387 730 421.5 744 c 128,-1,44
 456 758 456 758 487 764 c 128,-1,45
 518 770 518 770 541 770 c 0,46,47
 622 770 622 770 685 745 c 128,-1,48
 748 720 748 720 791.5 673.5 c 128,-1,49
 835 627 835 627 858 560.5 c 128,-1,50
 881 494 881 494 881 412 c 0,18,19
EndSplineSet
EndChar

StartChar: seven
Encoding: 55 55 23
Width: 961
Flags: W
LayerCount: 2
Fore
SplineSet
885 1167 m 1,0,1
 839 1060 839 1060 792 949.5 c 128,-1,2
 745 839 745 839 700.5 732 c 128,-1,3
 656 625 656 625 615 524 c 128,-1,4
 574 423 574 423 539.5 334 c 128,-1,5
 505 245 505 245 477 171 c 128,-1,6
 449 97 449 97 432 44 c 1,7,8
 397 19 397 19 358.5 1 c 128,-1,9
 320 -17 320 -17 270 -30 c 1,10,-1
 229 3 l 1,11,12
 316 156 316 156 385 295 c 128,-1,13
 454 434 454 434 513 564.5 c 128,-1,14
 572 695 572 695 625 821 c 128,-1,15
 678 947 678 947 733 1075 c 1,16,-1
 279 1075 l 2,17,18
 264 1075 264 1075 250 1074 c 128,-1,19
 236 1073 236 1073 221 1060.5 c 128,-1,20
 206 1048 206 1048 188.5 1018 c 128,-1,21
 171 988 171 988 150 930 c 1,22,-1
 104 948 l 1,23,24
 107 971 107 971 112 1005.5 c 128,-1,25
 117 1040 117 1040 123 1077 c 128,-1,26
 129 1114 129 1114 135 1148 c 128,-1,27
 141 1182 141 1182 147 1204 c 1,28,-1
 852 1204 l 1,29,-1
 885 1167 l 1,30,-1
 885 1167 l 1,0,1
EndSplineSet
EndChar

StartChar: eight
Encoding: 56 56 24
Width: 961
Flags: W
LayerCount: 2
Fore
SplineSet
274 950 m 0,0,1
 274 906 274 906 295.5 873.5 c 128,-1,2
 317 841 317 841 353 815 c 128,-1,3
 389 789 389 789 435.5 767.5 c 128,-1,4
 482 746 482 746 532 724 c 1,5,6
 606 777 606 777 637 830.5 c 128,-1,7
 668 884 668 884 668 938 c 0,8,9
 668 990 668 990 652.5 1028.5 c 128,-1,10
 637 1067 637 1067 608.5 1092 c 128,-1,11
 580 1117 580 1117 540 1129 c 128,-1,12
 500 1141 500 1141 451 1141 c 0,13,14
 406 1141 406 1141 373 1124 c 128,-1,15
 340 1107 340 1107 318 1079.5 c 128,-1,16
 296 1052 296 1052 285 1018 c 128,-1,17
 274 984 274 984 274 950 c 0,0,1
707 309 m 0,18,19
 707 375 707 375 683.5 422 c 128,-1,20
 660 469 660 469 622 503 c 128,-1,21
 584 537 584 537 535 562 c 128,-1,22
 486 587 486 587 434 610 c 1,23,24
 386 575 386 575 352 541.5 c 128,-1,25
 318 508 318 508 296.5 473 c 128,-1,26
 275 438 275 438 264.5 399 c 128,-1,27
 254 360 254 360 254 315 c 0,28,29
 254 263 254 263 271 218 c 128,-1,30
 288 173 288 173 320 140 c 128,-1,31
 352 107 352 107 397.5 88.5 c 128,-1,32
 443 70 443 70 500 70 c 0,33,34
 555 70 555 70 594.5 91 c 128,-1,35
 634 112 634 112 659 146 c 128,-1,36
 684 180 684 180 695.5 222.5 c 128,-1,37
 707 265 707 265 707 309 c 0,18,19
864 352 m 0,38,39
 864 274 864 274 831.5 205 c 128,-1,40
 799 136 799 136 742.5 83.5 c 128,-1,41
 686 31 686 31 611 0.5 c 128,-1,42
 536 -30 536 -30 451 -30 c 0,43,44
 365 -30 365 -30 299 -4 c 128,-1,45
 233 22 233 22 187 66 c 128,-1,46
 141 110 141 110 117.5 166.5 c 128,-1,47
 94 223 94 223 94 285 c 0,48,49
 94 339 94 339 112.5 389.5 c 128,-1,50
 131 440 131 440 165.5 485.5 c 128,-1,51
 200 531 200 531 248.5 571 c 128,-1,52
 297 611 297 611 357 644 c 1,53,54
 314 664 314 664 275.5 688 c 128,-1,55
 237 712 237 712 208 744 c 128,-1,56
 179 776 179 776 162 817.5 c 128,-1,57
 145 859 145 859 145 915 c 0,58,59
 145 984 145 984 172.5 1043 c 128,-1,60
 200 1102 200 1102 248 1144.5 c 128,-1,61
 296 1187 296 1187 361.5 1211 c 128,-1,62
 427 1235 427 1235 502 1235 c 256,63,64
 577 1235 577 1235 635.5 1215 c 128,-1,65
 694 1195 694 1195 733.5 1160 c 128,-1,66
 773 1125 773 1125 794 1076 c 128,-1,67
 815 1027 815 1027 815 969 c 0,68,69
 815 927 815 927 800 889.5 c 128,-1,70
 785 852 785 852 758 817.5 c 128,-1,71
 731 783 731 783 693.5 751 c 128,-1,72
 656 719 656 719 612 688 c 1,73,74
 661 664 661 664 707 634.5 c 128,-1,75
 753 605 753 605 787.5 565 c 128,-1,76
 822 525 822 525 843 473 c 128,-1,77
 864 421 864 421 864 352 c 0,38,39
EndSplineSet
EndChar

StartChar: nine
Encoding: 57 57 25
Width: 961
Flags: W
LayerCount: 2
Fore
SplineSet
481 555 m 0,0,1
 550 555 550 555 608.5 593 c 128,-1,2
 667 631 667 631 709 693 c 1,3,4
 707 819 707 819 683.5 903 c 128,-1,5
 660 987 660 987 625 1037.5 c 128,-1,6
 590 1088 590 1088 547.5 1109 c 128,-1,7
 505 1130 505 1130 465 1130 c 0,8,9
 414 1130 414 1130 373.5 1109.5 c 128,-1,10
 333 1089 333 1089 305 1052.5 c 128,-1,11
 277 1016 277 1016 262.5 965.5 c 128,-1,12
 248 915 248 915 248 856 c 0,13,14
 248 764 248 764 270.5 705.5 c 128,-1,15
 293 647 293 647 327.5 613.5 c 128,-1,16
 362 580 362 580 403 567.5 c 128,-1,17
 444 555 444 555 481 555 c 0,0,1
870 731 m 0,18,19
 870 579 870 579 829 448.5 c 128,-1,20
 788 318 788 318 704 217.5 c 128,-1,21
 620 117 620 117 492 49.5 c 128,-1,22
 364 -18 364 -18 190 -43 c 1,23,-1
 172 16 l 1,24,25
 305 49 305 49 401 103 c 128,-1,26
 497 157 497 157 561 228.5 c 128,-1,27
 625 300 625 300 659.5 387.5 c 128,-1,28
 694 475 694 475 704 576 c 1,29,30
 650 516 650 516 578.5 480 c 128,-1,31
 507 444 507 444 438 444 c 0,32,33
 358 444 358 444 295.5 471 c 128,-1,34
 233 498 233 498 189.5 545 c 128,-1,35
 146 592 146 592 123 656 c 128,-1,36
 100 720 100 720 100 795 c 0,37,38
 100 845 100 845 113.5 897.5 c 128,-1,39
 127 950 127 950 152.5 999 c 128,-1,40
 178 1048 178 1048 214.5 1091 c 128,-1,41
 251 1134 251 1134 296 1166 c 128,-1,42
 341 1198 341 1198 394 1216.5 c 128,-1,43
 447 1235 447 1235 506 1235 c 0,44,45
 576 1235 576 1235 641.5 1206 c 128,-1,46
 707 1177 707 1177 758 1115.5 c 128,-1,47
 809 1054 809 1054 839.5 959 c 128,-1,48
 870 864 870 864 870 731 c 0,18,19
EndSplineSet
EndChar

StartChar: less
Encoding: 60 60 28
Width: 899
Flags: W
LayerCount: 2
Fore
SplineSet
838 322 m 1,0,1
 827 312 827 312 818.5 304 c 128,-1,2
 810 296 810 296 800.5 288.5 c 128,-1,3
 791 281 791 281 780 273 c 128,-1,4
 769 265 769 265 754 256 c 1,5,-1
 86 506 l 1,6,-1
 61 530 l 1,7,8
 61 532 61 532 61.5 533 c 128,-1,9
 62 534 62 534 62 536 c 2,10,-1
 65 545 l 2,11,12
 65 547 65 547 67 553 c 0,13,14
 69 561 69 561 70 566 c 0,15,16
 71 568 71 568 73 574 c 0,17,18
 74 577 74 577 74.5 580.5 c 128,-1,19
 75 584 75 584 77 587 c 0,20,21
 78 589 78 589 78 591 c 256,22,23
 78 593 78 593 79 595 c 0,24,25
 81 600 81 600 82 604.5 c 128,-1,26
 83 609 83 609 85 613 c 0,27,28
 87 616 87 616 87.5 619 c 128,-1,29
 88 622 88 622 90 625 c 2,30,31
 90 625 90 625 92 629 c 1,32,-1
 813 899 l 1,33,-1
 838 874 l 1,34,35
 835 863 835 863 831.5 850 c 128,-1,36
 828 837 828 837 824 823 c 128,-1,37
 820 809 820 809 816 796 c 128,-1,38
 812 783 812 783 809 774 c 1,39,-1
 254 568 l 1,40,-1
 821 358 l 1,41,-1
 838 322 l 1,42,-1
 838 322 l 1,0,1
EndSplineSet
EndChar

StartChar: equal
Encoding: 61 61 29
Width: 899
Flags: W
LayerCount: 2
Fore
SplineSet
838 743 m 1,0,1
 833 723 833 723 824 697.5 c 128,-1,2
 815 672 815 672 809 655 c 1,3,-1
 86 655 l 1,4,-1
 61 680 l 1,5,6
 66 700 66 700 74.5 724.5 c 128,-1,7
 83 749 83 749 92 768 c 1,8,-1
 813 768 l 1,9,-1
 838 743 l 1,10,-1
 838 743 l 1,0,1
838 444 m 1,11,12
 833 423 833 423 824 398 c 128,-1,13
 815 373 815 373 809 354 c 1,14,-1
 86 354 l 1,15,-1
 61 381 l 1,16,17
 66 401 66 401 74.5 425 c 128,-1,18
 83 449 83 449 92 469 c 1,19,-1
 813 469 l 1,20,-1
 838 444 l 1,21,-1
 838 444 l 1,11,12
EndSplineSet
EndChar

StartChar: greater
Encoding: 62 62 30
Width: 899
Flags: W
LayerCount: 2
Fore
SplineSet
832 601 m 2,0,1
 830 593 830 593 828 587 c 0,2,3
 827 585 827 585 827 583 c 256,4,5
 827 581 827 581 826 579 c 0,6,7
 824 573 824 573 822 565 c 1,8,9
 818 556 818 556 817 549 c 0,10,11
 816 547 816 547 815 544 c 128,-1,12
 814 541 814 541 813 539 c 0,13,14
 811 535 811 535 810 531 c 128,-1,15
 809 527 809 527 807 524 c 1,16,-1
 86 256 l 1,17,-1
 61 281 l 1,18,19
 64 291 64 291 68 304 c 128,-1,20
 72 317 72 317 76 331 c 128,-1,21
 80 345 80 345 84 357.5 c 128,-1,22
 88 370 88 370 92 379 c 1,23,-1
 643 585 l 1,24,-1
 78 795 l 1,25,-1
 61 834 l 1,26,27
 84 852 84 852 105.5 868 c 128,-1,28
 127 884 127 884 145 899 c 1,29,-1
 815 649 l 1,30,-1
 838 625 l 1,31,-1
 832 601 l 2,0,1
EndSplineSet
EndChar

StartChar: question
Encoding: 63 63 31
Width: 887
Flags: W
LayerCount: 2
Fore
SplineSet
539 123 m 0,0,1
 539 88 539 88 528.5 58.5 c 128,-1,2
 518 29 518 29 499.5 7 c 128,-1,3
 481 -15 481 -15 455.5 -27.5 c 128,-1,4
 430 -40 430 -40 401 -40 c 0,5,6
 347 -40 347 -40 324 -11 c 128,-1,7
 301 18 301 18 301 72 c 0,8,9
 301 106 301 106 312 135.5 c 128,-1,10
 323 165 323 165 342 187.5 c 128,-1,11
 361 210 361 210 386.5 223 c 128,-1,12
 412 236 412 236 440 236 c 0,13,14
 490 236 490 236 514.5 206.5 c 128,-1,15
 539 177 539 177 539 123 c 0,0,1
807 1165 m 0,16,17
 807 1090 807 1090 783.5 1030 c 128,-1,18
 760 970 760 970 724 918 c 128,-1,19
 688 866 688 866 645.5 818.5 c 128,-1,20
 603 771 603 771 565.5 720.5 c 128,-1,21
 528 670 528 670 501 613 c 128,-1,22
 474 556 474 556 469 485 c 2,23,-1
 463 389 l 1,24,25
 444 375 444 375 429.5 365.5 c 128,-1,26
 415 356 415 356 387 348 c 1,27,-1
 362 369 l 1,28,-1
 354 485 l 2,29,30
 351 542 351 542 371 598.5 c 128,-1,31
 391 655 391 655 423 709.5 c 128,-1,32
 455 764 455 764 493 817.5 c 128,-1,33
 531 871 531 871 564 922 c 128,-1,34
 597 973 597 973 619 1022.5 c 128,-1,35
 641 1072 641 1072 641 1120 c 0,36,37
 641 1244 641 1244 585 1314 c 128,-1,38
 529 1384 529 1384 424 1384 c 0,39,40
 388 1384 388 1384 355.5 1367.5 c 128,-1,41
 323 1351 323 1351 298 1324 c 128,-1,42
 273 1297 273 1297 258.5 1261 c 128,-1,43
 244 1225 244 1225 244 1186 c 0,44,45
 244 1172 244 1172 247.5 1157 c 128,-1,46
 251 1142 251 1142 256 1128 c 1,47,48
 224 1111 224 1111 189 1103 c 128,-1,49
 154 1095 154 1095 109 1090 c 1,50,-1
 82 1120 l 1,51,52
 80 1128 80 1128 80 1136 c 0,53,54
 80 1145 80 1145 80 1153 c 0,55,56
 80 1223 80 1223 114.5 1283 c 128,-1,57
 149 1343 149 1343 207.5 1387 c 128,-1,58
 266 1431 266 1431 342 1455.5 c 128,-1,59
 418 1480 418 1480 502 1480 c 0,60,61
 575 1480 575 1480 632 1457 c 128,-1,62
 689 1434 689 1434 728 1392.5 c 128,-1,63
 767 1351 767 1351 787 1293 c 128,-1,64
 807 1235 807 1235 807 1165 c 0,16,17
EndSplineSet
EndChar

StartChar: at
Encoding: 64 64 32
Width: 1653
Flags: W
LayerCount: 2
Fore
SplineSet
1014 731 m 1,0,1
 1000 759 1000 759 985 781 c 128,-1,2
 970 803 970 803 952 819 c 128,-1,3
 934 835 934 835 911 843.5 c 128,-1,4
 888 852 888 852 858 852 c 0,5,6
 803 852 803 852 757.5 828 c 128,-1,7
 712 804 712 804 679 757 c 128,-1,8
 646 710 646 710 628 639.5 c 128,-1,9
 610 569 610 569 610 475 c 0,10,11
 610 390 610 390 630.5 321 c 128,-1,12
 651 252 651 252 682.5 203.5 c 128,-1,13
 714 155 714 155 752 128.5 c 128,-1,14
 790 102 790 102 825 102 c 0,15,16
 844 102 844 102 862 108.5 c 128,-1,17
 880 115 880 115 901 131.5 c 128,-1,18
 922 148 922 148 949 176.5 c 128,-1,19
 976 205 976 205 1014 250 c 1,20,-1
 1014 731 l 1,0,1
1583 549 m 0,21,22
 1583 463 1583 463 1563 386 c 128,-1,23
 1543 309 1543 309 1510 245 c 128,-1,24
 1477 181 1477 181 1433.5 130 c 128,-1,25
 1390 79 1390 79 1343 43.5 c 128,-1,26
 1296 8 1296 8 1247.5 -11 c 128,-1,27
 1199 -30 1199 -30 1157 -30 c 0,28,29
 1133 -30 1133 -30 1111 -19.5 c 128,-1,30
 1089 -9 1089 -9 1071 14 c 128,-1,31
 1053 37 1053 37 1040 73.5 c 128,-1,32
 1027 110 1027 110 1020 162 c 1,33,34
 979 105 979 105 947.5 68 c 128,-1,35
 916 31 916 31 886 9 c 128,-1,36
 856 -13 856 -13 825 -21.5 c 128,-1,37
 794 -30 794 -30 754 -30 c 0,38,39
 703 -30 703 -30 650.5 2.5 c 128,-1,40
 598 35 598 35 555.5 96 c 128,-1,41
 513 157 513 157 486 245 c 128,-1,42
 459 333 459 333 459 444 c 0,43,44
 459 501 459 501 473 562 c 128,-1,45
 487 623 487 623 513 680 c 128,-1,46
 539 737 539 737 576.5 788 c 128,-1,47
 614 839 614 839 662 877.5 c 128,-1,48
 710 916 710 916 767 938 c 128,-1,49
 824 960 824 960 889 960 c 0,50,51
 912 960 912 960 931 956.5 c 128,-1,52
 950 953 950 953 968.5 943 c 128,-1,53
 987 933 987 933 1008 915 c 128,-1,54
 1029 897 1029 897 1055 868 c 1,55,56
 1081 884 1081 884 1108 906.5 c 128,-1,57
 1135 929 1135 929 1163 960 c 1,58,-1
 1194 930 l 1,59,60
 1194 930 1194 930 1189 913.5 c 128,-1,61
 1184 897 1184 897 1178.5 868.5 c 128,-1,62
 1173 840 1173 840 1168 802.5 c 128,-1,63
 1163 765 1163 765 1163 723 c 2,64,-1
 1163 285 l 2,65,66
 1163 195 1163 195 1193.5 152 c 128,-1,67
 1224 109 1224 109 1272 109 c 0,68,69
 1297 109 1297 109 1330 140.5 c 128,-1,70
 1363 172 1363 172 1393 226.5 c 128,-1,71
 1423 281 1423 281 1443.5 354.5 c 128,-1,72
 1464 428 1464 428 1464 512 c 0,73,74
 1464 680 1464 680 1421 811 c 128,-1,75
 1378 942 1378 942 1301 1031.5 c 128,-1,76
 1224 1121 1224 1121 1118 1167.5 c 128,-1,77
 1012 1214 1012 1214 885 1214 c 0,78,79
 783 1214 783 1214 694 1188 c 128,-1,80
 605 1162 605 1162 531 1115.5 c 128,-1,81
 457 1069 457 1069 399 1004.5 c 128,-1,82
 341 940 341 940 301 863.5 c 128,-1,83
 261 787 261 787 240 700.5 c 128,-1,84
 219 614 219 614 219 524 c 0,85,86
 219 343 219 343 275 198.5 c 128,-1,87
 331 54 331 54 425.5 -47 c 128,-1,88
 520 -148 520 -148 643.5 -202 c 128,-1,89
 767 -256 767 -256 903 -256 c 0,90,91
 987 -256 987 -256 1067.5 -238.5 c 128,-1,92
 1148 -221 1148 -221 1217 -194.5 c 128,-1,93
 1286 -168 1286 -168 1339.5 -138 c 128,-1,94
 1393 -108 1393 -108 1423 -82 c 1,95,-1
 1450 -137 l 1,96,97
 1414 -175 1414 -175 1356.5 -217 c 128,-1,98
 1299 -259 1299 -259 1223.5 -294 c 128,-1,99
 1148 -329 1148 -329 1055 -352 c 128,-1,100
 962 -375 962 -375 854 -375 c 0,101,102
 682 -375 682 -375 538 -316 c 128,-1,103
 394 -257 394 -257 290 -147.5 c 128,-1,104
 186 -38 186 -38 128 117.5 c 128,-1,105
 70 273 70 273 70 465 c 0,106,107
 70 578 70 578 100.5 686.5 c 128,-1,108
 131 795 131 795 187 891.5 c 128,-1,109
 243 988 243 988 321 1069 c 128,-1,110
 399 1150 399 1150 494 1208.5 c 128,-1,111
 589 1267 589 1267 698 1300 c 128,-1,112
 807 1333 807 1333 924 1333 c 0,113,114
 1073 1333 1073 1333 1194.5 1282.5 c 128,-1,115
 1316 1232 1316 1232 1402.5 1133 c 128,-1,116
 1489 1034 1489 1034 1536 887.5 c 128,-1,117
 1583 741 1583 741 1583 549 c 0,21,22
EndSplineSet
EndChar

StartChar: A
Encoding: 65 65 33
Width: 1219
Flags: W
LayerCount: 2
Fore
SplineSet
411 535 m 1,0,-1
 758 535 l 1,1,-1
 582 1049 l 1,2,-1
 411 535 l 1,0,-1
776 0 m 1,3,-1
 776 43 l 1,4,5
 854 48 854 48 885 63.5 c 128,-1,6
 916 79 916 79 903 111 c 1,7,-1
 789 444 l 1,8,-1
 381 444 l 1,9,-1
 270 111 l 1,10,11
 261 80 261 80 297.5 66 c 128,-1,12
 334 52 334 52 416 43 c 1,13,-1
 416 0 l 1,14,-1
 0 0 l 1,15,-1
 0 43 l 1,16,17
 68 55 68 55 107.5 68.5 c 128,-1,18
 147 82 147 82 158 111 c 1,19,-1
 530 1237 l 1,20,21
 553 1262 553 1262 587 1282.5 c 128,-1,22
 621 1303 621 1303 647 1317 c 1,23,-1
 1067 111 l 2,24,25
 1076 83 1076 83 1104.5 66.5 c 128,-1,26
 1133 50 1133 50 1198 43 c 1,27,-1
 1198 0 l 1,28,-1
 776 0 l 1,3,-1
EndSplineSet
EndChar

StartChar: B
Encoding: 66 66 34
Width: 1126
Flags: W
LayerCount: 2
Fore
SplineSet
413 1206 m 0,0,1
 399 1206 399 1206 384.5 1205.5 c 128,-1,2
 370 1205 370 1205 355 1204 c 1,3,-1
 355 725 l 1,4,-1
 389 725 l 2,5,6
 503 725 503 725 573.5 747.5 c 128,-1,7
 644 770 644 770 683 805 c 128,-1,8
 722 840 722 840 735.5 884 c 128,-1,9
 749 928 749 928 749 971 c 0,10,11
 749 1021 749 1021 733 1064 c 128,-1,12
 717 1107 717 1107 678 1138.5 c 128,-1,13
 639 1170 639 1170 574.5 1188 c 128,-1,14
 510 1206 510 1206 413 1206 c 0,0,1
520 649 m 0,15,16
 472 649 472 649 431.5 645 c 128,-1,17
 391 641 391 641 355 635 c 1,18,-1
 355 104 l 2,19,20
 355 96 355 96 364 89 c 1,21,22
 381 83 381 83 403 79.5 c 128,-1,23
 425 76 425 76 448 74 c 128,-1,24
 471 72 471 72 494 71 c 128,-1,25
 517 70 517 70 537 70 c 0,26,27
 609 70 609 70 667 88.5 c 128,-1,28
 725 107 725 107 766.5 140 c 128,-1,29
 808 173 808 173 830 219.5 c 128,-1,30
 852 266 852 266 852 322 c 0,31,32
 852 377 852 377 832.5 435 c 128,-1,33
 813 493 813 493 772.5 540.5 c 128,-1,34
 732 588 732 588 669.5 618.5 c 128,-1,35
 607 649 607 649 520 649 c 0,15,16
1016 356 m 0,36,37
 1016 271 1016 271 982.5 202.5 c 128,-1,38
 949 134 949 134 888.5 86 c 128,-1,39
 828 38 828 38 744 12 c 128,-1,40
 660 -14 660 -14 559 -14 c 0,41,42
 530 -14 530 -14 486 -13 c 128,-1,43
 442 -12 442 -12 394 -10.5 c 128,-1,44
 346 -9 346 -9 297.5 -7 c 128,-1,45
 249 -5 249 -5 210 -3.5 c 128,-1,46
 171 -2 171 -2 147 -1 c 128,-1,47
 123 0 123 0 123 0 c 1,48,-1
 50 0 l 1,49,-1
 50 43 l 1,50,51
 118 57 118 57 156.5 73.5 c 128,-1,52
 195 90 195 90 195 104 c 2,53,-1
 195 1190 l 1,54,55
 157 1185 157 1185 120.5 1179.5 c 128,-1,56
 84 1174 84 1174 50 1168 c 1,57,-1
 41 1230 l 1,58,59
 80 1241 80 1241 131.5 1251.5 c 128,-1,60
 183 1262 183 1262 240 1270.5 c 128,-1,61
 297 1279 297 1279 356 1284.5 c 128,-1,62
 415 1290 415 1290 469 1290 c 0,63,64
 569 1290 569 1290 650 1271.5 c 128,-1,65
 731 1253 731 1253 787.5 1218 c 128,-1,66
 844 1183 844 1183 874.5 1133 c 128,-1,67
 905 1083 905 1083 905 1020 c 0,68,69
 905 912 905 912 854 834.5 c 128,-1,70
 803 757 803 757 715 723 c 1,71,72
 779 711 779 711 834 678 c 128,-1,73
 889 645 889 645 929.5 596.5 c 128,-1,74
 970 548 970 548 993 486.5 c 128,-1,75
 1016 425 1016 425 1016 356 c 0,36,37
EndSplineSet
EndChar

StartChar: C
Encoding: 67 67 35
Width: 1098
Flags: W
LayerCount: 2
Fore
SplineSet
1018 211 m 1,0,1
 954 143 954 143 895.5 96.5 c 128,-1,2
 837 50 837 50 782.5 22 c 128,-1,3
 728 -6 728 -6 675.5 -18 c 128,-1,4
 623 -30 623 -30 571 -30 c 0,5,6
 478 -30 478 -30 388.5 12 c 128,-1,7
 299 54 299 54 228 133 c 128,-1,8
 157 212 157 212 113.5 326.5 c 128,-1,9
 70 441 70 441 70 586 c 0,10,11
 70 746 70 746 118.5 876 c 128,-1,12
 167 1006 167 1006 250 1098 c 128,-1,13
 333 1190 333 1190 443 1240 c 128,-1,14
 553 1290 553 1290 676 1290 c 0,15,16
 784 1290 784 1290 865.5 1261 c 128,-1,17
 947 1232 947 1232 999 1190 c 0,18,19
 1005 1185 1005 1185 996 1170 c 128,-1,20
 987 1155 987 1155 971.5 1136 c 128,-1,21
 956 1117 956 1117 938.5 1098 c 128,-1,22
 921 1079 921 1079 909 1067 c 1,23,-1
 874 1073 l 1,24,25
 823 1120 823 1120 753 1150 c 128,-1,26
 683 1180 683 1180 592 1180 c 0,27,28
 558 1180 558 1180 517.5 1167.5 c 128,-1,29
 477 1155 477 1155 436 1128 c 128,-1,30
 395 1101 395 1101 357 1057.5 c 128,-1,31
 319 1014 319 1014 289.5 952 c 128,-1,32
 260 890 260 890 242.5 808.5 c 128,-1,33
 225 727 225 727 225 623 c 0,34,35
 225 490 225 490 263.5 390 c 128,-1,36
 302 290 302 290 362.5 223.5 c 128,-1,37
 423 157 423 157 497.5 123.5 c 128,-1,38
 572 90 572 90 643 90 c 0,39,40
 697 90 697 90 784 127 c 128,-1,41
 871 164 871 164 981 256 c 1,42,43
 986 254 986 254 991.5 247.5 c 128,-1,44
 997 241 997 241 1002 234 c 128,-1,45
 1007 227 1007 227 1011 220.5 c 128,-1,46
 1015 214 1015 214 1018 211 c 1,0,1
EndSplineSet
EndChar

StartChar: D
Encoding: 68 68 36
Width: 1214
Flags: W
LayerCount: 2
Fore
SplineSet
453 1206 m 0,0,1
 403 1206 403 1206 355 1203 c 1,2,-1
 355 154 l 2,3,4
 355 132 355 132 365 118 c 1,5,6
 379 101 379 101 419 92.5 c 128,-1,7
 459 84 459 84 537 84 c 0,8,9
 606 84 606 84 679.5 117.5 c 128,-1,10
 753 151 753 151 813.5 219.5 c 128,-1,11
 874 288 874 288 913 392 c 128,-1,12
 952 496 952 496 952 637 c 0,13,14
 952 770 952 770 919 875.5 c 128,-1,15
 886 981 886 981 822.5 1054.5 c 128,-1,16
 759 1128 759 1128 666 1167 c 128,-1,17
 573 1206 573 1206 453 1206 c 0,0,1
1124 676 m 0,18,19
 1124 551 1124 551 1098.5 452.5 c 128,-1,20
 1073 354 1073 354 1030 278.5 c 128,-1,21
 987 203 987 203 930 150.5 c 128,-1,22
 873 98 873 98 810.5 64.5 c 128,-1,23
 748 31 748 31 683 15.5 c 128,-1,24
 618 0 618 0 559 0 c 2,25,-1
 50 0 l 1,26,-1
 50 43 l 1,27,28
 118 57 118 57 156.5 73.5 c 128,-1,29
 195 90 195 90 195 104 c 2,30,-1
 195 1188 l 1,31,32
 155 1183 155 1183 119 1178 c 128,-1,33
 83 1173 83 1173 50 1168 c 1,34,-1
 41 1230 l 1,35,36
 85 1242 85 1242 142.5 1253 c 128,-1,37
 200 1264 200 1264 264 1272.5 c 128,-1,38
 328 1281 328 1281 393.5 1285.5 c 128,-1,39
 459 1290 459 1290 518 1290 c 0,40,41
 657 1290 657 1290 769 1248.5 c 128,-1,42
 881 1207 881 1207 960 1128 c 128,-1,43
 1039 1049 1039 1049 1081.5 935 c 128,-1,44
 1124 821 1124 821 1124 676 c 0,18,19
EndSplineSet
EndChar

StartChar: E
Encoding: 69 69 37
Width: 1016
Flags: W
LayerCount: 2
Fore
SplineSet
954 244 m 1,0,1
 946 158 946 158 933.5 93.5 c 128,-1,2
 921 29 921 29 913 0 c 1,3,-1
 50 0 l 1,4,-1
 50 43 l 1,5,6
 118 57 118 57 156.5 73.5 c 128,-1,7
 195 90 195 90 195 104 c 2,8,-1
 195 1155 l 2,9,10
 195 1167 195 1167 158.5 1185 c 128,-1,11
 122 1203 122 1203 50 1217 c 1,12,-1
 50 1260 l 1,13,-1
 856 1260 l 1,14,-1
 889 1235 l 1,15,16
 887 1209 887 1209 883 1178 c 128,-1,17
 879 1147 879 1147 873 1116 c 128,-1,18
 867 1085 867 1085 860.5 1057 c 128,-1,19
 854 1029 854 1029 848 1010 c 1,20,-1
 803 1010 l 1,21,22
 801 1056 801 1056 794.5 1087 c 128,-1,23
 788 1118 788 1118 778 1136.5 c 128,-1,24
 768 1155 768 1155 753.5 1162.5 c 128,-1,25
 739 1170 739 1170 721 1170 c 2,26,-1
 355 1170 l 1,27,-1
 355 735 l 1,28,-1
 760 735 l 1,29,-1
 786 707 l 1,30,31
 778 693 778 693 766.5 677.5 c 128,-1,32
 755 662 755 662 742.5 647.5 c 128,-1,33
 730 633 730 633 717.5 620.5 c 128,-1,34
 705 608 705 608 694 600 c 1,35,36
 679 615 679 615 661.5 625 c 128,-1,37
 644 635 644 635 621.5 642 c 128,-1,38
 599 649 599 649 568.5 652 c 128,-1,39
 538 655 538 655 496 655 c 2,40,-1
 355 655 l 1,41,-1
 355 154 l 2,42,43
 355 139 355 139 362 127.5 c 128,-1,44
 369 116 369 116 391 107.5 c 128,-1,45
 413 99 413 99 453 94.5 c 128,-1,46
 493 90 493 90 559 90 c 2,47,-1
 688 90 l 2,48,49
 734 90 734 90 766.5 95 c 128,-1,50
 799 100 799 100 824 117.5 c 128,-1,51
 849 135 849 135 869.5 169 c 128,-1,52
 890 203 890 203 911 262 c 1,53,-1
 954 244 l 1,54,-1
 954 244 l 1,0,1
EndSplineSet
EndChar

StartChar: F
Encoding: 70 70 38
Width: 979
Flags: W
LayerCount: 2
Fore
SplineSet
50 0 m 1,0,-1
 50 43 l 1,1,2
 118 57 118 57 156.5 73.5 c 128,-1,3
 195 90 195 90 195 104 c 2,4,-1
 195 1155 l 2,5,6
 195 1167 195 1167 158.5 1185 c 128,-1,7
 122 1203 122 1203 50 1217 c 1,8,-1
 50 1260 l 1,9,-1
 866 1260 l 1,10,-1
 897 1235 l 1,11,12
 896 1209 896 1209 892 1178 c 128,-1,13
 888 1147 888 1147 882.5 1116 c 128,-1,14
 877 1085 877 1085 870.5 1057 c 128,-1,15
 864 1029 864 1029 858 1010 c 1,16,-1
 811 1010 l 1,17,18
 809 1056 809 1056 803.5 1087 c 128,-1,19
 798 1118 798 1118 787.5 1136.5 c 128,-1,20
 777 1155 777 1155 762.5 1162.5 c 128,-1,21
 748 1170 748 1170 729 1170 c 2,22,-1
 355 1170 l 1,23,-1
 355 735 l 1,24,-1
 729 735 l 1,25,-1
 758 707 l 1,26,27
 749 693 749 693 737 677.5 c 128,-1,28
 725 662 725 662 712 647.5 c 128,-1,29
 699 633 699 633 686.5 620.5 c 128,-1,30
 674 608 674 608 664 600 c 1,31,32
 649 615 649 615 632 625 c 128,-1,33
 615 635 615 635 592.5 642 c 128,-1,34
 570 649 570 649 539.5 652 c 128,-1,35
 509 655 509 655 467 655 c 2,36,-1
 355 655 l 1,37,-1
 355 104 l 2,38,39
 355 92 355 92 393.5 77 c 128,-1,40
 432 62 432 62 530 43 c 1,41,-1
 530 0 l 1,42,-1
 50 0 l 1,0,-1
EndSplineSet
EndChar

StartChar: G
Encoding: 71 71 39
Width: 1194
Flags: W
LayerCount: 2
Fore
SplineSet
1042 1188 m 0,0,1
 1049 1183 1049 1183 1040 1168.5 c 128,-1,2
 1031 1154 1031 1154 1014.5 1136 c 128,-1,3
 998 1118 998 1118 978.5 1100.5 c 128,-1,4
 959 1083 959 1083 946 1071 c 1,5,-1
 913 1077 l 1,6,7
 880 1108 880 1108 845 1128.5 c 128,-1,8
 810 1149 810 1149 771.5 1160 c 128,-1,9
 733 1171 733 1171 690 1175.5 c 128,-1,10
 647 1180 647 1180 598 1180 c 0,11,12
 573 1180 573 1180 535.5 1168.5 c 128,-1,13
 498 1157 498 1157 456.5 1131.5 c 128,-1,14
 415 1106 415 1106 373 1064.5 c 128,-1,15
 331 1023 331 1023 298 962.5 c 128,-1,16
 265 902 265 902 244 821.5 c 128,-1,17
 223 741 223 741 223 637 c 0,18,19
 223 498 223 498 260.5 395 c 128,-1,20
 298 292 298 292 358 224.5 c 128,-1,21
 418 157 418 157 493.5 123.5 c 128,-1,22
 569 90 569 90 645 90 c 0,23,24
 718 90 718 90 779.5 104.5 c 128,-1,25
 841 119 841 119 890 146 c 1,26,-1
 890 485 l 2,27,28
 890 496 890 496 880.5 506.5 c 128,-1,29
 871 517 871 517 847.5 527 c 128,-1,30
 824 537 824 537 784.5 547 c 128,-1,31
 745 557 745 557 684 567 c 1,32,-1
 684 610 l 1,33,-1
 1145 610 l 1,34,-1
 1145 567 l 1,35,36
 1088 553 1088 553 1064 530.5 c 128,-1,37
 1040 508 1040 508 1040 485 c 2,38,-1
 1040 160 l 1,39,40
 1040 160 1040 160 1039 159 c 128,-1,41
 1038 158 1038 158 1036 157 c 1,42,43
 1038 156 1038 156 1040 154 c 1,44,45
 966 93 966 93 907.5 57 c 128,-1,46
 849 21 849 21 800 1.5 c 128,-1,47
 751 -18 751 -18 707 -24 c 128,-1,48
 663 -30 663 -30 618 -30 c 0,49,50
 517 -30 517 -30 419 7.5 c 128,-1,51
 321 45 321 45 243.5 121.5 c 128,-1,52
 166 198 166 198 118 312.5 c 128,-1,53
 70 427 70 427 70 582 c 0,54,55
 70 748 70 748 122.5 879.5 c 128,-1,56
 175 1011 175 1011 266 1102.5 c 128,-1,57
 357 1194 357 1194 478.5 1242 c 128,-1,58
 600 1290 600 1290 737 1290 c 0,59,60
 770 1290 770 1290 809.5 1283 c 128,-1,61
 849 1276 849 1276 890 1263 c 128,-1,62
 931 1250 931 1250 970.5 1231 c 128,-1,63
 1010 1212 1010 1212 1042 1188 c 0,0,1
EndSplineSet
EndChar

StartChar: H
Encoding: 72 72 40
Width: 1339
Flags: W
LayerCount: 2
Fore
SplineSet
50 0 m 1,0,-1
 50 43 l 1,1,2
 118 57 118 57 156.5 73.5 c 128,-1,3
 195 90 195 90 195 104 c 2,4,-1
 195 1155 l 2,5,6
 195 1167 195 1167 158.5 1185 c 128,-1,7
 122 1203 122 1203 50 1217 c 1,8,-1
 50 1260 l 1,9,-1
 500 1260 l 1,10,-1
 500 1217 l 1,11,12
 432 1203 432 1203 393.5 1186 c 128,-1,13
 355 1169 355 1169 355 1155 c 2,14,-1
 355 705 l 1,15,-1
 965 705 l 1,16,-1
 965 1155 l 2,17,18
 965 1167 965 1167 928.5 1185 c 128,-1,19
 892 1203 892 1203 820 1217 c 1,20,-1
 820 1260 l 1,21,-1
 1270 1260 l 1,22,-1
 1270 1217 l 1,23,24
 1202 1203 1202 1203 1163.5 1186 c 128,-1,25
 1125 1169 1125 1169 1125 1155 c 2,26,-1
 1125 104 l 2,27,28
 1125 92 1125 92 1161.5 74.5 c 128,-1,29
 1198 57 1198 57 1270 43 c 1,30,-1
 1270 0 l 1,31,-1
 820 0 l 1,32,-1
 820 43 l 1,33,34
 888 57 888 57 926.5 73.5 c 128,-1,35
 965 90 965 90 965 104 c 2,36,-1
 965 615 l 1,37,-1
 355 615 l 1,38,-1
 355 104 l 2,39,40
 355 92 355 92 391 74.5 c 128,-1,41
 427 57 427 57 500 43 c 1,42,-1
 500 0 l 1,43,-1
 50 0 l 1,0,-1
EndSplineSet
EndChar

StartChar: I
Encoding: 73 73 41
Width: 610
Flags: W
LayerCount: 2
Fore
SplineSet
70 0 m 1,0,-1
 70 43 l 1,1,2
 138 57 138 57 176.5 73.5 c 128,-1,3
 215 90 215 90 215 104 c 2,4,-1
 215 1155 l 2,5,6
 215 1167 215 1167 178.5 1185 c 128,-1,7
 142 1203 142 1203 70 1217 c 1,8,-1
 70 1260 l 1,9,-1
 520 1260 l 1,10,-1
 520 1217 l 1,11,12
 452 1203 452 1203 413.5 1186 c 128,-1,13
 375 1169 375 1169 375 1155 c 2,14,-1
 375 104 l 2,15,16
 375 92 375 92 411.5 74.5 c 128,-1,17
 448 57 448 57 520 43 c 1,18,-1
 520 0 l 1,19,-1
 70 0 l 1,0,-1
EndSplineSet
EndChar

StartChar: J
Encoding: 74 74 42
Width: 625
Flags: W
LayerCount: 2
Fore
SplineSet
555 1217 m 1,0,1
 487 1203 487 1203 448.5 1186 c 128,-1,2
 410 1169 410 1169 410 1155 c 2,3,-1
 410 205 l 2,4,5
 410 86 410 86 393.5 6.5 c 128,-1,6
 377 -73 377 -73 349.5 -128 c 128,-1,7
 322 -183 322 -183 286 -219.5 c 128,-1,8
 250 -256 250 -256 211 -288 c 0,9,10
 184 -309 184 -309 151 -326 c 128,-1,11
 118 -343 118 -343 85.5 -355 c 128,-1,12
 53 -367 53 -367 23.5 -373.5 c 128,-1,13
 -6 -380 -6 -380 -25 -380 c 0,14,15
 -55 -380 -55 -380 -85 -370.5 c 128,-1,16
 -115 -361 -115 -361 -138 -348.5 c 128,-1,17
 -161 -336 -161 -336 -175.5 -322.5 c 128,-1,18
 -190 -309 -190 -309 -190 -300 c 0,19,20
 -190 -292 -190 -292 -177 -277 c 128,-1,21
 -164 -262 -164 -262 -146 -247 c 128,-1,22
 -128 -232 -128 -232 -108 -218.5 c 128,-1,23
 -88 -205 -88 -205 -74 -200 c 1,24,25
 -46 -218 -46 -218 -25 -229.5 c 128,-1,26
 -4 -241 -4 -241 14 -247 c 128,-1,27
 32 -253 32 -253 48.5 -255 c 128,-1,28
 65 -257 65 -257 84 -257 c 0,29,30
 110 -257 110 -257 139.5 -240 c 128,-1,31
 169 -223 169 -223 193.5 -179.5 c 128,-1,32
 218 -136 218 -136 234 -60 c 128,-1,33
 250 16 250 16 250 133 c 2,34,-1
 250 1155 l 2,35,36
 250 1161 250 1161 242 1168 c 128,-1,37
 234 1175 234 1175 212.5 1183 c 128,-1,38
 191 1191 191 1191 153 1199.5 c 128,-1,39
 115 1208 115 1208 55 1217 c 1,40,-1
 55 1260 l 1,41,-1
 555 1260 l 1,42,-1
 555 1217 l 1,43,-1
 555 1217 l 1,0,1
EndSplineSet
EndChar

StartChar: K
Encoding: 75 75 43
Width: 1184
Flags: W
LayerCount: 2
Fore
SplineSet
1174 37 m 1,0,1
 1115 18 1115 18 1055.5 2 c 128,-1,2
 996 -14 996 -14 948 -14 c 0,3,4
 919 -14 919 -14 896.5 -5 c 128,-1,5
 874 4 874 4 854 29 c 2,6,-1
 357 643 l 1,7,-1
 764 1128 l 2,8,9
 787 1155 787 1155 793 1171 c 128,-1,10
 799 1187 799 1187 789 1196 c 128,-1,11
 779 1205 779 1205 754 1209.5 c 128,-1,12
 729 1214 729 1214 690 1217 c 1,13,-1
 690 1260 l 1,14,-1
 1110 1260 l 1,15,-1
 1110 1217 l 1,16,17
 1078 1213 1078 1213 1053 1209 c 128,-1,18
 1028 1205 1028 1205 1008 1198.5 c 128,-1,19
 988 1192 988 1192 971.5 1182 c 128,-1,20
 955 1172 955 1172 940 1155 c 2,21,-1
 506 671 l 1,22,-1
 985 127 l 2,23,24
 1003 107 1003 107 1023.5 96 c 128,-1,25
 1044 85 1044 85 1067.5 80.5 c 128,-1,26
 1091 76 1091 76 1116 76.5 c 128,-1,27
 1141 77 1141 77 1167 80 c 1,28,-1
 1174 37 l 1,29,-1
 1174 37 l 1,0,1
50 0 m 1,30,-1
 50 43 l 1,31,32
 118 57 118 57 156.5 73.5 c 128,-1,33
 195 90 195 90 195 104 c 2,34,-1
 195 1155 l 2,35,36
 195 1167 195 1167 158.5 1185 c 128,-1,37
 122 1203 122 1203 50 1217 c 1,38,-1
 50 1260 l 1,39,-1
 500 1260 l 1,40,-1
 500 1217 l 1,41,42
 432 1203 432 1203 393.5 1186 c 128,-1,43
 355 1169 355 1169 355 1155 c 2,44,-1
 355 104 l 2,45,46
 355 92 355 92 391 74.5 c 128,-1,47
 427 57 427 57 500 43 c 1,48,-1
 500 0 l 1,49,-1
 50 0 l 1,30,-1
EndSplineSet
EndChar

StartChar: L
Encoding: 76 76 44
Width: 975
Flags: W
LayerCount: 2
Fore
SplineSet
944 244 m 1,0,1
 936 157 936 157 923.5 93 c 128,-1,2
 911 29 911 29 903 0 c 1,3,-1
 50 0 l 1,4,-1
 50 43 l 1,5,6
 118 57 118 57 156.5 73.5 c 128,-1,7
 195 90 195 90 195 104 c 2,8,-1
 195 1155 l 2,9,10
 195 1167 195 1167 158.5 1185 c 128,-1,11
 122 1203 122 1203 50 1217 c 1,12,-1
 50 1260 l 1,13,-1
 500 1260 l 1,14,-1
 500 1217 l 1,15,16
 432 1203 432 1203 393.5 1186 c 128,-1,17
 355 1169 355 1169 355 1155 c 2,18,-1
 355 164 l 2,19,20
 355 146 355 146 363.5 132.5 c 128,-1,21
 372 119 372 119 393 109.5 c 128,-1,22
 414 100 414 100 450 95 c 128,-1,23
 486 90 486 90 541 90 c 2,24,-1
 684 90 l 2,25,26
 730 90 730 90 761.5 95 c 128,-1,27
 793 100 793 100 817 117.5 c 128,-1,28
 841 135 841 135 860.5 169 c 128,-1,29
 880 203 880 203 901 262 c 1,30,-1
 944 244 l 1,31,-1
 944 244 l 1,0,1
EndSplineSet
EndChar

StartChar: M
Encoding: 77 77 45
Width: 1651
Flags: W
LayerCount: 2
Fore
SplineSet
1550 1217 m 1,0,1
 1521 1217 1521 1217 1486 1208 c 128,-1,2
 1451 1199 1451 1199 1415 1182 c 1,3,-1
 1425 104 l 2,4,5
 1425 92 1425 92 1461.5 74.5 c 128,-1,6
 1498 57 1498 57 1570 43 c 1,7,-1
 1570 0 l 1,8,-1
 1117 0 l 1,9,-1
 1117 43 l 1,10,11
 1185 57 1185 57 1228.5 73.5 c 128,-1,12
 1272 90 1272 90 1272 104 c 2,13,-1
 1263 1047 l 1,14,15
 1262 1044 1262 1044 1260 1040 c 2,16,-1
 823 0 l 1,17,-1
 774 0 l 1,18,-1
 326 1039 l 1,19,-1
 317 104 l 2,20,21
 317 92 317 92 353.5 74.5 c 128,-1,22
 390 57 390 57 462 43 c 1,23,-1
 462 0 l 1,24,-1
 60 0 l 1,25,-1
 60 43 l 1,26,27
 129 57 129 57 167 73.5 c 128,-1,28
 205 90 205 90 205 104 c 2,29,-1
 215 1177 l 1,30,31
 177 1200 177 1200 138.5 1208.5 c 128,-1,32
 100 1217 100 1217 70 1217 c 1,33,-1
 70 1260 l 1,34,-1
 356 1260 l 2,35,36
 366 1260 366 1260 372.5 1257 c 128,-1,37
 379 1254 379 1254 385.5 1245 c 128,-1,38
 392 1236 392 1236 400 1219.5 c 128,-1,39
 408 1203 408 1203 420 1176 c 2,40,-1
 818 274 l 1,41,-1
 1200 1176 l 2,42,43
 1213 1206 1213 1206 1221 1222.5 c 128,-1,44
 1229 1239 1229 1239 1235.5 1247.5 c 128,-1,45
 1242 1256 1242 1256 1248.5 1258 c 128,-1,46
 1255 1260 1255 1260 1264 1260 c 2,47,-1
 1550 1260 l 1,48,-1
 1550 1217 l 1,49,-1
 1550 1217 l 1,0,1
EndSplineSet
EndChar

StartChar: N
Encoding: 78 78 46
Width: 1329
Flags: W
LayerCount: 2
Fore
SplineSet
50 0 m 1,0,-1
 50 43 l 1,1,2
 124 52 124 52 159.5 71 c 128,-1,3
 195 90 195 90 195 104 c 2,4,-1
 195 1149 l 1,5,6
 161 1180 161 1180 125 1195 c 128,-1,7
 89 1210 89 1210 50 1217 c 1,8,-1
 50 1260 l 1,9,-1
 262 1260 l 2,10,11
 277 1260 277 1260 286.5 1257.5 c 128,-1,12
 296 1255 296 1255 305.5 1247 c 128,-1,13
 315 1239 315 1239 327 1223.5 c 128,-1,14
 339 1208 339 1208 358 1182 c 2,15,-1
 1015 276 l 1,16,-1
 1015 1155 l 2,17,18
 1015 1167 1015 1167 982.5 1186.5 c 128,-1,19
 950 1206 950 1206 870 1217 c 1,20,-1
 870 1260 l 1,21,-1
 1280 1260 l 1,22,-1
 1280 1217 l 1,23,24
 1208 1207 1208 1207 1171.5 1188 c 128,-1,25
 1135 1169 1135 1169 1135 1155 c 2,26,-1
 1135 -30 l 1,27,28
 1085 -24 1085 -24 1056.5 -10 c 128,-1,29
 1028 4 1028 4 1016 21 c 2,30,-1
 315 993 l 1,31,-1
 315 104 l 2,32,33
 315 92 315 92 348.5 73 c 128,-1,34
 382 54 382 54 460 43 c 1,35,-1
 460 0 l 1,36,-1
 50 0 l 1,0,-1
EndSplineSet
EndChar

StartChar: O
Encoding: 79 79 47
Width: 1229
Flags: W
LayerCount: 2
Fore
SplineSet
983 629 m 0,0,1
 983 698 983 698 970.5 765.5 c 128,-1,2
 958 833 958 833 935 893.5 c 128,-1,3
 912 954 912 954 878.5 1006 c 128,-1,4
 845 1058 845 1058 803 1095.5 c 128,-1,5
 761 1133 761 1133 711 1154.5 c 128,-1,6
 661 1176 661 1176 604 1176 c 0,7,8
 515 1176 515 1176 444.5 1138 c 128,-1,9
 374 1100 374 1100 325.5 1030.5 c 128,-1,10
 277 961 277 961 251 862 c 128,-1,11
 225 763 225 763 225 641 c 0,12,13
 225 529 225 529 255.5 429 c 128,-1,14
 286 329 286 329 337.5 253.5 c 128,-1,15
 389 178 389 178 458 134 c 128,-1,16
 527 90 527 90 604 90 c 0,17,18
 687 90 687 90 756.5 124.5 c 128,-1,19
 826 159 826 159 876.5 227 c 128,-1,20
 927 295 927 295 955 396 c 128,-1,21
 983 497 983 497 983 629 c 0,0,1
1138 647 m 0,22,23
 1138 511 1138 511 1093 388.5 c 128,-1,24
 1048 266 1048 266 970.5 173 c 128,-1,25
 893 80 893 80 791 25 c 128,-1,26
 689 -30 689 -30 575 -30 c 0,27,28
 455 -30 455 -30 361 23 c 128,-1,29
 267 76 267 76 202.5 165 c 128,-1,30
 138 254 138 254 104 370 c 128,-1,31
 70 486 70 486 70 612 c 0,32,33
 70 748 70 748 114 871 c 128,-1,34
 158 994 158 994 234 1087 c 128,-1,35
 310 1180 310 1180 412.5 1235 c 128,-1,36
 515 1290 515 1290 633 1290 c 0,37,38
 757 1290 757 1290 851 1235.5 c 128,-1,39
 945 1181 945 1181 1009 1091 c 128,-1,40
 1073 1001 1073 1001 1105.5 885 c 128,-1,41
 1138 769 1138 769 1138 647 c 0,22,23
EndSplineSet
EndChar

StartChar: P
Encoding: 80 80 48
Width: 1071
Flags: W
LayerCount: 2
Fore
SplineSet
50 0 m 1,0,-1
 50 43 l 1,1,2
 118 57 118 57 156.5 73.5 c 128,-1,3
 195 90 195 90 195 104 c 2,4,-1
 195 1190 l 1,5,6
 158 1185 158 1185 121.5 1179.5 c 128,-1,7
 85 1174 85 1174 50 1168 c 1,8,-1
 41 1230 l 1,9,10
 89 1243 89 1243 145.5 1254 c 128,-1,11
 202 1265 202 1265 263 1273 c 128,-1,12
 324 1281 324 1281 386.5 1285.5 c 128,-1,13
 449 1290 449 1290 510 1290 c 0,14,15
 618 1290 618 1290 705 1267 c 128,-1,16
 792 1244 792 1244 853.5 1199 c 128,-1,17
 915 1154 915 1154 948.5 1088 c 128,-1,18
 982 1022 982 1022 982 936 c 0,19,20
 982 867 982 867 962.5 810 c 128,-1,21
 943 753 943 753 910.5 708.5 c 128,-1,22
 878 664 878 664 836 631.5 c 128,-1,23
 794 599 794 599 748.5 577.5 c 128,-1,24
 703 556 703 556 657.5 545.5 c 128,-1,25
 612 535 612 535 573 535 c 0,26,27
 479 535 479 535 412 565 c 1,28,-1
 389 641 l 1,29,30
 431 622 431 622 469.5 616.5 c 128,-1,31
 508 611 508 611 543 611 c 0,32,33
 589 611 589 611 639 629 c 128,-1,34
 689 647 689 647 731 682.5 c 128,-1,35
 773 718 773 718 800 771 c 128,-1,36
 827 824 827 824 827 895 c 0,37,38
 827 977 827 977 797.5 1036 c 128,-1,39
 768 1095 768 1095 717 1132.5 c 128,-1,40
 666 1170 666 1170 598 1188 c 128,-1,41
 530 1206 530 1206 453 1206 c 0,42,43
 428 1206 428 1206 403.5 1205.5 c 128,-1,44
 379 1205 379 1205 355 1204 c 1,45,-1
 355 104 l 2,46,47
 355 98 355 98 363 91 c 128,-1,48
 371 84 371 84 390.5 76 c 128,-1,49
 410 68 410 68 444 60 c 128,-1,50
 478 52 478 52 530 43 c 1,51,-1
 530 0 l 1,52,-1
 50 0 l 1,0,-1
EndSplineSet
EndChar

StartChar: Q
Encoding: 81 81 49
Width: 1229
Flags: W
LayerCount: 2
Fore
SplineSet
983 629 m 0,0,1
 983 698 983 698 970.5 765.5 c 128,-1,2
 958 833 958 833 935 893.5 c 128,-1,3
 912 954 912 954 878.5 1006 c 128,-1,4
 845 1058 845 1058 803 1095.5 c 128,-1,5
 761 1133 761 1133 711 1154.5 c 128,-1,6
 661 1176 661 1176 604 1176 c 0,7,8
 515 1176 515 1176 444.5 1138 c 128,-1,9
 374 1100 374 1100 325.5 1030.5 c 128,-1,10
 277 961 277 961 251 862 c 128,-1,11
 225 763 225 763 225 641 c 0,12,13
 225 529 225 529 255.5 429 c 128,-1,14
 286 329 286 329 337.5 253.5 c 128,-1,15
 389 178 389 178 458 134 c 128,-1,16
 527 90 527 90 604 90 c 0,17,18
 687 90 687 90 756.5 124.5 c 128,-1,19
 826 159 826 159 876.5 227 c 128,-1,20
 927 295 927 295 955 396 c 128,-1,21
 983 497 983 497 983 629 c 0,0,1
1282 -117 m 1,22,23
 1258 -161 1258 -161 1233 -195.5 c 128,-1,24
 1208 -230 1208 -230 1184 -254.5 c 128,-1,25
 1160 -279 1160 -279 1138.5 -292 c 128,-1,26
 1117 -305 1117 -305 1102 -305 c 0,27,28
 1040 -305 1040 -305 979.5 -274.5 c 128,-1,29
 919 -244 919 -244 859 -200.5 c 128,-1,30
 799 -157 799 -157 739.5 -109.5 c 128,-1,31
 680 -62 680 -62 620 -27 c 1,32,33
 597 -30 597 -30 575 -30 c 0,34,35
 465 -30 465 -30 372 21 c 128,-1,36
 279 72 279 72 212 159 c 128,-1,37
 145 246 145 246 107.5 363 c 128,-1,38
 70 480 70 480 70 612 c 0,39,40
 70 748 70 748 114 871 c 128,-1,41
 158 994 158 994 234 1087 c 128,-1,42
 310 1180 310 1180 412.5 1235 c 128,-1,43
 515 1290 515 1290 633 1290 c 0,44,45
 757 1290 757 1290 851 1235.5 c 128,-1,46
 945 1181 945 1181 1009 1091 c 128,-1,47
 1073 1001 1073 1001 1105.5 885 c 128,-1,48
 1138 769 1138 769 1138 647 c 0,49,50
 1138 541 1138 541 1110 442 c 128,-1,51
 1082 343 1082 343 1032 259.5 c 128,-1,52
 982 176 982 176 913.5 112 c 128,-1,53
 845 48 845 48 765 12 c 1,54,55
 811 -12 811 -12 856.5 -42 c 128,-1,56
 902 -72 902 -72 945.5 -98 c 128,-1,57
 989 -124 989 -124 1030 -142 c 128,-1,58
 1071 -160 1071 -160 1108 -160 c 0,59,60
 1120 -160 1120 -160 1133.5 -156 c 128,-1,61
 1147 -152 1147 -152 1164 -143 c 128,-1,62
 1181 -134 1181 -134 1203 -119 c 128,-1,63
 1225 -104 1225 -104 1255 -82 c 1,64,-1
 1282 -117 l 1,65,-1
 1282 -117 l 1,22,23
EndSplineSet
EndChar

StartChar: R
Encoding: 82 82 50
Width: 1149
Flags: W
LayerCount: 2
Fore
SplineSet
432 1206 m 0,0,1
 394 1206 394 1206 355 1203 c 1,2,-1
 355 691 l 1,3,4
 382 686 382 686 402 685 c 128,-1,5
 422 684 422 684 444 684 c 0,6,7
 610 684 610 684 701 753.5 c 128,-1,8
 792 823 792 823 792 956 c 0,9,10
 792 1011 792 1011 770.5 1057 c 128,-1,11
 749 1103 749 1103 705 1136 c 128,-1,12
 661 1169 661 1169 593 1187.5 c 128,-1,13
 525 1206 525 1206 432 1206 c 0,0,1
50 0 m 1,14,-1
 50 43 l 1,15,16
 118 57 118 57 156.5 73.5 c 128,-1,17
 195 90 195 90 195 104 c 2,18,-1
 195 1189 l 1,19,20
 160 1184 160 1184 123.5 1178.5 c 128,-1,21
 87 1173 87 1173 50 1168 c 1,22,-1
 41 1230 l 1,23,24
 88 1242 88 1242 136 1252.5 c 128,-1,25
 184 1263 184 1263 236 1271.5 c 128,-1,26
 288 1280 288 1280 345.5 1285 c 128,-1,27
 403 1290 403 1290 469 1290 c 0,28,29
 589 1290 589 1290 678.5 1267 c 128,-1,30
 768 1244 768 1244 827.5 1203 c 128,-1,31
 887 1162 887 1162 916.5 1106.5 c 128,-1,32
 946 1051 946 1051 946 987 c 0,33,34
 946 910 946 910 921.5 848.5 c 128,-1,35
 897 787 897 787 853 740 c 128,-1,36
 809 693 809 693 749 661.5 c 128,-1,37
 689 630 689 630 617 614 c 1,38,-1
 948 139 l 2,39,40
 963 118 963 118 980.5 105 c 128,-1,41
 998 92 998 92 1019.5 85.5 c 128,-1,42
 1041 79 1041 79 1067.5 78 c 128,-1,43
 1094 77 1094 77 1128 80 c 1,44,-1
 1139 37 l 1,45,46
 1073 15 1073 15 1013.5 0.5 c 128,-1,47
 954 -14 954 -14 915 -14 c 0,48,49
 886 -14 886 -14 858.5 2.5 c 128,-1,50
 831 19 831 19 817 41 c 2,51,-1
 477 598 l 1,52,-1
 461 598 l 2,53,54
 435 598 435 598 409 600.5 c 128,-1,55
 383 603 383 603 355 609 c 1,56,-1
 355 104 l 2,57,58
 355 92 355 92 391 74.5 c 128,-1,59
 427 57 427 57 500 43 c 1,60,-1
 500 0 l 1,61,-1
 50 0 l 1,14,-1
EndSplineSet
EndChar

StartChar: S
Encoding: 83 83 51
Width: 975
Flags: W
LayerCount: 2
Fore
SplineSet
885 377 m 0,0,1
 885 332 885 332 873 285 c 128,-1,2
 861 238 861 238 836.5 192.5 c 128,-1,3
 812 147 812 147 775.5 106.5 c 128,-1,4
 739 66 739 66 689.5 36 c 128,-1,5
 640 6 640 6 577.5 -12 c 128,-1,6
 515 -30 515 -30 440 -30 c 0,7,8
 407 -30 407 -30 368 -23 c 128,-1,9
 329 -16 329 -16 288 -3.5 c 128,-1,10
 247 9 247 9 206.5 27 c 128,-1,11
 166 45 166 45 131 68 c 0,12,13
 124 72 124 72 120.5 102 c 128,-1,14
 117 132 117 132 117 172 c 0,15,16
 117 213 117 213 120 255 c 128,-1,17
 123 297 123 297 131 324 c 1,18,-1
 172 319 l 1,19,20
 195 260 195 260 229.5 217 c 128,-1,21
 264 174 264 174 306 145.5 c 128,-1,22
 348 117 348 117 396.5 103.5 c 128,-1,23
 445 90 445 90 496 90 c 0,24,25
 541 90 541 90 586.5 108.5 c 128,-1,26
 632 127 632 127 669 159 c 128,-1,27
 706 191 706 191 729 233.5 c 128,-1,28
 752 276 752 276 752 324 c 0,29,30
 752 385 752 385 725 429 c 128,-1,31
 698 473 698 473 654 507 c 128,-1,32
 610 541 610 541 554 568 c 128,-1,33
 498 595 498 595 439.5 622 c 128,-1,34
 381 649 381 649 325 679 c 128,-1,35
 269 709 269 709 225 749 c 128,-1,36
 181 789 181 789 154 841.5 c 128,-1,37
 127 894 127 894 127 967 c 0,38,39
 127 998 127 998 136 1034 c 128,-1,40
 145 1070 145 1070 165 1106 c 128,-1,41
 185 1142 185 1142 216.5 1175.5 c 128,-1,42
 248 1209 248 1209 292.5 1234.5 c 128,-1,43
 337 1260 337 1260 395 1275 c 128,-1,44
 453 1290 453 1290 526 1290 c 0,45,46
 571 1290 571 1290 616.5 1283 c 128,-1,47
 662 1276 662 1276 701.5 1264 c 128,-1,48
 741 1252 741 1252 773 1235 c 128,-1,49
 805 1218 805 1218 823 1198 c 1,50,51
 830 1192 830 1192 823.5 1174.5 c 128,-1,52
 817 1157 817 1157 803.5 1136.5 c 128,-1,53
 790 1116 790 1116 773.5 1096 c 128,-1,54
 757 1076 757 1076 745 1065 c 1,55,-1
 709 1071 l 1,56,57
 681 1104 681 1104 650.5 1126 c 128,-1,58
 620 1148 620 1148 588.5 1161.5 c 128,-1,59
 557 1175 557 1175 526 1180.5 c 128,-1,60
 495 1186 495 1186 467 1186 c 0,61,62
 411 1186 411 1186 371 1170 c 128,-1,63
 331 1154 331 1154 305 1128.5 c 128,-1,64
 279 1103 279 1103 266.5 1072.5 c 128,-1,65
 254 1042 254 1042 254 1014 c 0,66,67
 254 967 254 967 281 930.5 c 128,-1,68
 308 894 308 894 352.5 863.5 c 128,-1,69
 397 833 397 833 453.5 806 c 128,-1,70
 510 779 510 779 569.5 749.5 c 128,-1,71
 629 720 629 720 685.5 686 c 128,-1,72
 742 652 742 652 786.5 608 c 128,-1,73
 831 564 831 564 858 507.5 c 128,-1,74
 885 451 885 451 885 377 c 0,0,1
EndSplineSet
EndChar

StartChar: T
Encoding: 84 84 52
Width: 1128
Flags: W
LayerCount: 2
Fore
SplineSet
307 0 m 1,0,-1
 307 43 l 1,1,2
 353 52 353 52 384.5 62 c 128,-1,3
 416 72 416 72 435 81.5 c 128,-1,4
 454 91 454 91 462.5 99.5 c 128,-1,5
 471 108 471 108 471 115 c 2,6,-1
 471 1170 l 1,7,-1
 172 1170 l 2,8,9
 157 1170 157 1170 144.5 1164.5 c 128,-1,10
 132 1159 132 1159 119.5 1141 c 128,-1,11
 107 1123 107 1123 91 1088 c 128,-1,12
 75 1053 75 1053 53 995 c 1,13,-1
 10 1014 l 1,14,15
 15 1073 15 1073 23.5 1140 c 128,-1,16
 32 1207 32 1207 43 1260 c 1,17,-1
 1053 1260 l 1,18,-1
 1083 1235 l 1,19,20
 1081 1184 1081 1184 1073 1123.5 c 128,-1,21
 1065 1063 1065 1063 1053 1000 c 1,22,-1
 1008 1000 l 1,23,24
 999 1042 999 1042 991.5 1074 c 128,-1,25
 984 1106 984 1106 974.5 1127.5 c 128,-1,26
 965 1149 965 1149 951 1159.5 c 128,-1,27
 937 1170 937 1170 915 1170 c 2,28,-1
 631 1170 l 1,29,-1
 631 115 l 2,30,31
 631 102 631 102 667 82 c 128,-1,32
 703 62 703 62 795 43 c 1,33,-1
 795 0 l 1,34,-1
 307 0 l 1,0,-1
EndSplineSet
EndChar

StartChar: U
Encoding: 85 85 53
Width: 1339
Flags: W
LayerCount: 2
Fore
SplineSet
1275 1217 m 1,0,1
 1207 1203 1207 1203 1168.5 1186 c 128,-1,2
 1130 1169 1130 1169 1130 1155 c 2,3,-1
 1130 524 l 2,4,5
 1130 393 1130 393 1098 290 c 128,-1,6
 1066 187 1066 187 1006 116 c 128,-1,7
 946 45 946 45 860 7.5 c 128,-1,8
 774 -30 774 -30 666 -30 c 0,9,10
 563 -30 563 -30 476.5 -1.5 c 128,-1,11
 390 27 390 27 327.5 85.5 c 128,-1,12
 265 144 265 144 230 233 c 128,-1,13
 195 322 195 322 195 444 c 2,14,-1
 195 1155 l 2,15,16
 195 1167 195 1167 158.5 1185 c 128,-1,17
 122 1203 122 1203 50 1217 c 1,18,-1
 50 1260 l 1,19,-1
 500 1260 l 1,20,-1
 500 1217 l 1,21,22
 432 1203 432 1203 393.5 1186 c 128,-1,23
 355 1169 355 1169 355 1155 c 2,24,-1
 355 494 l 2,25,26
 355 398 355 398 377.5 322 c 128,-1,27
 400 246 400 246 444.5 193 c 128,-1,28
 489 140 489 140 554 112 c 128,-1,29
 619 84 619 84 705 84 c 0,30,31
 776 84 776 84 831 118.5 c 128,-1,32
 886 153 886 153 923.5 209 c 128,-1,33
 961 265 961 265 980.5 337 c 128,-1,34
 1000 409 1000 409 1000 483 c 2,35,-1
 1000 1155 l 2,36,37
 1000 1167 1000 1167 963.5 1185 c 128,-1,38
 927 1203 927 1203 855 1217 c 1,39,-1
 855 1260 l 1,40,-1
 1275 1260 l 1,41,-1
 1275 1217 l 1,42,-1
 1275 1217 l 1,0,1
EndSplineSet
EndChar

StartChar: V
Encoding: 86 86 54
Width: 1331
Flags: W
LayerCount: 2
Fore
SplineSet
1290 1217 m 1,0,1
 1222 1204 1222 1204 1183 1191.5 c 128,-1,2
 1144 1179 1144 1179 1135 1151 c 2,3,-1
 752 59 l 2,4,5
 744 37 744 37 724.5 21.5 c 128,-1,6
 705 6 705 6 682 -4.5 c 128,-1,7
 659 -15 659 -15 637 -21 c 128,-1,8
 615 -27 615 -27 602 -30 c 1,9,-1
 162 1151 l 1,10,11
 145 1201 145 1201 20 1217 c 1,12,-1
 20 1260 l 1,13,-1
 455 1260 l 1,14,-1
 455 1217 l 1,15,16
 377 1212 377 1212 346 1197 c 128,-1,17
 315 1182 315 1182 328 1151 c 1,18,-1
 680 203 l 1,19,-1
 1016 1151 l 2,20,21
 1027 1180 1027 1180 991.5 1193.5 c 128,-1,22
 956 1207 956 1207 874 1217 c 1,23,-1
 874 1260 l 1,24,-1
 1290 1260 l 1,25,-1
 1290 1217 l 1,26,-1
 1290 1217 l 1,0,1
EndSplineSet
EndChar

StartChar: W
Encoding: 87 87 55
Width: 1741
Flags: W
LayerCount: 2
Fore
SplineSet
1702 1217 m 1,0,1
 1671 1210 1671 1210 1645 1204 c 128,-1,2
 1619 1198 1619 1198 1599 1191 c 128,-1,3
 1579 1184 1579 1184 1566 1175.5 c 128,-1,4
 1553 1167 1553 1167 1550 1155 c 2,5,-1
 1321 59 l 2,6,7
 1316 37 1316 37 1298.5 21.5 c 128,-1,8
 1281 6 1281 6 1259.5 -4.5 c 128,-1,9
 1238 -15 1238 -15 1216.5 -21 c 128,-1,10
 1195 -27 1195 -27 1182 -30 c 1,11,-1
 856 944 l 1,12,-1
 569 59 l 2,13,14
 562 36 562 36 542.5 20.5 c 128,-1,15
 523 5 523 5 500 -5.5 c 128,-1,16
 477 -16 477 -16 454 -21.5 c 128,-1,17
 431 -27 431 -27 418 -30 c 1,18,-1
 158 1147 l 2,19,20
 152 1172 152 1172 121.5 1188 c 128,-1,21
 91 1204 91 1204 20 1217 c 1,22,-1
 20 1260 l 1,23,-1
 449 1260 l 1,24,-1
 449 1217 l 1,25,26
 400 1212 400 1212 372 1204.5 c 128,-1,27
 344 1197 344 1197 330 1188 c 128,-1,28
 316 1179 316 1179 313.5 1168.5 c 128,-1,29
 311 1158 311 1158 313 1147 c 2,30,-1
 512 250 l 1,31,-1
 836 1260 l 1,32,-1
 891 1260 l 1,33,-1
 1245 250 l 1,34,-1
 1432 1155 l 2,35,36
 1434 1167 1434 1167 1423 1176 c 128,-1,37
 1412 1185 1412 1185 1391 1192 c 128,-1,38
 1370 1199 1370 1199 1341 1205 c 128,-1,39
 1312 1211 1312 1211 1278 1217 c 1,40,-1
 1278 1260 l 1,41,-1
 1702 1260 l 1,42,-1
 1702 1217 l 1,43,-1
 1702 1217 l 1,0,1
EndSplineSet
EndChar

StartChar: X
Encoding: 88 88 56
Width: 1260
Flags: W
LayerCount: 2
Fore
SplineSet
778 0 m 1,0,-1
 778 43 l 1,1,2
 822 47 822 47 849 53.5 c 128,-1,3
 876 60 876 60 888 69.5 c 128,-1,4
 900 79 900 79 898.5 93 c 128,-1,5
 897 107 897 107 883 127 c 2,6,-1
 604 535 l 1,7,-1
 352 127 l 2,8,9
 324 83 324 83 356.5 66 c 128,-1,10
 389 49 389 49 481 43 c 1,11,-1
 481 0 l 1,12,-1
 31 0 l 1,13,-1
 31 43 l 1,14,15
 96 48 96 48 142 66.5 c 128,-1,16
 188 85 188 85 213 127 c 2,17,-1
 530 644 l 1,18,-1
 197 1133 l 2,19,20
 182 1155 182 1155 168 1169 c 128,-1,21
 154 1183 154 1183 136.5 1192 c 128,-1,22
 119 1201 119 1201 96.5 1206.5 c 128,-1,23
 74 1212 74 1212 41 1217 c 1,24,-1
 41 1260 l 1,25,-1
 492 1260 l 1,26,-1
 492 1217 l 1,27,28
 407 1209 407 1209 381.5 1193 c 128,-1,29
 356 1177 356 1177 385 1133 c 2,30,-1
 632 770 l 1,31,-1
 858 1133 l 2,32,33
 872 1156 872 1156 870 1170.5 c 128,-1,34
 868 1185 868 1185 851 1194.5 c 128,-1,35
 834 1204 834 1204 803 1209 c 128,-1,36
 772 1214 772 1214 727 1217 c 1,37,-1
 727 1260 l 1,38,-1
 1180 1260 l 1,39,-1
 1180 1217 l 1,40,41
 1144 1213 1144 1213 1115.5 1207.5 c 128,-1,42
 1087 1202 1087 1202 1065 1192.5 c 128,-1,43
 1043 1183 1043 1183 1026.5 1168.5 c 128,-1,44
 1010 1154 1010 1154 997 1133 c 2,45,-1
 706 662 l 1,46,-1
 1071 127 l 2,47,48
 1086 106 1086 106 1101.5 91.5 c 128,-1,49
 1117 77 1117 77 1135.5 67.5 c 128,-1,50
 1154 58 1154 58 1177 52.5 c 128,-1,51
 1200 47 1200 47 1229 43 c 1,52,-1
 1229 0 l 1,53,-1
 778 0 l 1,0,-1
EndSplineSet
EndChar

StartChar: Y
Encoding: 89 89 57
Width: 1217
Flags: W
LayerCount: 2
Fore
SplineSet
360 0 m 1,0,-1
 360 43 l 1,1,2
 451 62 451 62 487.5 81.5 c 128,-1,3
 524 101 524 101 524 115 c 2,4,-1
 524 537 l 1,5,6
 487 618 487 618 440 706 c 128,-1,7
 393 794 393 794 344 877 c 128,-1,8
 295 960 295 960 249 1031.5 c 128,-1,9
 203 1103 203 1103 168 1151 c 0,10,11
 159 1162 159 1162 147.5 1172 c 128,-1,12
 136 1182 136 1182 118 1189.5 c 128,-1,13
 100 1197 100 1197 73 1201.5 c 128,-1,14
 46 1206 46 1206 4 1206 c 1,15,-1
 0 1249 l 1,16,17
 59 1257 59 1257 118 1263.5 c 128,-1,18
 177 1270 177 1270 219 1270 c 0,19,20
 265 1270 265 1270 297 1231 c 1,21,22
 334 1183 334 1183 377 1117.5 c 128,-1,23
 420 1052 420 1052 463 979 c 128,-1,24
 506 906 506 906 547 829 c 128,-1,25
 588 752 588 752 623 680 c 1,26,-1
 891 1151 l 2,27,28
 906 1177 906 1177 881.5 1192 c 128,-1,29
 857 1207 857 1207 780 1217 c 1,30,-1
 780 1260 l 1,31,-1
 1176 1260 l 1,32,-1
 1176 1217 l 1,33,34
 1107 1204 1107 1204 1070.5 1190.5 c 128,-1,35
 1034 1177 1034 1177 1020 1151 c 2,36,-1
 684 541 l 1,37,-1
 684 115 l 2,38,39
 684 109 684 109 692.5 100.5 c 128,-1,40
 701 92 701 92 720.5 82 c 128,-1,41
 740 72 740 72 771.5 62 c 128,-1,42
 803 52 803 52 850 43 c 1,43,-1
 850 0 l 1,44,-1
 360 0 l 1,0,-1
EndSplineSet
EndChar

StartChar: Z
Encoding: 90 90 58
Width: 1071
Flags: W
LayerCount: 2
Fore
SplineSet
991 293 m 1,0,1
 989 261 989 261 987.5 222 c 128,-1,2
 986 183 986 183 984.5 143.5 c 128,-1,3
 983 104 983 104 981.5 66.5 c 128,-1,4
 980 29 980 29 979 0 c 1,5,-1
 88 0 l 1,6,-1
 59 45 l 1,7,-1
 770 1160 l 1,8,-1
 311 1160 l 2,9,10
 295 1160 295 1160 276 1149 c 128,-1,11
 257 1138 257 1138 239 1114 c 128,-1,12
 221 1090 221 1090 205 1052.5 c 128,-1,13
 189 1015 189 1015 178 963 c 1,14,-1
 121 975 l 1,15,-1
 150 1276 l 1,16,17
 177 1270 177 1270 199.5 1266.5 c 128,-1,18
 222 1263 222 1263 243.5 1261.5 c 128,-1,19
 265 1260 265 1260 288 1260 c 256,20,21
 311 1260 311 1260 340 1260 c 2,22,-1
 956 1260 l 1,23,-1
 981 1217 l 1,24,-1
 276 100 l 1,25,-1
 799 100 l 2,26,27
 820 100 820 100 837 109.5 c 128,-1,28
 854 119 854 119 869.5 142 c 128,-1,29
 885 165 885 165 901 205 c 128,-1,30
 917 245 917 245 936 307 c 1,31,-1
 991 293 l 1,32,-1
 991 293 l 1,0,1
EndSplineSet
EndChar

StartChar: bracketleft
Encoding: 91 91 59
Width: 631
Flags: W
LayerCount: 2
Fore
SplineSet
590 -249 m 1,0,1
 585 -269 585 -269 577 -293.5 c 128,-1,2
 569 -318 569 -318 561 -335 c 1,3,-1
 139 -335 l 1,4,-1
 139 1600 l 1,5,-1
 555 1600 l 1,6,-1
 588 1574 l 1,7,8
 583 1549 583 1549 575 1524.5 c 128,-1,9
 567 1500 567 1500 561 1488 c 1,10,-1
 281 1488 l 1,11,-1
 281 -220 l 1,12,-1
 555 -220 l 1,13,-1
 590 -249 l 1,14,-1
 590 -249 l 1,0,1
EndSplineSet
EndChar

StartChar: backslash
Encoding: 92 92 60
Width: 961
Flags: W
LayerCount: 2
Fore
SplineSet
870 -335 m 1,0,1
 858 -331 858 -331 842 -325 c 128,-1,2
 826 -319 826 -319 810 -312.5 c 128,-1,3
 794 -306 794 -306 779.5 -298.5 c 128,-1,4
 765 -291 765 -291 756 -284 c 1,5,-1
 55 1578 l 1,6,-1
 92 1600 l 1,7,8
 150 1585 150 1585 205 1551 c 1,9,-1
 905 -310 l 1,10,-1
 870 -335 l 1,0,1
EndSplineSet
EndChar

StartChar: bracketright
Encoding: 93 93 61
Width: 631
Flags: W
LayerCount: 2
Fore
SplineSet
76 -335 m 1,0,-1
 43 -306 l 1,1,2
 46 -283 46 -283 53.5 -258 c 128,-1,3
 61 -233 61 -233 68 -220 c 1,4,-1
 350 -220 l 1,5,-1
 350 1488 l 1,6,-1
 76 1488 l 1,7,-1
 41 1514 l 1,8,9
 44 1536 44 1536 52.5 1559.5 c 128,-1,10
 61 1583 61 1583 68 1600 c 1,11,-1
 489 1600 l 1,12,-1
 489 -335 l 1,13,-1
 76 -335 l 1,0,-1
EndSplineSet
EndChar

StartChar: asciicircum
Encoding: 94 94 62
Width: 1008
Flags: W
LayerCount: 2
Fore
SplineSet
907 635 m 1,0,1
 882 612 882 612 858.5 596.5 c 128,-1,2
 835 581 835 581 801 565 c 1,3,-1
 764 592 l 1,4,-1
 481 1315 l 1,5,-1
 231 635 l 1,6,7
 220 625 220 625 206 614.5 c 128,-1,8
 192 604 192 604 177 594.5 c 128,-1,9
 162 585 162 585 147.5 577.5 c 128,-1,10
 133 570 133 570 123 565 c 1,11,-1
 100 592 l 1,12,-1
 422 1462 l 1,13,14
 434 1474 434 1474 451.5 1486.5 c 128,-1,15
 469 1499 469 1499 487 1511 c 128,-1,16
 505 1523 505 1523 523 1533 c 128,-1,17
 541 1543 541 1543 555 1550 c 1,18,-1
 907 635 l 1,19,-1
 907 635 l 1,0,1
EndSplineSet
EndChar

StartChar: underscore
Encoding: 95 95 63
Width: 961
Flags: W
LayerCount: 2
Fore
SplineSet
897 -156 m 1,0,1
 892 -177 892 -177 884 -202 c 128,-1,2
 876 -227 876 -227 868 -246 c 1,3,-1
 86 -246 l 1,4,-1
 61 -219 l 1,5,6
 66 -199 66 -199 74.5 -175 c 128,-1,7
 83 -151 83 -151 92 -131 c 1,8,-1
 874 -131 l 1,9,-1
 897 -156 l 1,10,-1
 897 -156 l 1,0,1
EndSplineSet
EndChar

StartChar: grave
Encoding: 96 96 64
Width: 653
Flags: W
LayerCount: 2
Fore
SplineSet
438 1078 m 1,0,1
 429 1070 429 1070 414 1061 c 128,-1,2
 399 1052 399 1052 382 1047 c 1,3,-1
 30 1424 l 1,4,-1
 52 1465 l 1,5,6
 62 1467 62 1467 81.5 1470.5 c 128,-1,7
 101 1474 101 1474 122.5 1478 c 128,-1,8
 144 1482 144 1482 165 1485 c 128,-1,9
 186 1488 186 1488 198 1489 c 1,10,-1
 438 1078 l 1,11,-1
 438 1078 l 1,0,1
EndSplineSet
EndChar

StartChar: a
Encoding: 97 97 65
Width: 940
Flags: W
LayerCount: 2
Fore
SplineSet
352 100 m 0,0,1
 412 100 412 100 479.5 130.5 c 128,-1,2
 547 161 547 161 623 227 c 1,3,-1
 623 488 l 1,4,-1
 504 465 l 1,5,6
 436 453 436 453 386.5 430 c 128,-1,7
 337 407 337 407 305 376 c 128,-1,8
 273 345 273 345 258 307.5 c 128,-1,9
 243 270 243 270 243 229 c 0,10,11
 243 189 243 189 255 164 c 128,-1,12
 267 139 267 139 284.5 124.5 c 128,-1,13
 302 110 302 110 320.5 105 c 128,-1,14
 339 100 339 100 352 100 c 0,0,1
926 82 m 1,15,16
 841 23 841 23 785.5 -3.5 c 128,-1,17
 730 -30 730 -30 702 -30 c 0,18,19
 669 -30 669 -30 647 16 c 128,-1,20
 625 62 625 62 623 143 c 1,21,22
 578 98 578 98 533 65 c 128,-1,23
 488 32 488 32 445 11 c 128,-1,24
 402 -10 402 -10 363.5 -20 c 128,-1,25
 325 -30 325 -30 293 -30 c 0,26,27
 257 -30 257 -30 219 -18 c 128,-1,28
 181 -6 181 -6 150.5 20 c 128,-1,29
 120 46 120 46 100 87 c 128,-1,30
 80 128 80 128 80 186 c 0,31,32
 80 245 80 245 101.5 298.5 c 128,-1,33
 123 352 123 352 165.5 396 c 128,-1,34
 208 440 208 440 271 472.5 c 128,-1,35
 334 505 334 505 418 522 c 2,36,-1
 623 563 l 1,37,-1
 623 702 l 2,38,39
 623 736 623 736 615 765.5 c 128,-1,40
 607 795 607 795 588 816.5 c 128,-1,41
 569 838 569 838 536.5 849.5 c 128,-1,42
 504 861 504 861 455 860 c 0,43,44
 423 859 423 859 392 849 c 128,-1,45
 361 839 361 839 338 821 c 128,-1,46
 315 803 315 803 302 778.5 c 128,-1,47
 289 754 289 754 292 724 c 0,48,49
 293 715 293 715 271.5 703.5 c 128,-1,50
 250 692 250 692 220.5 683 c 128,-1,51
 191 674 191 674 162.5 669 c 128,-1,52
 134 664 134 664 122 667 c 1,53,-1
 108 706 l 1,54,55
 131 756 131 756 178 802 c 128,-1,56
 225 848 225 848 285.5 883 c 128,-1,57
 346 918 346 918 413.5 939 c 128,-1,58
 481 960 481 960 544 960 c 0,59,60
 654 960 654 960 713.5 902.5 c 128,-1,61
 773 845 773 845 773 742 c 2,62,-1
 773 178 l 2,63,64
 773 136 773 136 784 118 c 128,-1,65
 795 100 795 100 813 100 c 0,66,67
 827 100 827 100 849 105 c 128,-1,68
 871 110 871 110 911 127 c 1,69,-1
 926 82 l 1,70,-1
 926 82 l 1,15,16
EndSplineSet
EndChar

StartChar: b
Encoding: 98 98 66
Width: 1040
Flags: W
LayerCount: 2
Fore
SplineSet
816 408 m 0,0,1
 816 508 816 508 795 585.5 c 128,-1,2
 774 663 774 663 739.5 716 c 128,-1,3
 705 769 705 769 660 797 c 128,-1,4
 615 825 615 825 567 825 c 0,5,6
 549 825 549 825 519.5 814.5 c 128,-1,7
 490 804 490 804 453 779.5 c 128,-1,8
 416 755 416 755 374 713.5 c 128,-1,9
 332 672 332 672 290 610 c 1,10,-1
 290 203 l 1,11,12
 330 173 330 173 371.5 153 c 128,-1,13
 413 133 413 133 450.5 121.5 c 128,-1,14
 488 110 488 110 518.5 105 c 128,-1,15
 549 100 549 100 567 100 c 0,16,17
 628 100 628 100 674.5 126.5 c 128,-1,18
 721 153 721 153 752.5 196.5 c 128,-1,19
 784 240 784 240 800 295 c 128,-1,20
 816 350 816 350 816 408 c 0,0,1
949 492 m 0,21,22
 949 434 949 434 934 373 c 128,-1,23
 919 312 919 312 890 254 c 128,-1,24
 861 196 861 196 819.5 144 c 128,-1,25
 778 92 778 92 724.5 53.5 c 128,-1,26
 671 15 671 15 607 -7.5 c 128,-1,27
 543 -30 543 -30 469 -30 c 0,28,29
 450 -30 450 -30 416.5 -21.5 c 128,-1,30
 383 -13 383 -13 339.5 3 c 128,-1,31
 296 19 296 19 245 42.5 c 128,-1,32
 194 66 194 66 140 96 c 1,33,-1
 140 1296 l 2,34,35
 140 1342 140 1342 135 1367 c 128,-1,36
 130 1392 130 1392 116 1404.5 c 128,-1,37
 102 1417 102 1417 76.5 1421 c 128,-1,38
 51 1425 51 1425 10 1430 c 1,39,-1
 10 1470 l 1,40,41
 76 1486 76 1486 136 1502.5 c 128,-1,42
 196 1519 196 1519 253 1550 c 1,43,44
 258 1545 258 1545 267 1536.5 c 128,-1,45
 276 1528 276 1528 282.5 1522.5 c 128,-1,46
 289 1517 289 1517 290 1516 c 1,47,-1
 290 727 l 1,48,49
 340 787 340 787 389.5 831 c 128,-1,50
 439 875 439 875 484.5 903.5 c 128,-1,51
 530 932 530 932 569 946 c 128,-1,52
 608 960 608 960 637 960 c 0,53,54
 705 960 705 960 762.5 928 c 128,-1,55
 820 896 820 896 861.5 835.5 c 128,-1,56
 903 775 903 775 926 688 c 128,-1,57
 949 601 949 601 949 492 c 0,21,22
EndSplineSet
EndChar

StartChar: c
Encoding: 99 99 67
Width: 895
Flags: W
LayerCount: 2
Fore
SplineSet
840 190 m 1,0,1
 775 113 775 113 725.5 69.5 c 128,-1,2
 676 26 676 26 634 3.5 c 128,-1,3
 592 -19 592 -19 552 -24.5 c 128,-1,4
 512 -30 512 -30 465 -30 c 0,5,6
 392 -30 392 -30 322.5 2.5 c 128,-1,7
 253 35 253 35 199 96 c 128,-1,8
 145 157 145 157 112.5 245 c 128,-1,9
 80 333 80 333 80 444 c 0,10,11
 80 552 80 552 119.5 646 c 128,-1,12
 159 740 159 740 227.5 809.5 c 128,-1,13
 296 879 296 879 389 919.5 c 128,-1,14
 482 960 482 960 590 960 c 0,15,16
 623 960 623 960 657.5 954.5 c 128,-1,17
 692 949 692 949 723.5 938.5 c 128,-1,18
 755 928 755 928 781.5 913.5 c 128,-1,19
 808 899 808 899 825 881 c 1,20,21
 827 869 827 869 822 847 c 128,-1,22
 817 825 817 825 808 800.5 c 128,-1,23
 799 776 799 776 788 753.5 c 128,-1,24
 777 731 777 731 768 717 c 1,25,-1
 731 727 l 1,26,27
 723 745 723 745 705 766 c 128,-1,28
 687 787 687 787 658.5 806 c 128,-1,29
 630 825 630 825 590.5 837.5 c 128,-1,30
 551 850 551 850 500 850 c 0,31,32
 447 850 447 850 398.5 826.5 c 128,-1,33
 350 803 350 803 312.5 756 c 128,-1,34
 275 709 275 709 252.5 639 c 128,-1,35
 230 569 230 569 230 475 c 0,36,37
 230 390 230 390 255.5 321 c 128,-1,38
 281 252 281 252 323.5 203.5 c 128,-1,39
 366 155 366 155 421.5 128.5 c 128,-1,40
 477 102 477 102 537 102 c 0,41,42
 565 102 565 102 589 104.5 c 128,-1,43
 613 107 613 107 641.5 119 c 128,-1,44
 670 131 670 131 707.5 157 c 128,-1,45
 745 183 745 183 801 231 c 1,46,-1
 840 190 l 1,47,-1
 840 190 l 1,0,1
EndSplineSet
EndChar

StartChar: d
Encoding: 100 100 68
Width: 1065
Flags: W
LayerCount: 2
Fore
SplineSet
745 272 m 1,0,-1
 745 730 l 1,1,2
 712 787 712 787 652 818.5 c 128,-1,3
 592 850 592 850 520 850 c 0,4,5
 456 850 456 850 403 826.5 c 128,-1,6
 350 803 350 803 311.5 756 c 128,-1,7
 273 709 273 709 251.5 639 c 128,-1,8
 230 569 230 569 230 475 c 0,9,10
 230 390 230 390 254.5 321 c 128,-1,11
 279 252 279 252 317 203.5 c 128,-1,12
 355 155 355 155 400.5 128.5 c 128,-1,13
 446 102 446 102 487 102 c 0,14,15
 521 102 521 102 554 115.5 c 128,-1,16
 587 129 587 129 619.5 151.5 c 128,-1,17
 652 174 652 174 683 202.5 c 128,-1,18
 714 231 714 231 745 261 c 1,19,-1
 745 272 l 1,0,-1
1051 84 m 1,20,21
 1005 53 1005 53 969.5 31.5 c 128,-1,22
 934 10 934 10 907.5 -3.5 c 128,-1,23
 881 -17 881 -17 862 -23.5 c 128,-1,24
 843 -30 843 -30 829 -30 c 0,25,26
 796 -30 796 -30 775 15 c 128,-1,27
 754 60 754 60 747 169 c 1,28,29
 709 123 709 123 671.5 86 c 128,-1,30
 634 49 634 49 594.5 23.5 c 128,-1,31
 555 -2 555 -2 511 -16 c 128,-1,32
 467 -30 467 -30 416 -30 c 0,33,34
 360 -30 360 -30 301 2.5 c 128,-1,35
 242 35 242 35 192.5 96 c 128,-1,36
 143 157 143 157 111.5 245 c 128,-1,37
 80 333 80 333 80 444 c 0,38,39
 80 501 80 501 95.5 562 c 128,-1,40
 111 623 111 623 140 680 c 128,-1,41
 169 737 169 737 211 788 c 128,-1,42
 253 839 253 839 305 877.5 c 128,-1,43
 357 916 357 916 419 938 c 128,-1,44
 481 960 481 960 551 960 c 0,45,46
 598 960 598 960 644.5 948.5 c 128,-1,47
 691 937 691 937 745 897 c 1,48,-1
 745 1274 l 2,49,50
 745 1329 745 1329 742 1361.5 c 128,-1,51
 739 1394 739 1394 725 1411.5 c 128,-1,52
 711 1429 711 1429 682 1435.5 c 128,-1,53
 653 1442 653 1442 600 1446 c 1,54,-1
 600 1485 l 1,55,56
 682 1496 682 1496 747 1514.5 c 128,-1,57
 812 1533 812 1533 864 1550 c 1,58,-1
 895 1520 l 1,59,-1
 895 254 l 2,60,61
 895 219 895 219 896.5 194 c 128,-1,62
 898 169 898 169 901 152 c 128,-1,63
 904 135 904 135 908 124 c 128,-1,64
 912 113 912 113 918 106 c 0,65,66
 927 95 927 95 952.5 99.5 c 128,-1,67
 978 104 978 104 1038 127 c 1,68,-1
 1051 84 l 1,69,-1
 1051 84 l 1,20,21
EndSplineSet
EndChar

StartChar: e
Encoding: 101 101 69
Width: 946
Flags: W
LayerCount: 2
Fore
SplineSet
496 856 m 0,0,1
 445 856 445 856 402 836 c 128,-1,2
 359 816 359 816 325.5 780 c 128,-1,3
 292 744 292 744 269.5 693 c 128,-1,4
 247 642 247 642 237 580 c 1,5,-1
 664 580 l 2,6,7
 687 580 687 580 694.5 587.5 c 128,-1,8
 702 595 702 595 702 616 c 0,9,10
 702 634 702 634 699 659 c 128,-1,11
 696 684 696 684 687.5 710.5 c 128,-1,12
 679 737 679 737 664.5 763 c 128,-1,13
 650 789 650 789 627 809.5 c 128,-1,14
 604 830 604 830 571.5 843 c 128,-1,15
 539 856 539 856 496 856 c 0,0,1
866 557 m 1,16,17
 848 537 848 537 818 520 c 128,-1,18
 788 503 788 503 756 490 c 1,19,-1
 230 490 l 1,20,-1
 230 487 l 2,21,22
 230 412 230 412 250.5 342.5 c 128,-1,23
 271 273 271 273 309 219.5 c 128,-1,24
 347 166 347 166 402 134 c 128,-1,25
 457 102 457 102 526 102 c 0,26,27
 557 102 557 102 586.5 105.5 c 128,-1,28
 616 109 616 109 650 122.5 c 128,-1,29
 684 136 684 136 725.5 163 c 128,-1,30
 767 190 767 190 823 236 c 1,31,32
 836 229 836 229 845.5 216 c 128,-1,33
 855 203 855 203 860 195 c 1,34,35
 793 122 793 122 742.5 77.5 c 128,-1,36
 692 33 692 33 647.5 9 c 128,-1,37
 603 -15 603 -15 559.5 -22.5 c 128,-1,38
 516 -30 516 -30 465 -30 c 0,39,40
 388 -30 388 -30 318.5 3 c 128,-1,41
 249 36 249 36 196 96.5 c 128,-1,42
 143 157 143 157 111.5 242.5 c 128,-1,43
 80 328 80 328 80 434 c 0,44,45
 80 501 80 501 95 566 c 128,-1,46
 110 631 110 631 138.5 689 c 128,-1,47
 167 747 167 747 208 796 c 128,-1,48
 249 845 249 845 301 881 c 0,49,50
 323 896 323 896 350.5 910.5 c 128,-1,51
 378 925 378 925 408 936 c 128,-1,52
 438 947 438 947 467.5 953.5 c 128,-1,53
 497 960 497 960 524 960 c 0,54,55
 590 960 590 960 640.5 942 c 128,-1,56
 691 924 691 924 729 893.5 c 128,-1,57
 767 863 767 863 793 822.5 c 128,-1,58
 819 782 819 782 835.5 737 c 128,-1,59
 852 692 852 692 859 645.5 c 128,-1,60
 866 599 866 599 866 557 c 1,16,17
EndSplineSet
EndChar

StartChar: f
Encoding: 102 102 70
Width: 637
Flags: W
LayerCount: 2
Fore
SplineSet
817 1454 m 0,0,1
 817 1446 817 1446 802.5 1430 c 128,-1,2
 788 1414 788 1414 768 1397 c 128,-1,3
 748 1380 748 1380 726.5 1365 c 128,-1,4
 705 1350 705 1350 690 1343 c 1,5,6
 666 1364 666 1364 641.5 1379.5 c 128,-1,7
 617 1395 617 1395 594.5 1405.5 c 128,-1,8
 572 1416 572 1416 552.5 1421.5 c 128,-1,9
 533 1427 533 1427 520 1427 c 0,10,11
 494 1427 494 1427 464.5 1409 c 128,-1,12
 435 1391 435 1391 409.5 1345 c 128,-1,13
 384 1299 384 1299 367 1219.5 c 128,-1,14
 350 1140 350 1140 350 1016 c 2,15,-1
 350 930 l 1,16,-1
 608 930 l 1,17,-1
 637 901 l 1,18,19
 628 887 628 887 614.5 871.5 c 128,-1,20
 601 856 601 856 587.5 841.5 c 128,-1,21
 574 827 574 827 561 816 c 128,-1,22
 548 805 548 805 539 801 c 1,23,24
 516 813 516 813 473 824.5 c 128,-1,25
 430 836 430 836 350 836 c 1,26,-1
 350 102 l 2,27,28
 350 96 350 96 360.5 90 c 128,-1,29
 371 84 371 84 396 77.5 c 128,-1,30
 421 71 421 71 460.5 62.5 c 128,-1,31
 500 54 500 54 559 43 c 1,32,-1
 559 0 l 1,33,-1
 60 0 l 1,34,-1
 60 43 l 1,35,36
 129 55 129 55 164.5 72.5 c 128,-1,37
 200 90 200 90 200 102 c 2,38,-1
 200 836 l 1,39,-1
 66 836 l 1,40,-1
 45 864 l 1,41,-1
 123 930 l 1,42,-1
 200 930 l 1,43,-1
 200 961 l 2,44,45
 200 1079 200 1079 216 1159.5 c 128,-1,46
 232 1240 232 1240 259.5 1295.5 c 128,-1,47
 287 1351 287 1351 323 1388.5 c 128,-1,48
 359 1426 359 1426 399 1458 c 0,49,50
 426 1480 426 1480 458 1497 c 128,-1,51
 490 1514 490 1514 521.5 1526 c 128,-1,52
 553 1538 553 1538 581.5 1544 c 128,-1,53
 610 1550 610 1550 629 1550 c 0,54,55
 660 1550 660 1550 693 1538 c 128,-1,56
 726 1526 726 1526 753.5 1510.5 c 128,-1,57
 781 1495 781 1495 799 1479 c 128,-1,58
 817 1463 817 1463 817 1454 c 0,0,1
EndSplineSet
EndChar

StartChar: g
Encoding: 103 103 71
Width: 999
Flags: W
LayerCount: 2
Fore
SplineSet
690 600 m 0,0,1
 690 653 690 653 672.5 700 c 128,-1,2
 655 747 655 747 620.5 782 c 128,-1,3
 586 817 586 817 534.5 837.5 c 128,-1,4
 483 858 483 858 416 858 c 0,5,6
 391 858 391 858 360.5 845.5 c 128,-1,7
 330 833 330 833 303 808 c 128,-1,8
 276 783 276 783 258 745.5 c 128,-1,9
 240 708 240 708 240 659 c 0,10,11
 240 606 240 606 256.5 558.5 c 128,-1,12
 273 511 273 511 306.5 475.5 c 128,-1,13
 340 440 340 440 391.5 419.5 c 128,-1,14
 443 399 443 399 514 399 c 0,15,16
 543 399 543 399 574.5 412 c 128,-1,17
 606 425 606 425 631.5 450 c 128,-1,18
 657 475 657 475 673.5 512.5 c 128,-1,19
 690 550 690 550 690 600 c 0,0,1
518 -4 m 0,20,21
 480 0 480 0 448 5 c 128,-1,22
 416 10 416 10 388 16 c 1,23,24
 316 -23 316 -23 274.5 -54 c 128,-1,25
 233 -85 233 -85 212 -109.5 c 128,-1,26
 191 -134 191 -134 185.5 -154 c 128,-1,27
 180 -174 180 -174 180 -190 c 0,28,29
 180 -232 180 -232 208 -269.5 c 128,-1,30
 236 -307 236 -307 283 -335 c 128,-1,31
 330 -363 330 -363 392 -379.5 c 128,-1,32
 454 -396 454 -396 522 -396 c 0,33,34
 589 -396 589 -396 644 -378 c 128,-1,35
 699 -360 699 -360 738 -328 c 128,-1,36
 777 -296 777 -296 798.5 -252.5 c 128,-1,37
 820 -209 820 -209 820 -157 c 0,38,39
 820 -129 820 -129 807 -105.5 c 128,-1,40
 794 -82 794 -82 760 -63 c 128,-1,41
 726 -44 726 -44 667.5 -29 c 128,-1,42
 609 -14 609 -14 518 -4 c 0,20,21
830 641 m 0,43,44
 830 564 830 564 795.5 500.5 c 128,-1,45
 761 437 761 437 705 391 c 128,-1,46
 649 345 649 345 578 319.5 c 128,-1,47
 507 294 507 294 434 294 c 2,48,-1
 429 294 l 1,49,50
 382 255 382 255 364 228.5 c 128,-1,51
 346 202 346 202 346 196 c 0,52,53
 346 184 346 184 356.5 172.5 c 128,-1,54
 367 161 367 161 395.5 150.5 c 128,-1,55
 424 140 424 140 474 129.5 c 128,-1,56
 524 119 524 119 602 110 c 0,57,58
 711 98 711 98 782 74 c 128,-1,59
 853 50 853 50 895 18.5 c 128,-1,60
 937 -13 937 -13 953.5 -49 c 128,-1,61
 970 -85 970 -85 970 -120 c 0,62,63
 970 -175 970 -175 949 -224.5 c 128,-1,64
 928 -274 928 -274 892 -316 c 128,-1,65
 856 -358 856 -358 807 -392 c 128,-1,66
 758 -426 758 -426 702 -450 c 128,-1,67
 646 -474 646 -474 586 -487 c 128,-1,68
 526 -500 526 -500 467 -500 c 0,69,70
 420 -500 420 -500 370 -493.5 c 128,-1,71
 320 -487 320 -487 271 -473 c 128,-1,72
 222 -459 222 -459 178.5 -437.5 c 128,-1,73
 135 -416 135 -416 102 -385.5 c 128,-1,74
 69 -355 69 -355 49.5 -316.5 c 128,-1,75
 30 -278 30 -278 30 -229 c 0,76,77
 30 -203 30 -203 39.5 -174.5 c 128,-1,78
 49 -146 49 -146 78 -113 c 128,-1,79
 107 -80 107 -80 159 -42 c 128,-1,80
 211 -4 211 -4 297 42 c 1,81,82
 232 65 232 65 207 94 c 128,-1,83
 182 123 182 123 182 153 c 0,84,85
 182 161 182 161 187 174.5 c 128,-1,86
 192 188 192 188 207.5 207 c 128,-1,87
 223 226 223 226 251 251 c 128,-1,88
 279 276 279 276 325 308 c 1,89,90
 274 322 274 322 232.5 348.5 c 128,-1,91
 191 375 191 375 161.5 413 c 128,-1,92
 132 451 132 451 116 498.5 c 128,-1,93
 100 546 100 546 100 602 c 0,94,95
 100 675 100 675 133 740.5 c 128,-1,96
 166 806 166 806 220 854.5 c 128,-1,97
 274 903 274 903 343 931.5 c 128,-1,98
 412 960 412 960 485 960 c 0,99,100
 545 960 545 960 597.5 943 c 128,-1,101
 650 926 650 926 693 895 c 1,102,103
 745 900 745 900 787 908 c 128,-1,104
 829 916 829 916 862.5 925 c 128,-1,105
 896 934 896 934 922 943 c 128,-1,106
 948 952 948 952 969 960 c 1,107,-1
 989 930 l 1,108,109
 977 902 977 902 966 878.5 c 128,-1,110
 955 855 955 855 932 830 c 1,111,112
 894 823 894 823 857.5 819 c 128,-1,113
 821 815 821 815 775 813 c 1,114,115
 801 775 801 775 815.5 732 c 128,-1,116
 830 689 830 689 830 641 c 0,43,44
EndSplineSet
EndChar

StartChar: h
Encoding: 104 104 72
Width: 1130
Flags: W
LayerCount: 2
Fore
SplineSet
670 0 m 1,0,-1
 670 43 l 1,1,2
 742 62 742 62 776 76 c 128,-1,3
 810 90 810 90 810 104 c 2,4,-1
 810 633 l 2,5,6
 810 694 810 694 802.5 732 c 128,-1,7
 795 770 795 770 779 792 c 128,-1,8
 763 814 763 814 739 822 c 128,-1,9
 715 830 715 830 682 830 c 0,10,11
 647 830 647 830 606.5 812 c 128,-1,12
 566 794 566 794 522 759 c 128,-1,13
 478 724 478 724 433 671.5 c 128,-1,14
 388 619 388 619 345 549 c 1,15,-1
 345 104 l 2,16,17
 345 89 345 89 382.5 73 c 128,-1,18
 420 57 420 57 485 43 c 1,19,-1
 485 0 l 1,20,-1
 55 0 l 1,21,-1
 55 43 l 1,22,23
 121 60 121 60 158 73.5 c 128,-1,24
 195 87 195 87 195 104 c 2,25,-1
 195 1298 l 2,26,27
 195 1340 195 1340 191.5 1363.5 c 128,-1,28
 188 1387 188 1387 173.5 1400 c 128,-1,29
 159 1413 159 1413 131 1418.5 c 128,-1,30
 103 1424 103 1424 55 1430 c 1,31,-1
 55 1470 l 1,32,33
 97 1478 97 1478 131.5 1486 c 128,-1,34
 166 1494 166 1494 195.5 1503.5 c 128,-1,35
 225 1513 225 1513 252 1524 c 128,-1,36
 279 1535 279 1535 308 1550 c 1,37,-1
 345 1516 l 1,38,-1
 345 684 l 1,39,40
 388 748 388 748 440.5 799 c 128,-1,41
 493 850 493 850 546 886 c 128,-1,42
 599 922 599 922 649.5 941 c 128,-1,43
 700 960 700 960 739 960 c 0,44,45
 782 960 782 960 822 947 c 128,-1,46
 862 934 862 934 892.5 907 c 128,-1,47
 923 880 923 880 941.5 838.5 c 128,-1,48
 960 797 960 797 960 741 c 2,49,-1
 960 104 l 2,50,51
 960 90 960 90 990.5 76.5 c 128,-1,52
 1021 63 1021 63 1100 43 c 1,53,-1
 1100 0 l 1,54,-1
 670 0 l 1,0,-1
EndSplineSet
EndChar

StartChar: i
Encoding: 105 105 73
Width: 555
Flags: W
LayerCount: 2
Fore
SplineSet
390 1261 m 0,0,1
 390 1233 390 1233 381 1208 c 128,-1,2
 372 1183 372 1183 356.5 1164.5 c 128,-1,3
 341 1146 341 1146 320 1135 c 128,-1,4
 299 1124 299 1124 274 1124 c 0,5,6
 229 1124 229 1124 209.5 1149 c 128,-1,7
 190 1174 190 1174 190 1220 c 0,8,9
 190 1248 190 1248 199 1273 c 128,-1,10
 208 1298 208 1298 224 1316.5 c 128,-1,11
 240 1335 240 1335 260.5 1345.5 c 128,-1,12
 281 1356 281 1356 305 1356 c 0,13,14
 390 1356 390 1356 390 1261 c 0,0,1
70 0 m 1,15,-1
 70 43 l 1,16,17
 138 57 138 57 174 73.5 c 128,-1,18
 210 90 210 90 210 104 c 2,19,-1
 210 670 l 2,20,21
 210 721 210 721 208 752.5 c 128,-1,22
 206 784 206 784 193 801.5 c 128,-1,23
 180 819 180 819 151.5 827 c 128,-1,24
 123 835 123 835 70 840 c 1,25,-1
 70 880 l 1,26,27
 101 886 101 886 135.5 894.5 c 128,-1,28
 170 903 170 903 204 913.5 c 128,-1,29
 238 924 238 924 269 936 c 128,-1,30
 300 948 300 948 326 960 c 1,31,-1
 360 960 l 1,32,-1
 360 104 l 2,33,34
 360 92 360 92 393.5 74.5 c 128,-1,35
 427 57 427 57 500 43 c 1,36,-1
 500 0 l 1,37,-1
 70 0 l 1,15,-1
EndSplineSet
EndChar

StartChar: j
Encoding: 106 106 74
Width: 530
Flags: W
LayerCount: 2
Fore
SplineSet
365 1261 m 0,0,1
 365 1233 365 1233 356 1208 c 128,-1,2
 347 1183 347 1183 331.5 1164.5 c 128,-1,3
 316 1146 316 1146 295 1135 c 128,-1,4
 274 1124 274 1124 250 1124 c 0,5,6
 205 1124 205 1124 185.5 1149 c 128,-1,7
 166 1174 166 1174 166 1220 c 0,8,9
 166 1248 166 1248 175 1273 c 128,-1,10
 184 1298 184 1298 199.5 1316.5 c 128,-1,11
 215 1335 215 1335 236 1345.5 c 128,-1,12
 257 1356 257 1356 281 1356 c 0,13,14
 365 1356 365 1356 365 1261 c 0,0,1
335 99 m 1,15,16
 335 -16 335 -16 320.5 -96.5 c 128,-1,17
 306 -177 306 -177 280.5 -233.5 c 128,-1,18
 255 -290 255 -290 220 -329 c 128,-1,19
 185 -368 185 -368 145 -400 c 0,20,21
 118 -421 118 -421 88 -439.5 c 128,-1,22
 58 -458 58 -458 28 -471.5 c 128,-1,23
 -2 -485 -2 -485 -28.5 -492.5 c 128,-1,24
 -55 -500 -55 -500 -74 -500 c 0,25,26
 -105 -500 -105 -500 -134.5 -492.5 c 128,-1,27
 -164 -485 -164 -485 -187.5 -474 c 128,-1,28
 -211 -463 -211 -463 -225.5 -451 c 128,-1,29
 -240 -439 -240 -439 -240 -431 c 0,30,31
 -240 -422 -240 -422 -225.5 -406.5 c 128,-1,32
 -211 -391 -211 -391 -191 -374 c 128,-1,33
 -171 -357 -171 -357 -149.5 -342 c 128,-1,34
 -128 -327 -128 -327 -113 -320 c 1,35,36
 -81 -348 -81 -348 -47 -356.5 c 128,-1,37
 -13 -365 -13 -365 25 -365 c 0,38,39
 54 -365 54 -365 82.5 -346.5 c 128,-1,40
 111 -328 111 -328 134 -282 c 128,-1,41
 157 -236 157 -236 171 -157 c 128,-1,42
 185 -78 185 -78 185 43 c 2,43,-1
 185 670 l 2,44,45
 185 721 185 721 182.5 752 c 128,-1,46
 180 783 180 783 167 800.5 c 128,-1,47
 154 818 154 818 125.5 826 c 128,-1,48
 97 834 97 834 45 840 c 1,49,-1
 45 880 l 1,50,51
 87 887 87 887 119.5 896 c 128,-1,52
 152 905 152 905 181.5 914.5 c 128,-1,53
 211 924 211 924 238.5 935.5 c 128,-1,54
 266 947 266 947 298 960 c 1,55,-1
 335 960 l 1,56,-1
 335 99 l 1,57,-1
 335 99 l 1,15,16
EndSplineSet
EndChar

StartChar: k
Encoding: 107 107 75
Width: 1024
Flags: W
LayerCount: 2
Fore
SplineSet
55 0 m 1,0,-1
 55 43 l 1,1,2
 121 60 121 60 158 73 c 128,-1,3
 195 86 195 86 195 104 c 2,4,-1
 195 1296 l 2,5,6
 195 1342 195 1342 189.5 1367 c 128,-1,7
 184 1392 184 1392 168.5 1404.5 c 128,-1,8
 153 1417 153 1417 125.5 1421 c 128,-1,9
 98 1425 98 1425 55 1430 c 1,10,-1
 55 1470 l 1,11,12
 124 1484 124 1484 190.5 1502.5 c 128,-1,13
 257 1521 257 1521 308 1550 c 1,14,-1
 345 1516 l 1,15,-1
 345 526 l 1,16,-1
 653 799 l 2,17,18
 686 828 686 828 693 845.5 c 128,-1,19
 700 863 700 863 690.5 872 c 128,-1,20
 681 881 681 881 658.5 884 c 128,-1,21
 636 887 636 887 610 887 c 1,22,-1
 610 930 l 1,23,-1
 989 930 l 1,24,-1
 989 887 l 1,25,26
 945 882 945 882 908 870.5 c 128,-1,27
 871 859 871 859 829 825 c 2,28,-1
 492 553 l 1,29,-1
 864 111 l 2,30,31
 878 95 878 95 893 84.5 c 128,-1,32
 908 74 908 74 926 68 c 128,-1,33
 944 62 944 62 966.5 60.5 c 128,-1,34
 989 59 989 59 1018 61 c 1,35,-1
 1024 18 l 1,36,37
 995 11 995 11 966.5 6 c 128,-1,38
 938 1 938 1 913.5 -2.5 c 128,-1,39
 889 -6 889 -6 869.5 -8 c 128,-1,40
 850 -10 850 -10 840 -10 c 0,41,42
 798 -10 798 -10 772.5 2 c 128,-1,43
 747 14 747 14 725 43 c 2,44,-1
 348 525 l 1,45,-1
 345 526 l 1,46,-1
 345 104 l 2,47,48
 345 96 345 96 348.5 90 c 128,-1,49
 352 84 352 84 363 77.5 c 128,-1,50
 374 71 374 71 396 63 c 128,-1,51
 418 55 418 55 455 43 c 1,52,-1
 455 0 l 1,53,-1
 55 0 l 1,0,-1
EndSplineSet
EndChar

StartChar: l
Encoding: 108 108 76
Width: 555
Flags: W
LayerCount: 2
Fore
SplineSet
60 0 m 1,0,-1
 60 43 l 1,1,2
 103 50 103 50 132 57.5 c 128,-1,3
 161 65 161 65 178 72.5 c 128,-1,4
 195 80 195 80 202.5 88 c 128,-1,5
 210 96 210 96 210 104 c 2,6,-1
 210 1296 l 2,7,8
 210 1341 210 1341 204 1366 c 128,-1,9
 198 1391 198 1391 182 1403.5 c 128,-1,10
 166 1416 166 1416 139 1420.5 c 128,-1,11
 112 1425 112 1425 70 1430 c 1,12,-1
 70 1470 l 1,13,14
 142 1484 142 1484 202 1501 c 128,-1,15
 262 1518 262 1518 324 1550 c 1,16,-1
 360 1516 l 1,17,-1
 360 104 l 2,18,19
 360 89 360 89 394 73 c 128,-1,20
 428 57 428 57 510 43 c 1,21,-1
 510 0 l 1,22,-1
 60 0 l 1,0,-1
EndSplineSet
EndChar

StartChar: m
Encoding: 109 109 77
Width: 1645
Flags: W
LayerCount: 2
Fore
SplineSet
1186 0 m 1,0,-1
 1186 43 l 1,1,2
 1258 62 1258 62 1291.5 76 c 128,-1,3
 1325 90 1325 90 1325 104 c 2,4,-1
 1325 633 l 2,5,6
 1325 694 1325 694 1318.5 734.5 c 128,-1,7
 1312 775 1312 775 1298.5 798 c 128,-1,8
 1285 821 1285 821 1263.5 830.5 c 128,-1,9
 1242 840 1242 840 1212 840 c 0,10,11
 1179 840 1179 840 1142 821.5 c 128,-1,12
 1105 803 1105 803 1066 768.5 c 128,-1,13
 1027 734 1027 734 987.5 684.5 c 128,-1,14
 948 635 948 635 910 573 c 1,15,-1
 910 104 l 2,16,17
 910 90 910 90 941 76.5 c 128,-1,18
 972 63 972 63 1051 43 c 1,19,-1
 1051 0 l 1,20,-1
 621 0 l 1,21,-1
 621 43 l 1,22,23
 693 62 693 62 726.5 76 c 128,-1,24
 760 90 760 90 760 104 c 2,25,-1
 760 633 l 2,26,27
 760 694 760 694 754 734.5 c 128,-1,28
 748 775 748 775 734.5 798 c 128,-1,29
 721 821 721 821 699.5 830.5 c 128,-1,30
 678 840 678 840 647 840 c 0,31,32
 579 840 579 840 504.5 770 c 128,-1,33
 430 700 430 700 345 573 c 1,34,-1
 345 104 l 2,35,36
 345 89 345 89 382.5 73 c 128,-1,37
 420 57 420 57 485 43 c 1,38,-1
 485 0 l 1,39,-1
 55 0 l 1,40,-1
 55 43 l 1,41,42
 121 60 121 60 158 73.5 c 128,-1,43
 195 87 195 87 195 104 c 2,44,-1
 195 711 l 2,45,46
 195 751 195 751 191.5 774 c 128,-1,47
 188 797 188 797 173.5 809.5 c 128,-1,48
 159 822 159 822 131 828 c 128,-1,49
 103 834 103 834 55 840 c 1,50,-1
 55 880 l 1,51,52
 93 886 93 886 125 894.5 c 128,-1,53
 157 903 157 903 186 913 c 128,-1,54
 215 923 215 923 241.5 935 c 128,-1,55
 268 947 268 947 295 960 c 1,56,-1
 330 925 l 1,57,-1
 341 696 l 1,58,59
 386 762 386 762 432 811.5 c 128,-1,60
 478 861 478 861 523 894 c 128,-1,61
 568 927 568 927 610 943.5 c 128,-1,62
 652 960 652 960 688 960 c 0,63,64
 736 960 736 960 776.5 948 c 128,-1,65
 817 936 817 936 846.5 908 c 128,-1,66
 876 880 876 880 893 835 c 128,-1,67
 910 790 910 790 910 723 c 2,68,-1
 910 704 l 1,69,70
 952 767 952 767 997 814.5 c 128,-1,71
 1042 862 1042 862 1086.5 894.5 c 128,-1,72
 1131 927 1131 927 1173.5 943.5 c 128,-1,73
 1216 960 1216 960 1253 960 c 0,74,75
 1301 960 1301 960 1341.5 947 c 128,-1,76
 1382 934 1382 934 1411.5 907 c 128,-1,77
 1441 880 1441 880 1458 838.5 c 128,-1,78
 1475 797 1475 797 1475 741 c 2,79,-1
 1475 104 l 2,80,81
 1475 90 1475 90 1506 76.5 c 128,-1,82
 1537 63 1537 63 1616 43 c 1,83,-1
 1616 0 l 1,84,-1
 1186 0 l 1,0,-1
EndSplineSet
EndChar

StartChar: n
Encoding: 110 110 78
Width: 1130
Flags: W
LayerCount: 2
Fore
SplineSet
670 0 m 1,0,-1
 670 43 l 1,1,2
 742 62 742 62 776 76 c 128,-1,3
 810 90 810 90 810 104 c 2,4,-1
 810 633 l 2,5,6
 810 694 810 694 803 732 c 128,-1,7
 796 770 796 770 781 792 c 128,-1,8
 766 814 766 814 741.5 822 c 128,-1,9
 717 830 717 830 682 830 c 0,10,11
 651 830 651 830 613 815 c 128,-1,12
 575 800 575 800 531.5 767 c 128,-1,13
 488 734 488 734 440.5 680.5 c 128,-1,14
 393 627 393 627 345 549 c 1,15,-1
 345 104 l 2,16,17
 345 89 345 89 382.5 73 c 128,-1,18
 420 57 420 57 485 43 c 1,19,-1
 485 0 l 1,20,-1
 55 0 l 1,21,-1
 55 43 l 1,22,23
 121 60 121 60 158 73.5 c 128,-1,24
 195 87 195 87 195 104 c 2,25,-1
 195 711 l 2,26,27
 195 750 195 750 192 773 c 128,-1,28
 189 796 189 796 175.5 809 c 128,-1,29
 162 822 162 822 134 828 c 128,-1,30
 106 834 106 834 55 840 c 1,31,-1
 55 880 l 1,32,33
 123 891 123 891 181 911.5 c 128,-1,34
 239 932 239 932 295 960 c 1,35,-1
 330 925 l 1,36,-1
 341 676 l 1,37,38
 385 743 385 743 438 795.5 c 128,-1,39
 491 848 491 848 545 884.5 c 128,-1,40
 599 921 599 921 649.5 940.5 c 128,-1,41
 700 960 700 960 739 960 c 0,42,43
 782 960 782 960 822 947 c 128,-1,44
 862 934 862 934 892.5 907 c 128,-1,45
 923 880 923 880 941.5 838.5 c 128,-1,46
 960 797 960 797 960 741 c 2,47,-1
 960 104 l 2,48,49
 960 90 960 90 990.5 76.5 c 128,-1,50
 1021 63 1021 63 1100 43 c 1,51,-1
 1100 0 l 1,52,-1
 670 0 l 1,0,-1
EndSplineSet
EndChar

StartChar: o
Encoding: 111 111 79
Width: 1030
Flags: W
LayerCount: 2
Fore
SplineSet
797 455 m 0,0,1
 797 534 797 534 771 605.5 c 128,-1,2
 745 677 745 677 703 731.5 c 128,-1,3
 661 786 661 786 609 818 c 128,-1,4
 557 850 557 850 506 850 c 0,5,6
 430 850 430 850 378 821 c 128,-1,7
 326 792 326 792 293.5 741.5 c 128,-1,8
 261 691 261 691 247 622 c 128,-1,9
 233 553 233 553 233 473 c 0,10,11
 233 394 233 394 261 322.5 c 128,-1,12
 289 251 289 251 332 197 c 128,-1,13
 375 143 375 143 426.5 111.5 c 128,-1,14
 478 80 478 80 524 80 c 0,15,16
 595 80 595 80 646.5 106.5 c 128,-1,17
 698 133 698 133 731.5 182 c 128,-1,18
 765 231 765 231 781 300 c 128,-1,19
 797 369 797 369 797 455 c 0,0,1
950 485 m 0,20,21
 950 419 950 419 933 354.5 c 128,-1,22
 916 290 916 290 886 233 c 128,-1,23
 856 176 856 176 814 127.5 c 128,-1,24
 772 79 772 79 721.5 44 c 128,-1,25
 671 9 671 9 614 -10.5 c 128,-1,26
 557 -30 557 -30 496 -30 c 0,27,28
 401 -30 401 -30 324.5 6 c 128,-1,29
 248 42 248 42 193.5 105 c 128,-1,30
 139 168 139 168 109.5 255 c 128,-1,31
 80 342 80 342 80 444 c 0,32,33
 80 510 80 510 96.5 574 c 128,-1,34
 113 638 113 638 142.5 695.5 c 128,-1,35
 172 753 172 753 213.5 801.5 c 128,-1,36
 255 850 255 850 305.5 885 c 128,-1,37
 356 920 356 920 414 940 c 128,-1,38
 472 960 472 960 535 960 c 0,39,40
 629 960 629 960 705.5 924 c 128,-1,41
 782 888 782 888 836.5 824.5 c 128,-1,42
 891 761 891 761 920.5 674 c 128,-1,43
 950 587 950 587 950 485 c 0,20,21
EndSplineSet
EndChar

StartChar: p
Encoding: 112 112 80
Width: 1085
Flags: W
LayerCount: 2
Fore
SplineSet
871 426 m 0,0,1
 871 513 871 513 850.5 588 c 128,-1,2
 830 663 830 663 795.5 717.5 c 128,-1,3
 761 772 761 772 716 803 c 128,-1,4
 671 834 671 834 623 834 c 0,5,6
 605 834 605 834 576 823 c 128,-1,7
 547 812 547 812 510 786.5 c 128,-1,8
 473 761 473 761 431 717.5 c 128,-1,9
 389 674 389 674 345 610 c 1,10,-1
 345 213 l 1,11,12
 390 179 390 179 428.5 157 c 128,-1,13
 467 135 467 135 500.5 122.5 c 128,-1,14
 534 110 534 110 564 105 c 128,-1,15
 594 100 594 100 621 100 c 0,16,17
 675 100 675 100 720.5 121 c 128,-1,18
 766 142 766 142 799.5 183 c 128,-1,19
 833 224 833 224 852 285 c 128,-1,20
 871 346 871 346 871 426 c 0,0,1
1004 492 m 0,21,22
 1004 434 1004 434 989.5 373 c 128,-1,23
 975 312 975 312 948.5 254 c 128,-1,24
 922 196 922 196 886.5 144 c 128,-1,25
 851 92 851 92 808.5 53.5 c 128,-1,26
 766 15 766 15 719 -7.5 c 128,-1,27
 672 -30 672 -30 623 -30 c 0,28,29
 564 -30 564 -30 490 3 c 128,-1,30
 416 36 416 36 345 98 c 1,31,-1
 345 -375 l 2,32,33
 345 -391 345 -391 382.5 -407 c 128,-1,34
 420 -423 420 -423 514 -437 c 1,35,-1
 514 -480 l 1,36,-1
 55 -480 l 1,37,-1
 55 -437 l 1,38,39
 121 -421 121 -421 158 -406.5 c 128,-1,40
 195 -392 195 -392 195 -375 c 2,41,-1
 195 711 l 2,42,43
 195 748 195 748 191 772 c 128,-1,44
 187 796 187 796 172.5 810.5 c 128,-1,45
 158 825 158 825 130.5 831.5 c 128,-1,46
 103 838 103 838 55 840 c 1,47,-1
 55 880 l 1,48,49
 89 887 89 887 120 895.5 c 128,-1,50
 151 904 151 904 180 913.5 c 128,-1,51
 209 923 209 923 237.5 934.5 c 128,-1,52
 266 946 266 946 295 960 c 1,53,-1
 330 925 l 1,54,-1
 339 727 l 1,55,56
 389 787 389 787 439.5 831 c 128,-1,57
 490 875 490 875 536 903.5 c 128,-1,58
 582 932 582 932 621.5 946 c 128,-1,59
 661 960 661 960 690 960 c 0,60,61
 758 960 758 960 815.5 928 c 128,-1,62
 873 896 873 896 915 835.5 c 128,-1,63
 957 775 957 775 980.5 688 c 128,-1,64
 1004 601 1004 601 1004 492 c 0,21,22
EndSplineSet
EndChar

StartChar: q
Encoding: 113 113 81
Width: 1055
Flags: W
LayerCount: 2
Fore
SplineSet
487 102 m 0,0,1
 521 102 521 102 554 115.5 c 128,-1,2
 587 129 587 129 619.5 151.5 c 128,-1,3
 652 174 652 174 683 202.5 c 128,-1,4
 714 231 714 231 745 261 c 1,5,-1
 745 730 l 1,6,7
 712 787 712 787 652 819.5 c 128,-1,8
 592 852 592 852 520 852 c 0,9,10
 464 852 464 852 412 828 c 128,-1,11
 360 804 360 804 319.5 757 c 128,-1,12
 279 710 279 710 254.5 639.5 c 128,-1,13
 230 569 230 569 230 475 c 0,14,15
 230 390 230 390 254.5 321 c 128,-1,16
 279 252 279 252 317 203.5 c 128,-1,17
 355 155 355 155 400.5 128.5 c 128,-1,18
 446 102 446 102 487 102 c 0,0,1
575 -480 m 1,19,-1
 575 -437 l 1,20,21
 669 -423 669 -423 707 -407.5 c 128,-1,22
 745 -392 745 -392 745 -375 c 2,23,-1
 745 166 l 1,24,25
 707 120 707 120 670 84 c 128,-1,26
 633 48 633 48 593.5 22.5 c 128,-1,27
 554 -3 554 -3 510.5 -16.5 c 128,-1,28
 467 -30 467 -30 416 -30 c 0,29,30
 360 -30 360 -30 301 2.5 c 128,-1,31
 242 35 242 35 192.5 96 c 128,-1,32
 143 157 143 157 111.5 245 c 128,-1,33
 80 333 80 333 80 444 c 0,34,35
 80 532 80 532 108 606 c 128,-1,36
 136 680 136 680 176.5 737.5 c 128,-1,37
 217 795 217 795 263 835 c 128,-1,38
 309 875 309 875 344 895 c 0,39,40
 401 926 401 926 457 943 c 128,-1,41
 513 960 513 960 551 960 c 0,42,43
 578 960 578 960 605 956.5 c 128,-1,44
 632 953 632 953 660 943 c 128,-1,45
 688 933 688 933 718 915 c 128,-1,46
 748 897 748 897 782 867 c 1,47,48
 797 876 797 876 813 888.5 c 128,-1,49
 829 901 829 901 844 913.5 c 128,-1,50
 859 926 859 926 872.5 938.5 c 128,-1,51
 886 951 886 951 895 960 c 1,52,-1
 926 930 l 1,53,54
 926 930 926 930 921 913.5 c 128,-1,55
 916 897 916 897 910.5 868.5 c 128,-1,56
 905 840 905 840 900 801 c 128,-1,57
 895 762 895 762 895 717 c 2,58,-1
 895 -375 l 2,59,60
 895 -391 895 -391 926 -407 c 128,-1,61
 957 -423 957 -423 1034 -437 c 1,62,-1
 1034 -480 l 1,63,-1
 575 -480 l 1,19,-1
EndSplineSet
EndChar

StartChar: r
Encoding: 114 114 82
Width: 811
Flags: W
LayerCount: 2
Fore
SplineSet
770 923 m 0,0,1
 779 917 779 917 778.5 888 c 128,-1,2
 778 859 778 859 770.5 821 c 128,-1,3
 763 783 763 783 751 743 c 128,-1,4
 739 703 739 703 727 676 c 1,5,-1
 684 676 l 1,6,7
 678 716 678 716 667 744 c 128,-1,8
 656 772 656 772 641.5 788.5 c 128,-1,9
 627 805 627 805 609.5 812.5 c 128,-1,10
 592 820 592 820 573 820 c 0,11,12
 551 820 551 820 521.5 801.5 c 128,-1,13
 492 783 492 783 461 743.5 c 128,-1,14
 430 704 430 704 399.5 642.5 c 128,-1,15
 369 581 369 581 345 496 c 1,16,-1
 345 104 l 2,17,18
 345 89 345 89 382.5 73 c 128,-1,19
 420 57 420 57 514 43 c 1,20,-1
 514 0 l 1,21,-1
 55 0 l 1,22,-1
 55 43 l 1,23,24
 121 58 121 58 158 72.5 c 128,-1,25
 195 87 195 87 195 104 c 2,26,-1
 195 686 l 2,27,28
 195 719 195 719 193 741.5 c 128,-1,29
 191 764 191 764 188 778 c 128,-1,30
 185 792 185 792 180.5 800 c 128,-1,31
 176 808 176 808 172 813 c 0,32,33
 165 820 165 820 156.5 824.5 c 128,-1,34
 148 829 148 829 134.5 832 c 128,-1,35
 121 835 121 835 102 836.5 c 128,-1,36
 83 838 83 838 55 840 c 1,37,-1
 55 880 l 1,38,39
 120 897 120 897 182.5 914.5 c 128,-1,40
 245 932 245 932 295 960 c 1,41,-1
 330 925 l 1,42,-1
 343 698 l 1,43,44
 370 753 370 753 401.5 801 c 128,-1,45
 433 849 433 849 469 884.5 c 128,-1,46
 505 920 505 920 544.5 940 c 128,-1,47
 584 960 584 960 627 960 c 0,48,49
 659 960 659 960 696 952 c 128,-1,50
 733 944 733 944 770 923 c 0,0,1
EndSplineSet
EndChar

StartChar: s
Encoding: 115 115 83
Width: 791
Flags: W
LayerCount: 2
Fore
SplineSet
700 283 m 0,0,1
 700 212 700 212 680 161.5 c 128,-1,2
 660 111 660 111 628 76 c 128,-1,3
 596 41 596 41 557 20 c 128,-1,4
 518 -1 518 -1 480 -12 c 128,-1,5
 442 -23 442 -23 408.5 -26.5 c 128,-1,6
 375 -30 375 -30 356 -30 c 0,7,8
 308 -30 308 -30 240.5 -12 c 128,-1,9
 173 6 173 6 106 43 c 0,10,11
 99 46 99 46 96.5 75.5 c 128,-1,12
 94 105 94 105 95.5 143.5 c 128,-1,13
 97 182 97 182 101.5 221 c 128,-1,14
 106 260 106 260 113 283 c 1,15,-1
 156 272 l 1,16,17
 158 230 158 230 178 193 c 128,-1,18
 198 156 198 156 231.5 128 c 128,-1,19
 265 100 265 100 309.5 84 c 128,-1,20
 354 68 354 68 406 68 c 0,21,22
 442 68 442 68 472 79.5 c 128,-1,23
 502 91 502 91 524 112 c 128,-1,24
 546 133 546 133 558 162.5 c 128,-1,25
 570 192 570 192 570 227 c 0,26,27
 570 267 570 267 548.5 298 c 128,-1,28
 527 329 527 329 492 354.5 c 128,-1,29
 457 380 457 380 412.5 402.5 c 128,-1,30
 368 425 368 425 322 449 c 0,31,32
 280 470 280 470 241 494 c 128,-1,33
 202 518 202 518 171.5 548 c 128,-1,34
 141 578 141 578 122.5 615 c 128,-1,35
 104 652 104 652 104 700 c 0,36,37
 104 762 104 762 129 810.5 c 128,-1,38
 154 859 154 859 195.5 892 c 128,-1,39
 237 925 237 925 290.5 942.5 c 128,-1,40
 344 960 344 960 401 960 c 0,41,42
 432 960 432 960 469.5 954.5 c 128,-1,43
 507 949 507 949 543.5 939 c 128,-1,44
 580 929 580 929 612 915 c 128,-1,45
 644 901 644 901 664 883 c 0,46,47
 670 877 670 877 665.5 856 c 128,-1,48
 661 835 661 835 651.5 810 c 128,-1,49
 642 785 642 785 631 763 c 128,-1,50
 620 741 620 741 614 733 c 1,51,-1
 575 741 l 1,52,53
 527 813 527 813 475.5 841.5 c 128,-1,54
 424 870 424 870 375 870 c 0,55,56
 342 870 342 870 316 859 c 128,-1,57
 290 848 290 848 271.5 830.5 c 128,-1,58
 253 813 253 813 243.5 792 c 128,-1,59
 234 771 234 771 234 750 c 0,60,61
 234 718 234 718 253 692.5 c 128,-1,62
 272 667 272 667 303 644.5 c 128,-1,63
 334 622 334 622 373.5 601.5 c 128,-1,64
 413 581 413 581 455 559 c 0,65,66
 498 537 498 537 542 512 c 128,-1,67
 586 487 586 487 621 454.5 c 128,-1,68
 656 422 656 422 678 380.5 c 128,-1,69
 700 339 700 339 700 283 c 0,0,1
EndSplineSet
EndChar

StartChar: t
Encoding: 116 116 84
Width: 705
Flags: W
LayerCount: 2
Fore
SplineSet
676 117 m 1,0,1
 627 81 627 81 579 53.5 c 128,-1,2
 531 26 531 26 487.5 7.5 c 128,-1,3
 444 -11 444 -11 407 -20.5 c 128,-1,4
 370 -30 370 -30 344 -30 c 0,5,6
 309 -30 309 -30 277.5 -17 c 128,-1,7
 246 -4 246 -4 222 25.5 c 128,-1,8
 198 55 198 55 184 103 c 128,-1,9
 170 151 170 151 170 221 c 2,10,-1
 170 836 l 1,11,-1
 41 836 l 1,12,-1
 20 864 l 1,13,-1
 98 930 l 1,14,-1
 170 930 l 1,15,-1
 170 1176 l 1,16,-1
 289 1280 l 1,17,-1
 320 1255 l 1,18,-1
 320 930 l 1,19,-1
 647 930 l 1,20,-1
 676 901 l 1,21,22
 667 887 667 887 653.5 871.5 c 128,-1,23
 640 856 640 856 626 841.5 c 128,-1,24
 612 827 612 827 598.5 816 c 128,-1,25
 585 805 585 805 575 801 c 1,26,27
 551 813 551 813 502 824.5 c 128,-1,28
 453 836 453 836 372 836 c 2,29,-1
 320 836 l 1,30,-1
 320 307 l 2,31,32
 320 247 320 247 325.5 207.5 c 128,-1,33
 331 168 331 168 344 144.5 c 128,-1,34
 357 121 357 121 377.5 111.5 c 128,-1,35
 398 102 398 102 428 102 c 0,36,37
 463 102 463 102 516 115 c 128,-1,38
 569 128 569 128 647 168 c 1,39,-1
 676 117 l 1,40,-1
 676 117 l 1,0,1
EndSplineSet
EndChar

StartChar: u
Encoding: 117 117 85
Width: 1085
Flags: W
LayerCount: 2
Fore
SplineSet
1069 82 m 1,0,1
 1032 58 1032 58 998 37.5 c 128,-1,2
 964 17 964 17 935 2 c 128,-1,3
 906 -13 906 -13 884 -21.5 c 128,-1,4
 862 -30 862 -30 850 -30 c 0,5,6
 815 -30 815 -30 793 16.5 c 128,-1,7
 771 63 771 63 765 166 c 1,8,9
 703 104 703 104 651.5 65.5 c 128,-1,10
 600 27 600 27 556.5 6 c 128,-1,11
 513 -15 513 -15 476.5 -22.5 c 128,-1,12
 440 -30 440 -30 408 -30 c 0,13,14
 361 -30 361 -30 318 -17 c 128,-1,15
 275 -4 275 -4 242 30.5 c 128,-1,16
 209 65 209 65 189.5 125 c 128,-1,17
 170 185 170 185 170 279 c 2,18,-1
 170 711 l 2,19,20
 170 759 170 759 167 785.5 c 128,-1,21
 164 812 164 812 151.5 825.5 c 128,-1,22
 139 839 139 839 113 844 c 128,-1,23
 87 849 87 849 41 854 c 1,24,-1
 41 894 l 1,25,26
 77 898 77 898 108.5 904 c 128,-1,27
 140 910 140 910 169.5 918 c 128,-1,28
 199 926 199 926 229 936.5 c 128,-1,29
 259 947 259 947 292 960 c 1,30,-1
 320 921 l 1,31,-1
 320 334 l 2,32,33
 320 264 320 264 330.5 217 c 128,-1,34
 341 170 341 170 360.5 142 c 128,-1,35
 380 114 380 114 408.5 102 c 128,-1,36
 437 90 437 90 473 90 c 0,37,38
 505 90 505 90 538.5 99.5 c 128,-1,39
 572 109 572 109 607.5 129.5 c 128,-1,40
 643 150 643 150 682 182.5 c 128,-1,41
 721 215 721 215 765 262 c 1,42,-1
 765 711 l 2,43,44
 765 756 765 756 760.5 783 c 128,-1,45
 756 810 756 810 741 825 c 128,-1,46
 726 840 726 840 698.5 846 c 128,-1,47
 671 852 671 852 625 854 c 1,48,-1
 625 894 l 1,49,50
 697 903 697 903 763 922 c 128,-1,51
 829 941 829 941 885 960 c 1,52,-1
 915 921 l 1,53,-1
 915 254 l 2,54,55
 915 192 915 192 919.5 153 c 128,-1,56
 924 114 924 114 938 104 c 0,57,58
 950 96 950 96 979 100.5 c 128,-1,59
 1008 105 1008 105 1059 127 c 1,60,-1
 1069 82 l 1,61,-1
 1069 82 l 1,0,1
EndSplineSet
EndChar

StartChar: v
Encoding: 118 118 86
Width: 1010
Flags: W
LayerCount: 2
Fore
SplineSet
989 887 m 1,0,1
 959 880 959 880 940 874 c 128,-1,2
 921 868 921 868 909 860.5 c 128,-1,3
 897 853 897 853 890.5 843.5 c 128,-1,4
 884 834 884 834 879 819 c 2,5,-1
 596 59 l 2,6,7
 587 37 587 37 570 21.5 c 128,-1,8
 553 6 553 6 533 -4.5 c 128,-1,9
 513 -15 513 -15 493.5 -21 c 128,-1,10
 474 -27 474 -27 461 -30 c 1,11,-1
 131 819 l 1,12,13
 122 847 122 847 96 861.5 c 128,-1,14
 70 876 70 876 20 887 c 1,15,-1
 20 930 l 1,16,-1
 406 930 l 1,17,-1
 406 887 l 1,18,19
 367 882 367 882 342.5 877 c 128,-1,20
 318 872 318 872 304.5 864.5 c 128,-1,21
 291 857 291 857 289 846 c 128,-1,22
 287 835 287 835 293 819 c 2,23,-1
 539 178 l 1,24,-1
 770 819 l 2,25,26
 775 834 775 834 773.5 844.5 c 128,-1,27
 772 855 772 855 760 862.5 c 128,-1,28
 748 870 748 870 725.5 875.5 c 128,-1,29
 703 881 703 881 666 887 c 1,30,-1
 666 930 l 1,31,-1
 989 930 l 1,32,-1
 989 887 l 1,33,-1
 989 887 l 1,0,1
EndSplineSet
EndChar

StartChar: w
Encoding: 119 119 87
Width: 1446
Flags: W
LayerCount: 2
Fore
SplineSet
1425 887 m 1,0,1
 1394 880 1394 880 1376 873.5 c 128,-1,2
 1358 867 1358 867 1347.5 860.5 c 128,-1,3
 1337 854 1337 854 1332.5 845.5 c 128,-1,4
 1328 837 1328 837 1325 825 c 2,5,-1
 1104 59 l 2,6,7
 1098 37 1098 37 1080.5 21.5 c 128,-1,8
 1063 6 1063 6 1042 -4.5 c 128,-1,9
 1021 -15 1021 -15 1000.5 -21 c 128,-1,10
 980 -27 980 -27 967 -30 c 1,11,-1
 729 648 l 1,12,-1
 524 59 l 2,13,14
 516 36 516 36 499.5 20.5 c 128,-1,15
 483 5 483 5 463 -5.5 c 128,-1,16
 443 -16 443 -16 423.5 -21.5 c 128,-1,17
 404 -27 404 -27 391 -30 c 1,18,-1
 129 825 l 1,19,20
 120 864 120 864 20 887 c 1,21,-1
 20 930 l 1,22,-1
 406 930 l 1,23,-1
 406 887 l 1,24,25
 357 882 357 882 330 875.5 c 128,-1,26
 303 869 303 869 291 860.5 c 128,-1,27
 279 852 279 852 278.5 843 c 128,-1,28
 278 834 278 834 281 825 c 2,29,-1
 469 190 l 1,30,-1
 715 930 l 1,31,-1
 784 930 l 1,32,-1
 1044 190 l 1,33,-1
 1217 825 l 2,34,35
 1223 848 1223 848 1196 862 c 128,-1,36
 1169 876 1169 876 1100 887 c 1,37,-1
 1100 930 l 1,38,-1
 1425 930 l 1,39,-1
 1425 887 l 1,40,-1
 1425 887 l 1,0,1
EndSplineSet
EndChar

StartChar: x
Encoding: 120 120 88
Width: 1030
Flags: W
LayerCount: 2
Fore
SplineSet
614 0 m 1,0,-1
 614 43 l 1,1,2
 639 45 639 45 661 49 c 128,-1,3
 683 53 683 53 695.5 62 c 128,-1,4
 708 71 708 71 708 87 c 0,5,6
 708 104 708 104 688 131 c 2,7,-1
 490 400 l 1,8,-1
 301 131 l 2,9,10
 282 104 282 104 286 87.5 c 128,-1,11
 290 71 290 71 307 62 c 128,-1,12
 324 53 324 53 349.5 49 c 128,-1,13
 375 45 375 45 399 43 c 1,14,-1
 399 0 l 1,15,-1
 20 0 l 1,16,-1
 20 43 l 1,17,18
 60 49 60 49 88 58.5 c 128,-1,19
 116 68 116 68 135.5 80.5 c 128,-1,20
 155 93 155 93 168.5 107.5 c 128,-1,21
 182 122 182 122 193 137 c 2,22,-1
 436 475 l 1,23,-1
 201 797 l 2,24,25
 188 815 188 815 175 830.5 c 128,-1,26
 162 846 162 846 143.5 857.5 c 128,-1,27
 125 869 125 869 98 876.5 c 128,-1,28
 71 884 71 884 31 887 c 1,29,-1
 31 930 l 1,30,-1
 451 930 l 1,31,-1
 451 887 l 1,32,33
 420 884 420 884 397.5 878.5 c 128,-1,34
 375 873 375 873 363.5 863.5 c 128,-1,35
 352 854 352 854 353.5 838.5 c 128,-1,36
 355 823 355 823 373 799 c 2,37,-1
 534 577 l 1,38,-1
 688 799 l 1,39,40
 706 823 706 823 708 839 c 128,-1,41
 710 855 710 855 699.5 864.5 c 128,-1,42
 689 874 689 874 667 879 c 128,-1,43
 645 884 645 884 614 887 c 1,44,-1
 614 930 l 1,45,-1
 995 930 l 1,46,-1
 995 887 l 1,47,48
 914 881 914 881 869.5 857.5 c 128,-1,49
 825 834 825 834 799 797 c 2,50,-1
 589 502 l 1,51,-1
 856 137 l 2,52,53
 868 122 868 122 882 107.5 c 128,-1,54
 896 93 896 93 914.5 80 c 128,-1,55
 933 67 933 67 958 57 c 128,-1,56
 983 47 983 47 1016 43 c 1,57,-1
 1016 0 l 1,58,-1
 614 0 l 1,0,-1
EndSplineSet
EndChar

StartChar: y
Encoding: 121 121 89
Width: 1010
Flags: W
LayerCount: 2
Fore
SplineSet
989 887 m 1,0,1
 959 880 959 880 940 874 c 128,-1,2
 921 868 921 868 909 860.5 c 128,-1,3
 897 853 897 853 890.5 843.5 c 128,-1,4
 884 834 884 834 879 819 c 2,5,-1
 545 -82 l 2,6,7
 503 -193 503 -193 451.5 -272 c 128,-1,8
 400 -351 400 -351 344.5 -401.5 c 128,-1,9
 289 -452 289 -452 233 -476 c 128,-1,10
 177 -500 177 -500 127 -500 c 0,11,12
 89 -500 89 -500 57 -495 c 128,-1,13
 25 -490 25 -490 2 -482.5 c 128,-1,14
 -21 -475 -21 -475 -34 -465.5 c 128,-1,15
 -47 -456 -47 -456 -47 -447 c 0,16,17
 -47 -441 -47 -441 -35 -423 c 128,-1,18
 -23 -405 -23 -405 -5 -383.5 c 128,-1,19
 13 -362 13 -362 33.5 -342 c 128,-1,20
 54 -322 54 -322 70 -312 c 1,21,22
 118 -340 118 -340 165.5 -342 c 128,-1,23
 213 -344 213 -344 250 -330 c 0,24,25
 268 -324 268 -324 292 -302 c 128,-1,26
 316 -280 316 -280 340.5 -248 c 128,-1,27
 365 -216 365 -216 388.5 -175.5 c 128,-1,28
 412 -135 412 -135 430 -92 c 2,29,-1
 459 -23 l 1,30,-1
 131 819 l 1,31,32
 122 847 122 847 96 861.5 c 128,-1,33
 70 876 70 876 20 887 c 1,34,-1
 20 930 l 1,35,-1
 406 930 l 1,36,-1
 406 887 l 1,37,38
 367 882 367 882 342.5 877 c 128,-1,39
 318 872 318 872 304.5 864.5 c 128,-1,40
 291 857 291 857 289 846 c 128,-1,41
 287 835 287 835 293 819 c 2,42,-1
 539 182 l 1,43,-1
 770 819 l 2,44,45
 775 834 775 834 771.5 844.5 c 128,-1,46
 768 855 768 855 754.5 862.5 c 128,-1,47
 741 870 741 870 716.5 875.5 c 128,-1,48
 692 881 692 881 655 887 c 1,49,-1
 655 930 l 1,50,-1
 989 930 l 1,51,-1
 989 887 l 1,0,1
EndSplineSet
EndChar

StartChar: z
Encoding: 122 122 90
Width: 905
Flags: W
LayerCount: 2
Fore
SplineSet
829 248 m 1,0,1
 829 216 829 216 828 180 c 128,-1,2
 827 144 827 144 825.5 110 c 128,-1,3
 824 76 824 76 822 47 c 128,-1,4
 820 18 820 18 817 0 c 1,5,-1
 102 0 l 1,6,-1
 76 45 l 1,7,-1
 631 840 l 1,8,-1
 285 840 l 2,9,10
 269 840 269 840 252.5 834 c 128,-1,11
 236 828 236 828 220.5 811.5 c 128,-1,12
 205 795 205 795 191.5 765.5 c 128,-1,13
 178 736 178 736 168 690 c 1,14,-1
 119 702 l 1,15,-1
 137 946 l 1,16,17
 159 940 159 940 177 936.5 c 128,-1,18
 195 933 195 933 214.5 931.5 c 128,-1,19
 234 930 234 930 257 930 c 0,20,21
 281 930 281 930 313 930 c 2,22,-1
 805 930 l 1,23,-1
 827 887 l 1,24,-1
 270 90 l 1,25,-1
 692 90 l 2,26,27
 717 90 717 90 738 128.5 c 128,-1,28
 759 167 759 167 782 258 c 1,29,-1
 829 248 l 1,30,-1
 829 248 l 1,0,1
EndSplineSet
EndChar

StartChar: braceleft
Encoding: 123 123 91
Width: 688
Flags: W
LayerCount: 2
Fore
SplineSet
649 1553 m 1,0,1
 610 1529 610 1529 576.5 1498 c 128,-1,2
 543 1467 543 1467 518 1429.5 c 128,-1,3
 493 1392 493 1392 479 1348 c 128,-1,4
 465 1304 465 1304 465 1252 c 0,5,6
 465 1194 465 1194 471.5 1157 c 128,-1,7
 478 1120 478 1120 485.5 1087.5 c 128,-1,8
 493 1055 493 1055 499.5 1018 c 128,-1,9
 506 981 506 981 506 923 c 0,10,11
 506 881 506 881 493.5 840.5 c 128,-1,12
 481 800 481 800 458 764.5 c 128,-1,13
 435 729 435 729 401.5 700 c 128,-1,14
 368 671 368 671 326 653 c 1,15,16
 376 644 376 644 410.5 621.5 c 128,-1,17
 445 599 445 599 466 565 c 128,-1,18
 487 531 487 531 496.5 485.5 c 128,-1,19
 506 440 506 440 506 385 c 0,20,21
 506 325 506 325 499.5 283 c 128,-1,22
 493 241 493 241 485.5 204 c 128,-1,23
 478 167 478 167 471.5 130 c 128,-1,24
 465 93 465 93 465 43 c 0,25,26
 465 -12 465 -12 472.5 -54.5 c 128,-1,27
 480 -97 480 -97 499.5 -131.5 c 128,-1,28
 519 -166 519 -166 552.5 -195.5 c 128,-1,29
 586 -225 586 -225 639 -254 c 1,30,-1
 616 -315 l 1,31,32
 532 -281 532 -281 472 -243.5 c 128,-1,33
 412 -206 412 -206 373.5 -160 c 128,-1,34
 335 -114 335 -114 317 -57 c 128,-1,35
 299 0 299 0 299 72 c 0,36,37
 299 131 299 131 305.5 169.5 c 128,-1,38
 312 208 312 208 319.5 243.5 c 128,-1,39
 327 279 327 279 333.5 319.5 c 128,-1,40
 340 360 340 360 340 422 c 0,41,42
 340 503 340 503 299.5 544.5 c 128,-1,43
 259 586 259 586 184 586 c 0,44,45
 170 586 170 586 163 586 c 0,46,47
 157 586 157 586 152 585.5 c 128,-1,48
 147 585 147 585 140.5 583.5 c 128,-1,49
 134 582 134 582 119 580 c 1,50,-1
 102 633 l 1,51,52
 220 664 220 664 280 726 c 128,-1,53
 340 788 340 788 340 863 c 0,54,55
 340 903 340 903 337 932 c 128,-1,56
 334 961 334 961 329.5 984.5 c 128,-1,57
 325 1008 325 1008 319.5 1028.5 c 128,-1,58
 314 1049 314 1049 309.5 1072 c 128,-1,59
 305 1095 305 1095 302 1124.5 c 128,-1,60
 299 1154 299 1154 299 1195 c 0,61,62
 299 1262 299 1262 321.5 1321.5 c 128,-1,63
 344 1381 344 1381 386 1431.5 c 128,-1,64
 428 1482 428 1482 488 1524 c 128,-1,65
 548 1566 548 1566 623 1600 c 1,66,-1
 649 1553 l 1,67,-1
 649 1553 l 1,0,1
EndSplineSet
EndChar

StartChar: bar
Encoding: 124 124 92
Width: 469
Flags: W
LayerCount: 2
Fore
SplineSet
320 -353 m 1,0,1
 302 -369 302 -369 271 -383 c 128,-1,2
 240 -397 240 -397 215 -405 c 1,3,-1
 180 -382 l 1,4,-1
 180 1621 l 1,5,6
 208 1638 208 1638 231.5 1650 c 128,-1,7
 255 1662 255 1662 284 1670 c 1,8,-1
 320 1648 l 1,9,-1
 320 -353 l 1,10,-1
 320 -353 l 1,0,1
EndSplineSet
EndChar

StartChar: braceright
Encoding: 125 125 93
Width: 688
Flags: W
LayerCount: 2
Fore
SplineSet
588 651 m 1,0,1
 469 620 469 620 409.5 559.5 c 128,-1,2
 350 499 350 499 350 422 c 0,3,4
 350 382 350 382 353 353 c 128,-1,5
 356 324 356 324 360 301 c 128,-1,6
 364 278 364 278 369.5 258 c 128,-1,7
 375 238 375 238 379 214.5 c 128,-1,8
 383 191 383 191 386 162 c 128,-1,9
 389 133 389 133 389 92 c 0,10,11
 389 24 389 24 366.5 -35 c 128,-1,12
 344 -94 344 -94 302 -145 c 128,-1,13
 260 -196 260 -196 200 -238.5 c 128,-1,14
 140 -281 140 -281 66 -315 c 1,15,-1
 39 -266 l 1,16,17
 78 -242 78 -242 111.5 -211.5 c 128,-1,18
 145 -181 145 -181 170 -143.5 c 128,-1,19
 195 -106 195 -106 209 -61.5 c 128,-1,20
 223 -17 223 -17 223 35 c 0,21,22
 223 93 223 93 217 129.5 c 128,-1,23
 211 166 211 166 203.5 198.5 c 128,-1,24
 196 231 196 231 190 268.5 c 128,-1,25
 184 306 184 306 184 365 c 0,26,27
 184 406 184 406 196 446 c 128,-1,28
 208 486 208 486 231.5 521 c 128,-1,29
 255 556 255 556 288.5 584.5 c 128,-1,30
 322 613 322 613 365 631 c 1,31,32
 314 641 314 641 279.5 663.5 c 128,-1,33
 245 686 245 686 223.5 720.5 c 128,-1,34
 202 755 202 755 193 800.5 c 128,-1,35
 184 846 184 846 184 902 c 0,36,37
 184 961 184 961 190 1003 c 128,-1,38
 196 1045 196 1045 203.5 1082 c 128,-1,39
 211 1119 211 1119 217 1156 c 128,-1,40
 223 1193 223 1193 223 1242 c 0,41,42
 223 1298 223 1298 215.5 1341 c 128,-1,43
 208 1384 208 1384 188.5 1418.5 c 128,-1,44
 169 1453 169 1453 135 1481.5 c 128,-1,45
 101 1510 101 1510 49 1539 c 1,46,-1
 72 1600 l 1,47,48
 156 1567 156 1567 216.5 1529.5 c 128,-1,49
 277 1492 277 1492 315 1446 c 128,-1,50
 353 1400 353 1400 371 1343.5 c 128,-1,51
 389 1287 389 1287 389 1215 c 0,52,53
 389 1156 389 1156 383 1117 c 128,-1,54
 377 1078 377 1078 369.5 1042.5 c 128,-1,55
 362 1007 362 1007 356 966.5 c 128,-1,56
 350 926 350 926 350 865 c 0,57,58
 350 784 350 784 390.5 742 c 128,-1,59
 431 700 431 700 506 700 c 0,60,61
 519 700 519 700 525 700 c 256,62,63
 531 700 531 700 536 700.5 c 128,-1,64
 541 701 541 701 548.5 702.5 c 128,-1,65
 556 704 556 704 571 707 c 1,66,-1
 588 651 l 1,67,-1
 588 651 l 1,0,1
EndSplineSet
EndChar

StartChar: asciitilde
Encoding: 126 126 94
Width: 999
Flags: W
LayerCount: 2
Fore
SplineSet
950 774 m 1,0,1
 929 725 929 725 897 672.5 c 128,-1,2
 865 620 865 620 825.5 576.5 c 128,-1,3
 786 533 786 533 740.5 505 c 128,-1,4
 695 477 695 477 647 477 c 0,5,6
 605 477 605 477 558 502 c 128,-1,7
 511 527 511 527 462.5 557 c 128,-1,8
 414 587 414 587 366.5 612 c 128,-1,9
 319 637 319 637 276 637 c 0,10,11
 227 637 227 637 185.5 598 c 128,-1,12
 144 559 144 559 102 475 c 1,13,-1
 49 502 l 1,14,15
 70 551 70 551 102.5 603.5 c 128,-1,16
 135 656 135 656 174.5 699.5 c 128,-1,17
 214 743 214 743 259 771 c 128,-1,18
 304 799 304 799 352 799 c 0,19,20
 398 799 398 799 446.5 774 c 128,-1,21
 495 749 495 749 542.5 719 c 128,-1,22
 590 689 590 689 635.5 664 c 128,-1,23
 681 639 681 639 721 639 c 0,24,25
 769 639 769 639 812 678 c 128,-1,26
 855 717 855 717 897 799 c 1,27,-1
 950 774 l 1,28,-1
 950 774 l 1,0,1
EndSplineSet
EndChar

StartChar: exclamdown
Encoding: 161 161 96
Width: 557
Flags: W
LayerCount: 2
Fore
SplineSet
391 848 m 0,0,1
 391 814 391 814 380 784.5 c 128,-1,2
 369 755 369 755 350 732.5 c 128,-1,3
 331 710 331 710 306.5 697 c 128,-1,4
 282 684 282 684 254 684 c 0,5,6
 203 684 203 684 178.5 713.5 c 128,-1,7
 154 743 154 743 154 799 c 0,8,9
 154 833 154 833 164.5 862.5 c 128,-1,10
 175 892 175 892 193.5 914 c 128,-1,11
 212 936 212 936 237.5 948.5 c 128,-1,12
 263 961 263 961 293 961 c 0,13,14
 345 961 345 961 368 931.5 c 128,-1,15
 391 902 391 902 391 848 c 0,0,1
371 -483 m 1,16,17
 332 -508 332 -508 290.5 -530.5 c 128,-1,18
 249 -553 249 -553 215 -565 c 1,19,-1
 172 -543 l 1,20,-1
 219 530 l 1,21,22
 239 546 239 546 254 553.5 c 128,-1,23
 269 561 269 561 295 569 c 1,24,-1
 322 551 l 1,25,-1
 371 -483 l 1,26,-1
 371 -483 l 1,16,17
EndSplineSet
EndChar

StartChar: cent
Encoding: 162 162 97
Width: 961
Flags: W
LayerCount: 2
Fore
SplineSet
256 616 m 0,0,1
 256 546 256 546 273 489 c 128,-1,2
 290 432 290 432 319.5 389 c 128,-1,3
 349 346 349 346 389 317.5 c 128,-1,4
 429 289 429 289 475 275 c 1,5,-1
 475 966 l 1,6,7
 430 957 430 957 390.5 932 c 128,-1,8
 351 907 351 907 321 864 c 128,-1,9
 291 821 291 821 273.5 759.5 c 128,-1,10
 256 698 256 698 256 616 c 0,0,1
565 -8 m 1,11,12
 556 -16 556 -16 549 -20.5 c 128,-1,13
 542 -25 542 -25 535.5 -28.5 c 128,-1,14
 529 -32 529 -32 520.5 -34.5 c 128,-1,15
 512 -37 512 -37 500 -41 c 1,16,-1
 475 -16 l 1,17,-1
 475 129 l 1,18,19
 404 132 404 132 337.5 163 c 128,-1,20
 271 194 271 194 219 251.5 c 128,-1,21
 167 309 167 309 135.5 393 c 128,-1,22
 104 477 104 477 104 586 c 0,23,24
 104 674 104 674 131.5 752 c 128,-1,25
 159 830 159 830 208 891.5 c 128,-1,26
 257 953 257 953 325.5 996.5 c 128,-1,27
 394 1040 394 1040 475 1061 c 1,28,-1
 475 1214 l 1,29,30
 489 1223 489 1223 495 1227.5 c 128,-1,31
 501 1232 501 1232 505.5 1234.5 c 128,-1,32
 510 1237 510 1237 517 1239 c 128,-1,33
 524 1241 524 1241 539 1245 c 1,34,-1
 565 1223 l 1,35,-1
 565 1077 l 1,36,37
 577 1078 577 1078 589 1078.5 c 128,-1,38
 601 1079 601 1079 614 1079 c 0,39,40
 647 1079 647 1079 681.5 1073.5 c 128,-1,41
 716 1068 716 1068 748 1057.5 c 128,-1,42
 780 1047 780 1047 806.5 1032.5 c 128,-1,43
 833 1018 833 1018 850 999 c 1,44,45
 852 988 852 988 847 966 c 128,-1,46
 842 944 842 944 833 920 c 128,-1,47
 824 896 824 896 813 873.5 c 128,-1,48
 802 851 802 851 793 838 c 1,49,-1
 758 848 l 1,50,51
 749 864 749 864 733.5 883 c 128,-1,52
 718 902 718 902 694.5 919 c 128,-1,53
 671 936 671 936 639 949.5 c 128,-1,54
 607 963 607 963 565 968 c 1,55,-1
 565 262 l 1,56,57
 592 262 592 262 616 264.5 c 128,-1,58
 640 267 640 267 668.5 279.5 c 128,-1,59
 697 292 697 292 734 318 c 128,-1,60
 771 344 771 344 825 391 c 1,61,-1
 864 350 l 1,62,63
 813 290 813 290 772 250 c 128,-1,64
 731 210 731 210 695.5 185.5 c 128,-1,65
 660 161 660 161 628.5 149 c 128,-1,66
 597 137 597 137 565 133 c 1,67,-1
 565 -8 l 1,68,-1
 565 -8 l 1,11,12
EndSplineSet
EndChar

StartChar: sterling
Encoding: 163 163 98
Width: 961
Flags: W
LayerCount: 2
Fore
SplineSet
615 536 m 1,0,-1
 373 536 l 1,1,2
 376 468 376 468 368 405 c 128,-1,3
 360 342 360 342 344.5 286.5 c 128,-1,4
 329 231 329 231 306.5 184 c 128,-1,5
 284 137 284 137 258 101 c 1,6,7
 304 105 304 105 338.5 106 c 128,-1,8
 373 107 373 107 402 106.5 c 128,-1,9
 431 106 431 106 456 105 c 128,-1,10
 481 104 481 104 507.5 102.5 c 128,-1,11
 534 101 534 101 563 100.5 c 128,-1,12
 592 100 592 100 629 101 c 0,13,14
 675 102 675 102 708 107 c 128,-1,15
 741 112 741 112 766.5 129 c 128,-1,16
 792 146 792 146 813 179.5 c 128,-1,17
 834 213 834 213 855 272 c 1,18,-1
 898 254 l 1,19,20
 894 211 894 211 888.5 171.5 c 128,-1,21
 883 132 883 132 877.5 98.5 c 128,-1,22
 872 65 872 65 866.5 40 c 128,-1,23
 861 15 861 15 857 0 c 1,24,25
 812 -25 812 -25 751.5 -28 c 128,-1,26
 691 -31 691 -31 621.5 -24 c 128,-1,27
 552 -17 552 -17 478.5 -5.5 c 128,-1,28
 405 6 405 6 334 11 c 128,-1,29
 263 16 263 16 199.5 8.5 c 128,-1,30
 136 1 136 1 87 -30 c 1,31,-1
 64 19 l 1,32,33
 95 44 95 44 119 66 c 128,-1,34
 143 88 143 88 160 113.5 c 128,-1,35
 177 139 177 139 188 172.5 c 128,-1,36
 199 206 199 206 204 255 c 128,-1,37
 209 304 209 304 208 372.5 c 128,-1,38
 207 441 207 441 200 536 c 1,39,-1
 86 536 l 1,40,-1
 64 561 l 1,41,42
 69 576 69 576 74.5 593.5 c 128,-1,43
 80 611 80 611 86 627 c 1,44,-1
 194 627 l 1,45,46
 188 769 188 769 210 882 c 128,-1,47
 232 995 232 995 283.5 1073.5 c 128,-1,48
 335 1152 335 1152 417.5 1193.5 c 128,-1,49
 500 1235 500 1235 614 1235 c 0,50,51
 640 1235 640 1235 664.5 1233 c 128,-1,52
 689 1231 689 1231 717 1223.5 c 128,-1,53
 745 1216 745 1216 779.5 1202.5 c 128,-1,54
 814 1189 814 1189 861 1165 c 1,55,56
 860 1139 860 1139 856 1102 c 128,-1,57
 852 1065 852 1065 846.5 1026.5 c 128,-1,58
 841 988 841 988 834.5 953.5 c 128,-1,59
 828 919 828 919 822 900 c 1,60,-1
 775 900 l 1,61,62
 761 1024 761 1024 700.5 1080 c 128,-1,63
 640 1136 640 1136 540 1136 c 0,64,65
 513 1136 513 1136 486.5 1130.5 c 128,-1,66
 460 1125 460 1125 436.5 1107.5 c 128,-1,67
 413 1090 413 1090 394 1056.5 c 128,-1,68
 375 1023 375 1023 364.5 966.5 c 128,-1,69
 354 910 354 910 353 826.5 c 128,-1,70
 352 743 352 743 364 627 c 1,71,-1
 615 627 l 1,72,-1
 640 604 l 1,73,-1
 615 536 l 1,0,-1
EndSplineSet
EndChar

StartChar: currency
Encoding: 164 164 99
Width: 961
Flags: W
LayerCount: 2
Fore
SplineSet
363 721 m 256,0,1
 338 696 338 696 325.5 664.5 c 128,-1,2
 313 633 313 633 313 601 c 256,3,4
 313 569 313 569 325 538.5 c 128,-1,5
 337 508 337 508 362 484 c 0,6,7
 388 458 388 458 419 446 c 128,-1,8
 450 434 450 434 482 434 c 256,9,10
 514 434 514 434 545 446 c 128,-1,11
 576 458 576 458 601 483 c 0,12,13
 625 508 625 508 637.5 539 c 128,-1,14
 650 570 650 570 650 602 c 256,15,16
 650 634 650 634 637.5 665 c 128,-1,17
 625 696 625 696 600 721 c 256,18,19
 575 746 575 746 544.5 758 c 128,-1,20
 514 770 514 770 482 770 c 256,21,22
 450 770 450 770 419 758 c 128,-1,23
 388 746 388 746 363 721 c 256,0,1
738 280 m 1,24,-1
 633 385 l 1,25,26
 599 362 599 362 560.5 350.5 c 128,-1,27
 522 339 522 339 482 339 c 256,28,29
 442 339 442 339 403 350.5 c 128,-1,30
 364 362 364 362 330 386 c 1,31,-1
 222 279 l 1,32,-1
 189 281 l 1,33,34
 181 295 181 295 173 311 c 128,-1,35
 165 327 165 327 158 343 c 1,36,-1
 265 450 l 1,37,38
 241 483 241 483 229.5 521.5 c 128,-1,39
 218 560 218 560 218 600 c 256,40,41
 218 640 218 640 230 679 c 128,-1,42
 242 718 242 718 266 752 c 1,43,-1
 159 860 l 1,44,-1
 161 893 l 1,45,46
 175 901 175 901 191 909 c 128,-1,47
 207 917 207 917 223 924 c 1,48,-1
 330 817 l 1,49,50
 364 841 364 841 403 853.5 c 128,-1,51
 442 866 442 866 482 866 c 256,52,53
 522 866 522 866 560 854 c 128,-1,54
 598 842 598 842 632 817 c 1,55,-1
 738 923 l 1,56,-1
 772 924 l 1,57,-1
 802 858 l 1,58,-1
 696 752 l 1,59,60
 720 718 720 718 732.5 679 c 128,-1,61
 745 640 745 640 745 600 c 256,62,63
 745 560 745 560 733 521.5 c 128,-1,64
 721 483 721 483 697 449 c 1,65,-1
 803 344 l 1,66,-1
 804 310 l 1,67,-1
 738 280 l 1,24,-1
EndSplineSet
EndChar

StartChar: yen
Encoding: 165 165 100
Width: 961
Flags: W
LayerCount: 2
Fore
SplineSet
236 0 m 1,0,-1
 236 43 l 1,1,2
 327 62 327 62 363.5 81.5 c 128,-1,3
 400 101 400 101 400 115 c 2,4,-1
 400 436 l 1,5,-1
 128 436 l 1,6,-1
 106 461 l 1,7,8
 111 476 111 476 116.5 493.5 c 128,-1,9
 122 511 122 511 128 527 c 1,10,-1
 400 527 l 1,11,-1
 400 580 l 1,12,13
 365 653 365 653 326.5 726 c 128,-1,14
 288 799 288 799 248.5 866 c 128,-1,15
 209 933 209 933 171 991.5 c 128,-1,16
 133 1050 133 1050 101 1095 c 0,17,18
 92 1106 92 1106 80.5 1116 c 128,-1,19
 69 1126 69 1126 51 1133.5 c 128,-1,20
 33 1141 33 1141 6 1145.5 c 128,-1,21
 -21 1150 -21 1150 -63 1150 c 1,22,-1
 -67 1193 l 1,23,24
 -8 1201 -8 1201 51 1207.5 c 128,-1,25
 110 1214 110 1214 152 1214 c 0,26,27
 198 1214 198 1214 230 1175 c 1,28,29
 267 1127 267 1127 301 1076 c 128,-1,30
 335 1025 335 1025 367 969 c 128,-1,31
 399 913 399 913 431.5 850.5 c 128,-1,32
 464 788 464 788 499 716 c 1,33,-1
 713 1095 l 2,34,35
 728 1121 728 1121 703.5 1136 c 128,-1,36
 679 1151 679 1151 602 1161 c 1,37,-1
 602 1204 l 1,38,-1
 998 1204 l 1,39,-1
 998 1161 l 1,40,41
 929 1148 929 1148 892.5 1134.5 c 128,-1,42
 856 1121 856 1121 842 1095 c 2,43,-1
 560 578 l 1,44,-1
 560 527 l 1,45,-1
 831 527 l 1,46,-1
 856 504 l 1,47,-1
 831 436 l 1,48,-1
 560 436 l 1,49,-1
 560 115 l 2,50,51
 560 109 560 109 568.5 100.5 c 128,-1,52
 577 92 577 92 596.5 82 c 128,-1,53
 616 72 616 72 647.5 62 c 128,-1,54
 679 52 679 52 726 43 c 1,55,-1
 726 0 l 1,56,-1
 236 0 l 1,0,-1
EndSplineSet
EndChar

StartChar: section
Encoding: 167 167 101
Width: 961
Flags: W
LayerCount: 2
Fore
SplineSet
538 529 m 0,0,1
 564 515 564 515 590.5 501.5 c 128,-1,2
 617 488 617 488 642 473 c 1,3,4
 674 493 674 493 692.5 524.5 c 128,-1,5
 711 556 711 556 711 594 c 0,6,7
 711 640 711 640 692.5 677.5 c 128,-1,8
 674 715 674 715 636 750.5 c 128,-1,9
 598 786 598 786 540.5 821.5 c 128,-1,10
 483 857 483 857 405 899 c 0,11,12
 382 911 382 911 361 924.5 c 128,-1,13
 340 938 340 938 320 952 c 1,14,15
 302 946 302 946 289 931 c 128,-1,16
 276 916 276 916 267.5 897 c 128,-1,17
 259 878 259 878 254.5 858 c 128,-1,18
 250 838 250 838 250 822 c 0,19,20
 250 776 250 776 267 740.5 c 128,-1,21
 284 705 284 705 319 672.5 c 128,-1,22
 354 640 354 640 408.5 606 c 128,-1,23
 463 572 463 572 538 529 c 0,0,1
842 656 m 0,24,25
 842 612 842 612 832.5 574 c 128,-1,26
 823 536 823 536 806.5 504.5 c 128,-1,27
 790 473 790 473 769 449 c 128,-1,28
 748 425 748 425 726 408 c 1,29,30
 752 380 752 380 767.5 345 c 128,-1,31
 783 310 783 310 783 263 c 0,32,33
 783 192 783 192 763 143 c 128,-1,34
 743 94 743 94 711 61.5 c 128,-1,35
 679 29 679 29 640 10.5 c 128,-1,36
 601 -8 601 -8 563 -17 c 128,-1,37
 525 -26 525 -26 491.5 -28 c 128,-1,38
 458 -30 458 -30 439 -30 c 0,39,40
 415 -30 415 -30 385.5 -24 c 128,-1,41
 356 -18 356 -18 323.5 -7 c 128,-1,42
 291 4 291 4 256.5 19.5 c 128,-1,43
 222 35 222 35 189 53 c 0,44,45
 182 56 182 56 179.5 85.5 c 128,-1,46
 177 115 177 115 178.5 153.5 c 128,-1,47
 180 192 180 192 184.5 231 c 128,-1,48
 189 270 189 270 196 293 c 1,49,-1
 239 282 l 1,50,51
 241 240 241 240 261 201.5 c 128,-1,52
 281 163 281 163 314.5 133 c 128,-1,53
 348 103 348 103 392.5 85.5 c 128,-1,54
 437 68 437 68 489 68 c 0,55,56
 561 68 561 68 607 102 c 128,-1,57
 653 136 653 136 653 207 c 0,58,59
 653 247 653 247 631.5 276 c 128,-1,60
 610 305 610 305 574.5 328.5 c 128,-1,61
 539 352 539 352 494.5 373 c 128,-1,62
 450 394 450 394 405 419 c 0,63,64
 339 455 339 455 286 491.5 c 128,-1,65
 233 528 233 528 196 569.5 c 128,-1,66
 159 611 159 611 139 661 c 128,-1,67
 119 711 119 711 119 775 c 0,68,69
 119 812 119 812 130.5 846.5 c 128,-1,70
 142 881 142 881 161.5 911.5 c 128,-1,71
 181 942 181 942 206.5 966.5 c 128,-1,72
 232 991 232 991 260 1009 c 1,73,74
 225 1049 225 1049 206 1096 c 128,-1,75
 187 1143 187 1143 187 1200 c 0,76,77
 187 1262 187 1262 212 1307.5 c 128,-1,78
 237 1353 237 1353 278.5 1382.5 c 128,-1,79
 320 1412 320 1412 373.5 1426 c 128,-1,80
 427 1440 427 1440 484 1440 c 0,81,82
 515 1440 515 1440 552.5 1433 c 128,-1,83
 590 1426 590 1426 626.5 1414 c 128,-1,84
 663 1402 663 1402 695 1386.5 c 128,-1,85
 727 1371 727 1371 747 1353 c 0,86,87
 753 1347 753 1347 748.5 1326 c 128,-1,88
 744 1305 744 1305 734.5 1280 c 128,-1,89
 725 1255 725 1255 714 1233 c 128,-1,90
 703 1211 703 1211 697 1203 c 1,91,-1
 658 1211 l 1,92,93
 610 1283 610 1283 558.5 1316.5 c 128,-1,94
 507 1350 507 1350 458 1350 c 0,95,96
 392 1350 392 1350 354.5 1321.5 c 128,-1,97
 317 1293 317 1293 317 1240 c 0,98,99
 317 1205 317 1205 331 1176.5 c 128,-1,100
 345 1148 345 1148 372.5 1121 c 128,-1,101
 400 1094 400 1094 441.5 1067 c 128,-1,102
 483 1040 483 1040 538 1009 c 0,103,104
 605 971 605 971 660.5 936.5 c 128,-1,105
 716 902 716 902 756.5 862.5 c 128,-1,106
 797 823 797 823 819.5 774 c 128,-1,107
 842 725 842 725 842 656 c 0,24,25
EndSplineSet
EndChar

StartChar: dieresis
Encoding: 168 168 102
Width: 801
Flags: W
LayerCount: 2
Fore
SplineSet
700 1261 m 0,0,1
 700 1233 700 1233 691 1208 c 128,-1,2
 682 1183 682 1183 666.5 1164.5 c 128,-1,3
 651 1146 651 1146 630 1135 c 128,-1,4
 609 1124 609 1124 584 1124 c 0,5,6
 539 1124 539 1124 519.5 1149 c 128,-1,7
 500 1174 500 1174 500 1220 c 0,8,9
 500 1248 500 1248 509 1273 c 128,-1,10
 518 1298 518 1298 534 1316.5 c 128,-1,11
 550 1335 550 1335 570.5 1345.5 c 128,-1,12
 591 1356 591 1356 615 1356 c 0,13,14
 700 1356 700 1356 700 1261 c 0,0,1
300 1261 m 0,15,16
 300 1233 300 1233 291 1208 c 128,-1,17
 282 1183 282 1183 266.5 1164.5 c 128,-1,18
 251 1146 251 1146 230 1135 c 128,-1,19
 209 1124 209 1124 184 1124 c 0,20,21
 139 1124 139 1124 119.5 1149 c 128,-1,22
 100 1174 100 1174 100 1220 c 0,23,24
 100 1248 100 1248 109 1273 c 128,-1,25
 118 1298 118 1298 134 1316.5 c 128,-1,26
 150 1335 150 1335 170.5 1345.5 c 128,-1,27
 191 1356 191 1356 215 1356 c 0,28,29
 300 1356 300 1356 300 1261 c 0,15,16
EndSplineSet
EndChar

StartChar: copyright
Encoding: 169 169 103
Width: 1460
Flags: W
LayerCount: 2
Fore
SplineSet
1018 369 m 1,0,1
 973 326 973 326 932.5 297 c 128,-1,2
 892 268 892 268 854 250 c 128,-1,3
 816 232 816 232 779.5 224.5 c 128,-1,4
 743 217 743 217 707 217 c 0,5,6
 642 217 642 217 579.5 243 c 128,-1,7
 517 269 517 269 468 318.5 c 128,-1,8
 419 368 419 368 388.5 439.5 c 128,-1,9
 358 511 358 511 358 602 c 0,10,11
 358 702 358 702 391.5 784 c 128,-1,12
 425 866 425 866 483 923.5 c 128,-1,13
 541 981 541 981 617.5 1012.5 c 128,-1,14
 694 1044 694 1044 780 1044 c 0,15,16
 856 1044 856 1044 912 1025.5 c 128,-1,17
 968 1007 968 1007 1006 981 c 0,18,19
 1010 978 1010 978 1003.5 965 c 128,-1,20
 997 952 997 952 986.5 936 c 128,-1,21
 976 920 976 920 963.5 905 c 128,-1,22
 951 890 951 890 942 883 c 1,23,-1
 918 887 l 1,24,25
 882 915 882 915 837 939 c 128,-1,26
 792 963 792 963 731 963 c 0,27,28
 699 963 699 963 657 947 c 128,-1,29
 615 931 615 931 577.5 892.5 c 128,-1,30
 540 854 540 854 514.5 789 c 128,-1,31
 489 724 489 724 489 627 c 0,32,33
 489 547 489 547 518.5 487 c 128,-1,34
 548 427 548 427 592.5 386.5 c 128,-1,35
 637 346 637 346 687.5 325.5 c 128,-1,36
 738 305 738 305 780 305 c 0,37,38
 802 305 802 305 823 309 c 128,-1,39
 844 313 844 313 869 323 c 128,-1,40
 894 333 894 333 923.5 351 c 128,-1,41
 953 369 953 369 991 397 c 1,42,43
 999 394 999 394 1006 383 c 128,-1,44
 1013 372 1013 372 1018 369 c 1,0,1
1274 631 m 0,45,46
 1274 749 1274 749 1233.5 853.5 c 128,-1,47
 1193 958 1193 958 1120.5 1036 c 128,-1,48
 1048 1114 1048 1114 948 1159 c 128,-1,49
 848 1204 848 1204 729 1204 c 0,50,51
 611 1204 611 1204 511.5 1159 c 128,-1,52
 412 1114 412 1114 339.5 1036 c 128,-1,53
 267 958 267 958 226.5 853.5 c 128,-1,54
 186 749 186 749 186 631 c 0,55,56
 186 512 186 512 226.5 407 c 128,-1,57
 267 302 267 302 339.5 224 c 128,-1,58
 412 146 412 146 511.5 101 c 128,-1,59
 611 56 611 56 729 56 c 0,60,61
 848 56 848 56 948 101 c 128,-1,62
 1048 146 1048 146 1120.5 224 c 128,-1,63
 1193 302 1193 302 1233.5 407 c 128,-1,64
 1274 512 1274 512 1274 631 c 0,45,46
1360 631 m 256,65,66
 1360 540 1360 540 1338.5 455.5 c 128,-1,67
 1317 371 1317 371 1277.5 297.5 c 128,-1,68
 1238 224 1238 224 1181.5 163.5 c 128,-1,69
 1125 103 1125 103 1055 60 c 128,-1,70
 985 17 985 17 902.5 -6.5 c 128,-1,71
 820 -30 820 -30 729 -30 c 0,72,73
 592 -30 592 -30 477 22 c 128,-1,74
 362 74 362 74 278 163.5 c 128,-1,75
 194 253 194 253 147 373.5 c 128,-1,76
 100 494 100 494 100 631 c 0,77,78
 100 767 100 767 147 887.5 c 128,-1,79
 194 1008 194 1008 278 1097 c 128,-1,80
 362 1186 362 1186 477 1238 c 128,-1,81
 592 1290 592 1290 729 1290 c 0,82,83
 820 1290 820 1290 902.5 1266.5 c 128,-1,84
 985 1243 985 1243 1055 1200 c 128,-1,85
 1125 1157 1125 1157 1181.5 1097 c 128,-1,86
 1238 1037 1238 1037 1277.5 963.5 c 128,-1,87
 1317 890 1317 890 1338.5 806 c 128,-1,88
 1360 722 1360 722 1360 631 c 256,65,66
EndSplineSet
EndChar

StartChar: ordfeminine
Encoding: 170 170 104
Width: 524
Flags: W
LayerCount: 2
Fore
SplineSet
338 846 m 1,0,-1
 338 992 l 1,1,-1
 295 981 l 2,2,3
 251 969 251 969 222.5 954.5 c 128,-1,4
 194 940 194 940 177 923.5 c 128,-1,5
 160 907 160 907 153.5 888 c 128,-1,6
 147 869 147 869 147 848 c 256,7,8
 147 827 147 827 152.5 814 c 128,-1,9
 158 801 158 801 166 793.5 c 128,-1,10
 174 786 174 786 183 783 c 128,-1,11
 192 780 192 780 199 780 c 0,12,13
 230 780 230 780 265 794.5 c 128,-1,14
 300 809 300 809 338 840 c 1,15,-1
 338 846 l 1,0,-1
51 586 m 1,16,-1
 51 659 l 1,17,-1
 485 659 l 1,18,-1
 485 586 l 1,19,-1
 51 586 l 1,16,-1
514 768 m 1,20,21
 468 737 468 737 437.5 724 c 128,-1,22
 407 711 407 711 391 711 c 0,23,24
 377 711 377 711 362.5 731 c 128,-1,25
 348 751 348 751 341 794 c 1,26,27
 293 749 293 749 246.5 730 c 128,-1,28
 200 711 200 711 166 711 c 0,29,30
 146 711 146 711 125.5 717 c 128,-1,31
 105 723 105 723 88 736.5 c 128,-1,32
 71 750 71 750 60 771.5 c 128,-1,33
 49 793 49 793 49 825 c 0,34,35
 49 887 49 887 96.5 934.5 c 128,-1,36
 144 982 144 982 246 1010 c 1,37,-1
 338 1034 l 1,38,-1
 338 1051 l 2,39,40
 338 1082 338 1082 334.5 1105.5 c 128,-1,41
 331 1129 331 1129 322 1145 c 128,-1,42
 313 1161 313 1161 296 1169.5 c 128,-1,43
 279 1178 279 1178 252 1178 c 0,44,45
 237 1178 237 1178 221 1171 c 128,-1,46
 205 1164 205 1164 193 1151.5 c 128,-1,47
 181 1139 181 1139 175.5 1121.5 c 128,-1,48
 170 1104 170 1104 178 1083 c 0,49,50
 179 1078 179 1078 165.5 1072.5 c 128,-1,51
 152 1067 152 1067 134 1062.5 c 128,-1,52
 116 1058 116 1058 98.5 1055.5 c 128,-1,53
 81 1053 81 1053 74 1055 c 1,54,-1
 66 1075 l 1,55,56
 70 1106 70 1106 97.5 1135 c 128,-1,57
 125 1164 125 1164 161 1186.5 c 128,-1,58
 197 1209 197 1209 235 1222 c 128,-1,59
 273 1235 273 1235 299 1235 c 0,60,61
 335 1235 335 1235 360 1225 c 128,-1,62
 385 1215 385 1215 400.5 1192 c 128,-1,63
 416 1169 416 1169 423 1131 c 128,-1,64
 430 1093 430 1093 430 1038 c 2,65,-1
 430 842 l 2,66,67
 430 814 430 814 434 801.5 c 128,-1,68
 438 789 438 789 444 782 c 1,69,70
 449 779 449 779 464.5 780.5 c 128,-1,71
 480 782 480 782 508 793 c 1,72,-1
 514 768 l 1,73,-1
 514 768 l 1,20,21
EndSplineSet
EndChar

StartChar: guillemotleft
Encoding: 171 171 105
Width: 994
Flags: W
LayerCount: 2
Fore
SplineSet
80 430 m 1,0,1
 80 430 80 430 80 441 c 256,2,3
 80 452 80 452 80 465 c 0,4,5
 80 479 80 479 80.5 490.5 c 128,-1,6
 81 502 81 502 82 503 c 2,7,-1
 441 913 l 1,8,-1
 483 883 l 1,9,10
 483 883 483 883 473 865 c 128,-1,11
 463 847 463 847 447 817.5 c 128,-1,12
 431 788 431 788 410 750.5 c 128,-1,13
 389 713 389 713 367 674 c 128,-1,14
 345 635 345 635 324.5 597.5 c 128,-1,15
 304 560 304 560 288 531 c 128,-1,16
 272 502 272 502 262 484.5 c 128,-1,17
 252 467 252 467 253 467 c 2,18,-1
 484 47 l 1,19,-1
 441 17 l 1,20,-1
 80 430 l 1,0,1
450 430 m 1,21,22
 450 430 450 430 450 441 c 256,23,24
 450 452 450 452 450 465 c 0,25,26
 450 479 450 479 450.5 490.5 c 128,-1,27
 451 502 451 502 452 503 c 2,28,-1
 811 913 l 1,29,-1
 853 883 l 1,30,31
 853 883 853 883 843 865 c 128,-1,32
 833 847 833 847 817 817.5 c 128,-1,33
 801 788 801 788 780 750.5 c 128,-1,34
 759 713 759 713 737 674 c 128,-1,35
 715 635 715 635 694.5 597.5 c 128,-1,36
 674 560 674 560 658 531 c 128,-1,37
 642 502 642 502 632 484.5 c 128,-1,38
 622 467 622 467 623 467 c 2,39,-1
 854 47 l 1,40,-1
 811 17 l 1,41,-1
 450 430 l 1,21,22
EndSplineSet
EndChar

StartChar: logicalnot
Encoding: 172 172 106
Width: 961
Flags: W
LayerCount: 2
Fore
SplineSet
891 233 m 1,0,1
 871 218 871 218 850.5 204 c 128,-1,2
 830 190 830 190 805 182 c 1,3,-1
 780 207 l 1,4,-1
 780 506 l 1,5,-1
 86 506 l 1,6,-1
 61 530 l 1,7,8
 66 550 66 550 74.5 574 c 128,-1,9
 83 598 83 598 92 618 c 1,10,-1
 862 618 l 1,11,-1
 891 596 l 1,12,-1
 891 233 l 1,13,-1
 891 233 l 1,0,1
EndSplineSet
EndChar

StartChar: registered
Encoding: 174 174 107
Width: 730
Flags: W
LayerCount: 2
Fore
SplineSet
336 1256 m 0,0,1
 330 1256 330 1256 324 1256 c 0,2,3
 319 1256 319 1256 313 1255 c 1,4,-1
 313 1109 l 1,5,6
 321 1107 321 1107 326 1107 c 0,7,8
 332 1107 332 1107 340 1107 c 0,9,10
 391 1107 391 1107 414.5 1128 c 128,-1,11
 438 1149 438 1149 438 1187 c 0,12,13
 438 1216 438 1216 415.5 1236 c 128,-1,14
 393 1256 393 1256 336 1256 c 0,0,1
214 887 m 1,15,-1
 214 905 l 1,16,17
 258 914 258 914 258 924 c 2,18,-1
 258 1250 l 1,19,20
 247 1248 247 1248 236 1247 c 128,-1,21
 225 1246 225 1246 214 1244 c 1,22,-1
 212 1273 l 1,23,24
 241 1280 241 1280 273 1285.5 c 128,-1,25
 305 1291 305 1291 347 1291 c 0,26,27
 422 1291 422 1291 460.5 1264 c 128,-1,28
 499 1237 499 1237 499 1196 c 0,29,30
 499 1149 499 1149 471 1118.5 c 128,-1,31
 443 1088 443 1088 399 1077 c 1,32,-1
 502 934 l 2,33,34
 509 923 509 923 520.5 920 c 128,-1,35
 532 917 532 917 554 919 c 1,36,-1
 556 898 l 1,37,38
 536 892 536 892 514.5 886.5 c 128,-1,39
 493 881 493 881 482 881 c 0,40,41
 473 881 473 881 464 887 c 128,-1,42
 455 893 455 893 451 899 c 2,43,-1
 346 1070 l 1,44,-1
 344 1070 l 2,45,46
 329 1070 329 1070 313 1073 c 1,47,-1
 313 924 l 2,48,49
 313 914 313 914 356 905 c 1,50,-1
 356 887 l 1,51,-1
 214 887 l 1,15,-1
637 1084 m 0,52,53
 637 1143 637 1143 616.5 1195.5 c 128,-1,54
 596 1248 596 1248 560 1287 c 128,-1,55
 524 1326 524 1326 474 1348.5 c 128,-1,56
 424 1371 424 1371 364 1371 c 0,57,58
 305 1371 305 1371 255.5 1348.5 c 128,-1,59
 206 1326 206 1326 170 1287 c 128,-1,60
 134 1248 134 1248 113.5 1195.5 c 128,-1,61
 93 1143 93 1143 93 1084 c 0,62,63
 93 1024 93 1024 113.5 972 c 128,-1,64
 134 920 134 920 170 881 c 128,-1,65
 206 842 206 842 255.5 819.5 c 128,-1,66
 305 797 305 797 364 797 c 0,67,68
 424 797 424 797 474 819.5 c 128,-1,69
 524 842 524 842 560 881 c 128,-1,70
 596 920 596 920 616.5 972 c 128,-1,71
 637 1024 637 1024 637 1084 c 0,52,53
696 1084 m 256,72,73
 696 1012 696 1012 671 949 c 128,-1,74
 646 886 646 886 602 839 c 128,-1,75
 558 792 558 792 497 765 c 128,-1,76
 436 738 436 738 364 738 c 256,77,78
 292 738 292 738 232 765 c 128,-1,79
 172 792 172 792 128 839 c 128,-1,80
 84 886 84 886 59.5 949 c 128,-1,81
 35 1012 35 1012 35 1084 c 256,82,83
 35 1156 35 1156 59.5 1219 c 128,-1,84
 84 1282 84 1282 128 1329 c 128,-1,85
 172 1376 172 1376 232 1403 c 128,-1,86
 292 1430 292 1430 364 1430 c 256,87,88
 436 1430 436 1430 497 1403 c 128,-1,89
 558 1376 558 1376 602 1329 c 128,-1,90
 646 1282 646 1282 671 1219 c 128,-1,91
 696 1156 696 1156 696 1084 c 256,72,73
EndSplineSet
EndChar

StartChar: macron
Encoding: 175 175 108
Width: 1010
Flags: W
LayerCount: 2
Fore
SplineSet
843 1281 m 1,0,1
 841 1270 841 1270 836 1255.5 c 128,-1,2
 831 1241 831 1241 825 1226.5 c 128,-1,3
 819 1212 819 1212 813.5 1198 c 128,-1,4
 808 1184 808 1184 804 1175 c 1,5,-1
 189 1175 l 1,6,-1
 167 1200 l 1,7,8
 169 1211 169 1211 174 1225 c 128,-1,9
 179 1239 179 1239 185 1253.5 c 128,-1,10
 191 1268 191 1268 197 1281.5 c 128,-1,11
 203 1295 203 1295 208 1305 c 1,12,-1
 821 1305 l 1,13,-1
 843 1281 l 1,14,-1
 843 1281 l 1,0,1
EndSplineSet
EndChar

StartChar: degree
Encoding: 176 176 109
Width: 733
Flags: W
LayerCount: 2
Fore
SplineSet
484 995 m 0,0,1
 484 1024 484 1024 476.5 1050.5 c 128,-1,2
 469 1077 469 1077 455.5 1097.5 c 128,-1,3
 442 1118 442 1118 422 1130 c 128,-1,4
 402 1142 402 1142 378 1142 c 0,5,6
 353 1142 353 1142 330 1132 c 128,-1,7
 307 1122 307 1122 289 1103 c 128,-1,8
 271 1084 271 1084 260.5 1057.5 c 128,-1,9
 250 1031 250 1031 250 998 c 0,10,11
 250 970 250 970 257 943.5 c 128,-1,12
 264 917 264 917 277.5 896.5 c 128,-1,13
 291 876 291 876 310.5 863.5 c 128,-1,14
 330 851 330 851 355 851 c 0,15,16
 379 851 379 851 402 860.5 c 128,-1,17
 425 870 425 870 443.5 888.5 c 128,-1,18
 462 907 462 907 473 933.5 c 128,-1,19
 484 960 484 960 484 995 c 0,0,1
593 1045 m 0,20,21
 593 983 593 983 569 931 c 128,-1,22
 545 879 545 879 507 840.5 c 128,-1,23
 469 802 469 802 422 780.5 c 128,-1,24
 375 759 375 759 329 759 c 0,25,26
 288 759 288 759 253 774 c 128,-1,27
 218 789 218 789 193 815 c 128,-1,28
 168 841 168 841 154 875 c 128,-1,29
 140 909 140 909 140 948 c 0,30,31
 140 1010 140 1010 163.5 1062.5 c 128,-1,32
 187 1115 187 1115 225 1153.5 c 128,-1,33
 263 1192 263 1192 310 1213.5 c 128,-1,34
 357 1235 357 1235 404 1235 c 0,35,36
 443 1235 443 1235 477.5 1219.5 c 128,-1,37
 512 1204 512 1204 537.5 1178 c 128,-1,38
 563 1152 563 1152 578 1117.5 c 128,-1,39
 593 1083 593 1083 593 1045 c 0,20,21
EndSplineSet
EndChar

StartChar: plusminus
Encoding: 177 177 110
Width: 840
Flags: W
LayerCount: 2
Fore
SplineSet
778 217 m 1,0,1
 773 197 773 197 764.5 171.5 c 128,-1,2
 756 146 756 146 748 129 c 1,3,-1
 86 129 l 1,4,-1
 61 153 l 1,5,6
 66 173 66 173 74.5 197 c 128,-1,7
 83 221 83 221 92 241 c 1,8,-1
 754 241 l 1,9,-1
 778 217 l 1,10,-1
 778 217 l 1,0,1
477 366 m 1,11,12
 457 356 457 356 433 348 c 128,-1,13
 409 340 409 340 387 335 c 1,14,-1
 362 357 l 1,15,-1
 362 636 l 1,16,-1
 86 636 l 1,17,-1
 61 660 l 1,18,19
 66 680 66 680 74.5 704 c 128,-1,20
 83 728 83 728 92 748 c 1,21,-1
 362 748 l 1,22,-1
 362 1021 l 1,23,24
 381 1027 381 1027 406 1036 c 128,-1,25
 431 1045 431 1045 453 1050 c 1,26,-1
 477 1027 l 1,27,-1
 477 748 l 1,28,-1
 754 748 l 1,29,-1
 778 724 l 1,30,31
 773 704 773 704 764.5 678.5 c 128,-1,32
 756 653 756 653 748 636 c 1,33,-1
 477 636 l 1,34,-1
 477 366 l 1,35,-1
 477 366 l 1,11,12
EndSplineSet
EndChar

StartChar: acute
Encoding: 180 180 111
Width: 653
Flags: W
LayerCount: 2
Fore
SplineSet
274 1047 m 1,0,1
 256 1051 256 1051 242.5 1058.5 c 128,-1,2
 229 1066 229 1066 217 1075 c 1,3,-1
 451 1489 l 1,4,5
 463 1488 463 1488 483 1485.5 c 128,-1,6
 503 1483 503 1483 524.5 1479.5 c 128,-1,7
 546 1476 546 1476 565.5 1472.5 c 128,-1,8
 585 1469 585 1469 596 1466 c 1,9,-1
 619 1427 l 1,10,-1
 274 1047 l 1,0,1
EndSplineSet
EndChar

StartChar: mu
Encoding: 181 181 112
Width: 1105
Flags: W
LayerCount: 2
Fore
SplineSet
1085 82 m 1,0,1
 1055 63 1055 63 1023 43 c 128,-1,2
 991 23 991 23 961 6.5 c 128,-1,3
 931 -10 931 -10 905.5 -20.5 c 128,-1,4
 880 -31 880 -31 863 -31 c 0,5,6
 842 -31 842 -31 827 -14 c 128,-1,7
 812 3 812 3 802 32 c 128,-1,8
 792 61 792 61 786.5 99 c 128,-1,9
 781 137 781 137 780 180 c 1,10,11
 699 75 699 75 623.5 22 c 128,-1,12
 548 -31 548 -31 490 -31 c 0,13,14
 431 -31 431 -31 374 9.5 c 128,-1,15
 317 50 317 50 273 122 c 1,16,-1
 273 116 l 1,17,18
 272 5 272 5 283.5 -82 c 128,-1,19
 295 -169 295 -169 314.5 -236 c 128,-1,20
 334 -303 334 -303 359.5 -350.5 c 128,-1,21
 385 -398 385 -398 411 -429 c 1,22,23
 396 -434 396 -434 370.5 -443.5 c 128,-1,24
 345 -453 345 -453 317.5 -463.5 c 128,-1,25
 290 -474 290 -474 265.5 -484 c 128,-1,26
 241 -494 241 -494 229 -500 c 1,27,-1
 190 -471 l 1,28,-1
 190 731 l 2,29,30
 190 770 190 770 187.5 792 c 128,-1,31
 185 814 185 814 172.5 826 c 128,-1,32
 160 838 160 838 134 843.5 c 128,-1,33
 108 849 108 849 61 854 c 1,34,-1
 61 894 l 1,35,36
 100 901 100 901 132.5 907 c 128,-1,37
 165 913 165 913 194 920.5 c 128,-1,38
 223 928 223 928 249.5 937 c 128,-1,39
 276 946 276 946 302 960 c 1,40,41
 302 960 302 960 306.5 955 c 128,-1,42
 311 950 311 950 317 943.5 c 128,-1,43
 323 937 323 937 329.5 929.5 c 128,-1,44
 336 922 336 922 340 917 c 1,45,-1
 340 366 l 2,46,47
 340 331 340 331 353 290 c 128,-1,48
 366 249 366 249 389.5 214 c 128,-1,49
 413 179 413 179 447 155 c 128,-1,50
 481 131 481 131 523 131 c 0,51,52
 550 131 550 131 578.5 136 c 128,-1,53
 607 141 607 141 638.5 157.5 c 128,-1,54
 670 174 670 174 705 204.5 c 128,-1,55
 740 235 740 235 780 287 c 1,56,-1
 780 748 l 2,57,58
 780 764 780 764 776.5 786.5 c 128,-1,59
 773 809 773 809 767.5 831 c 128,-1,60
 762 853 762 853 755.5 872 c 128,-1,61
 749 891 749 891 742 900 c 1,62,63
 786 912 786 912 831.5 927.5 c 128,-1,64
 877 943 877 943 918 960 c 1,65,-1
 946 921 l 1,66,67
 942 895 942 895 937 858.5 c 128,-1,68
 932 822 932 822 930 759 c 1,69,-1
 930 268 l 2,70,71
 930 175 930 175 939 137 c 128,-1,72
 948 99 948 99 969 99 c 0,73,74
 991 99 991 99 1016.5 106.5 c 128,-1,75
 1042 114 1042 114 1075 127 c 1,76,-1
 1085 82 l 1,0,1
EndSplineSet
EndChar

StartChar: paragraph
Encoding: 182 182 113
Width: 1135
Flags: W
LayerCount: 2
Fore
SplineSet
791 1159 m 1,0,1
 771 1166 771 1166 751 1171 c 128,-1,2
 731 1176 731 1176 711 1181 c 1,3,-1
 711 -145 l 2,4,5
 711 -156 711 -156 725.5 -164.5 c 128,-1,6
 740 -173 740 -173 750 -176 c 1,7,8
 762 -173 762 -173 776.5 -164.5 c 128,-1,9
 791 -156 791 -156 791 -145 c 2,10,-1
 791 1159 l 1,0,1
591 610 m 1,11,-1
 592 1200 l 1,12,13
 530 1206 530 1206 489 1206 c 0,14,15
 429 1206 429 1206 379 1185 c 128,-1,16
 329 1164 329 1164 292.5 1128 c 128,-1,17
 256 1092 256 1092 235.5 1043 c 128,-1,18
 215 994 215 994 215 938 c 0,19,20
 215 884 215 884 234 826 c 128,-1,21
 253 768 253 768 293.5 720 c 128,-1,22
 334 672 334 672 396.5 641 c 128,-1,23
 459 610 459 610 547 610 c 2,24,-1
 591 610 l 1,11,-1
444 -250 m 1,25,-1
 444 -207 l 1,26,27
 513 -193 513 -193 551.5 -176 c 128,-1,28
 590 -159 590 -159 590 -145 c 2,29,-1
 591 532 l 1,30,31
 573 529 573 529 552 527.5 c 128,-1,32
 531 526 531 526 504 526 c 0,33,34
 411 526 411 526 328.5 549.5 c 128,-1,35
 246 573 246 573 183.5 620.5 c 128,-1,36
 121 668 121 668 85 738.5 c 128,-1,37
 49 809 49 809 49 903 c 0,38,39
 49 988 49 988 82.5 1059 c 128,-1,40
 116 1130 116 1130 177 1181.5 c 128,-1,41
 238 1233 238 1233 322.5 1261.5 c 128,-1,42
 407 1290 407 1290 508 1290 c 0,43,44
 537 1290 537 1290 583.5 1288 c 128,-1,45
 630 1286 630 1286 683 1282.5 c 128,-1,46
 736 1279 736 1279 789.5 1275 c 128,-1,47
 843 1271 843 1271 886 1267.5 c 128,-1,48
 929 1264 929 1264 956 1262 c 128,-1,49
 983 1260 983 1260 983 1260 c 1,50,-1
 1055 1260 l 1,51,-1
 1055 1217 l 1,52,53
 987 1203 987 1203 948 1186 c 128,-1,54
 909 1169 909 1169 909 1155 c 2,55,-1
 909 -145 l 2,56,57
 909 -158 909 -158 945.5 -175.5 c 128,-1,58
 982 -193 982 -193 1055 -207 c 1,59,-1
 1055 -250 l 1,60,-1
 444 -250 l 1,25,-1
EndSplineSet
EndChar

StartChar: periodcentered
Encoding: 183 183 114
Width: 300
Flags: W
LayerCount: 2
Fore
SplineSet
250 721 m 0,0,1
 250 693 250 693 241 668 c 128,-1,2
 232 643 232 643 216.5 624.5 c 128,-1,3
 201 606 201 606 180 595 c 128,-1,4
 159 584 159 584 134 584 c 0,5,6
 89 584 89 584 69.5 609 c 128,-1,7
 50 634 50 634 50 680 c 0,8,9
 50 708 50 708 59 733 c 128,-1,10
 68 758 68 758 84 776.5 c 128,-1,11
 100 795 100 795 120.5 805.5 c 128,-1,12
 141 816 141 816 165 816 c 0,13,14
 250 816 250 816 250 721 c 0,0,1
EndSplineSet
EndChar

StartChar: cedilla
Encoding: 184 184 115
Width: 469
Flags: W
LayerCount: 2
Fore
SplineSet
408 -229 m 0,0,1
 408 -266 408 -266 390.5 -300 c 128,-1,2
 373 -334 373 -334 336 -362 c 128,-1,3
 299 -390 299 -390 240.5 -411 c 128,-1,4
 182 -432 182 -432 100 -444 c 1,5,-1
 78 -395 l 1,6,7
 130 -386 130 -386 166.5 -372.5 c 128,-1,8
 203 -359 203 -359 226 -343 c 128,-1,9
 249 -327 249 -327 259.5 -309.5 c 128,-1,10
 270 -292 270 -292 270 -276 c 0,11,12
 270 -242 270 -242 244 -228.5 c 128,-1,13
 218 -215 218 -215 156 -209 c 1,14,15
 156 -209 156 -209 157.5 -205.5 c 128,-1,16
 159 -202 159 -202 166 -181 c 128,-1,17
 173 -160 173 -160 187.5 -115 c 128,-1,18
 202 -70 202 -70 229 14 c 1,19,-1
 307 12 l 1,20,-1
 268 -104 l 1,21,22
 294 -110 294 -110 319.5 -119.5 c 128,-1,23
 345 -129 345 -129 364.5 -144 c 128,-1,24
 384 -159 384 -159 396 -180 c 128,-1,25
 408 -201 408 -201 408 -229 c 0,0,1
EndSplineSet
EndChar

StartChar: ordmasculine
Encoding: 186 186 116
Width: 578
Flags: W
LayerCount: 2
Fore
SplineSet
61 586 m 1,0,-1
 61 659 l 1,1,-1
 516 659 l 1,2,-1
 516 586 l 1,3,-1
 61 586 l 1,0,-1
434 967 m 256,4,5
 434 1009 434 1009 421 1047 c 128,-1,6
 408 1085 408 1085 386 1113.5 c 128,-1,7
 364 1142 364 1142 334.5 1159 c 128,-1,8
 305 1176 305 1176 272 1176 c 0,9,10
 242 1176 242 1176 218.5 1161 c 128,-1,11
 195 1146 195 1146 178 1119 c 128,-1,12
 161 1092 161 1092 152 1055.5 c 128,-1,13
 143 1019 143 1019 143 977 c 256,14,15
 143 935 143 935 157 897 c 128,-1,16
 171 859 171 859 193.5 830.5 c 128,-1,17
 216 802 216 802 245 785 c 128,-1,18
 274 768 274 768 305 768 c 0,19,20
 332 768 332 768 355.5 783 c 128,-1,21
 379 798 379 798 396.5 825 c 128,-1,22
 414 852 414 852 424 888.5 c 128,-1,23
 434 925 434 925 434 967 c 256,4,5
528 983 m 0,24,25
 528 932 528 932 505.5 883 c 128,-1,26
 483 834 483 834 447 795.5 c 128,-1,27
 411 757 411 757 365 734 c 128,-1,28
 319 711 319 711 272 711 c 0,29,30
 222 711 222 711 181 730 c 128,-1,31
 140 749 140 749 110.5 782.5 c 128,-1,32
 81 816 81 816 65 862 c 128,-1,33
 49 908 49 908 49 963 c 0,34,35
 49 1015 49 1015 69 1064 c 128,-1,36
 89 1113 89 1113 124 1151 c 128,-1,37
 159 1189 159 1189 205.5 1212 c 128,-1,38
 252 1235 252 1235 305 1235 c 0,39,40
 353 1235 353 1235 394 1216 c 128,-1,41
 435 1197 435 1197 465 1163.5 c 128,-1,42
 495 1130 495 1130 511.5 1083.5 c 128,-1,43
 528 1037 528 1037 528 983 c 0,24,25
EndSplineSet
EndChar

StartChar: guillemotright
Encoding: 187 187 117
Width: 994
Flags: W
LayerCount: 2
Fore
SplineSet
183 17 m 1,0,-1
 140 47 l 1,1,-1
 371 467 l 2,2,3
 372 467 372 467 362 484.5 c 128,-1,4
 352 502 352 502 336 531 c 128,-1,5
 320 560 320 560 299 597.5 c 128,-1,6
 278 635 278 635 256.5 674 c 128,-1,7
 235 713 235 713 214 750.5 c 128,-1,8
 193 788 193 788 177 817.5 c 128,-1,9
 161 847 161 847 151 865 c 128,-1,10
 141 883 141 883 141 883 c 1,11,-1
 183 913 l 1,12,-1
 542 503 l 2,13,14
 543 502 543 502 543.5 490.5 c 128,-1,15
 544 479 544 479 544 465 c 0,16,17
 544 452 544 452 544 441 c 256,18,19
 544 430 544 430 544 430 c 1,20,-1
 183 17 l 1,0,-1
553 17 m 1,21,-1
 510 47 l 1,22,-1
 741 467 l 2,23,24
 742 467 742 467 732 484.5 c 128,-1,25
 722 502 722 502 706 531 c 128,-1,26
 690 560 690 560 669 597.5 c 128,-1,27
 648 635 648 635 626.5 674 c 128,-1,28
 605 713 605 713 584 750.5 c 128,-1,29
 563 788 563 788 547 817.5 c 128,-1,30
 531 847 531 847 521 865 c 128,-1,31
 511 883 511 883 511 883 c 1,32,-1
 553 913 l 1,33,-1
 912 503 l 2,34,35
 913 502 913 502 913.5 490.5 c 128,-1,36
 914 479 914 479 914 465 c 0,37,38
 914 452 914 452 914 441 c 256,39,40
 914 430 914 430 914 430 c 1,41,-1
 553 17 l 1,21,-1
EndSplineSet
EndChar

StartChar: questiondown
Encoding: 191 191 118
Width: 887
Flags: W
LayerCount: 2
Fore
SplineSet
586 848 m 0,0,1
 586 814 586 814 575 784.5 c 128,-1,2
 564 755 564 755 544.5 732.5 c 128,-1,3
 525 710 525 710 499.5 697 c 128,-1,4
 474 684 474 684 446 684 c 0,5,6
 395 684 395 684 371.5 713.5 c 128,-1,7
 348 743 348 743 348 799 c 0,8,9
 348 833 348 833 358.5 862 c 128,-1,10
 369 891 369 891 387.5 913 c 128,-1,11
 406 935 406 935 431 947.5 c 128,-1,12
 456 960 456 960 485 960 c 0,13,14
 538 960 538 960 562 931 c 128,-1,15
 586 902 586 902 586 848 c 0,0,1
807 -233 m 0,16,17
 807 -304 807 -304 772.5 -363.5 c 128,-1,18
 738 -423 738 -423 679.5 -466.5 c 128,-1,19
 621 -510 621 -510 545 -534.5 c 128,-1,20
 469 -559 469 -559 385 -559 c 0,21,22
 311 -559 311 -559 254 -536 c 128,-1,23
 197 -513 197 -513 158.5 -471.5 c 128,-1,24
 120 -430 120 -430 100 -372.5 c 128,-1,25
 80 -315 80 -315 80 -246 c 0,26,27
 80 -171 80 -171 103.5 -110.5 c 128,-1,28
 127 -50 127 -50 163 2 c 128,-1,29
 199 54 199 54 241 102 c 128,-1,30
 283 150 283 150 321 200.5 c 128,-1,31
 359 251 359 251 386 307.5 c 128,-1,32
 413 364 413 364 418 434 c 2,33,-1
 424 530 l 1,34,35
 441 546 441 546 456.5 554.5 c 128,-1,36
 472 563 472 563 498 571 c 1,37,-1
 524 551 l 1,38,-1
 530 434 l 1,39,40
 534 377 534 377 514.5 321 c 128,-1,41
 495 265 495 265 463 210 c 128,-1,42
 431 155 431 155 393.5 102 c 128,-1,43
 356 49 356 49 323 -2.5 c 128,-1,44
 290 -54 290 -54 268 -103.5 c 128,-1,45
 246 -153 246 -153 246 -201 c 0,46,47
 246 -325 246 -325 302 -395 c 128,-1,48
 358 -465 358 -465 463 -465 c 0,49,50
 499 -465 499 -465 531.5 -448.5 c 128,-1,51
 564 -432 564 -432 589 -404.5 c 128,-1,52
 614 -377 614 -377 628.5 -341 c 128,-1,53
 643 -305 643 -305 643 -266 c 0,54,55
 643 -251 643 -251 639 -237 c 128,-1,56
 635 -223 635 -223 629 -209 c 1,57,58
 663 -190 663 -190 698 -181.5 c 128,-1,59
 733 -173 733 -173 778 -170 c 1,60,-1
 805 -201 l 1,61,62
 807 -209 807 -209 807 -217 c 256,63,64
 807 -225 807 -225 807 -233 c 0,16,17
EndSplineSet
EndChar

StartChar: AE
Encoding: 198 198 125
Width: 1595
Flags: W
LayerCount: 2
Fore
SplineSet
774 1147 m 2,0,1
 774 1158 774 1158 764.5 1163 c 128,-1,2
 755 1168 755 1168 742 1166.5 c 128,-1,3
 729 1165 729 1165 716 1156 c 128,-1,4
 703 1147 703 1147 696 1130 c 2,5,-1
 539 735 l 1,6,-1
 774 735 l 1,7,-1
 774 1147 l 2,0,1
1536 244 m 1,8,9
 1527 157 1527 157 1514 93 c 128,-1,10
 1501 29 1501 29 1493 0 c 1,11,-1
 631 0 l 1,12,-1
 631 43 l 1,13,14
 699 57 699 57 736.5 73.5 c 128,-1,15
 774 90 774 90 774 104 c 2,16,-1
 774 655 l 1,17,-1
 506 655 l 1,18,-1
 285 111 l 1,19,20
 272 82 272 82 303 67 c 128,-1,21
 334 52 334 52 416 43 c 1,22,-1
 416 0 l 1,23,-1
 0 0 l 1,24,-1
 0 43 l 1,25,26
 68 55 68 55 106.5 68.5 c 128,-1,27
 145 82 145 82 158 111 c 1,28,-1
 571 1133 l 2,29,30
 578 1150 578 1150 567.5 1161.5 c 128,-1,31
 557 1173 557 1173 532 1182.5 c 128,-1,32
 507 1192 507 1192 468.5 1200 c 128,-1,33
 430 1208 430 1208 381 1217 c 1,34,-1
 381 1260 l 1,35,-1
 1438 1260 l 1,36,-1
 1468 1235 l 1,37,38
 1466 1209 1466 1209 1462.5 1178 c 128,-1,39
 1459 1147 1459 1147 1453.5 1116 c 128,-1,40
 1448 1085 1448 1085 1441 1057 c 128,-1,41
 1434 1029 1434 1029 1427 1010 c 1,42,-1
 1382 1010 l 1,43,44
 1380 1056 1380 1056 1374 1086.5 c 128,-1,45
 1368 1117 1368 1117 1358 1135.5 c 128,-1,46
 1348 1154 1348 1154 1333.5 1161.5 c 128,-1,47
 1319 1169 1319 1169 1300 1169 c 2,48,-1
 934 1169 l 1,49,-1
 934 735 l 1,50,-1
 1339 735 l 1,51,-1
 1366 707 l 1,52,53
 1357 693 1357 693 1346 677.5 c 128,-1,54
 1335 662 1335 662 1322.5 647.5 c 128,-1,55
 1310 633 1310 633 1297.5 620.5 c 128,-1,56
 1285 608 1285 608 1274 600 c 1,57,58
 1259 615 1259 615 1242 625 c 128,-1,59
 1225 635 1225 635 1202 642 c 128,-1,60
 1179 649 1179 649 1148 652 c 128,-1,61
 1117 655 1117 655 1075 655 c 2,62,-1
 934 655 l 1,63,-1
 934 154 l 2,64,65
 934 139 934 139 941.5 127.5 c 128,-1,66
 949 116 949 116 971.5 107.5 c 128,-1,67
 994 99 994 99 1034.5 94.5 c 128,-1,68
 1075 90 1075 90 1141 90 c 2,69,-1
 1270 90 l 2,70,71
 1316 90 1316 90 1348.5 95 c 128,-1,72
 1381 100 1381 100 1405.5 117.5 c 128,-1,73
 1430 135 1430 135 1450 169 c 128,-1,74
 1470 203 1470 203 1491 262 c 1,75,-1
 1536 244 l 1,76,-1
 1536 244 l 1,8,9
EndSplineSet
EndChar

StartChar: Oslash
Encoding: 216 216 141
Width: 1229
Flags: W
LayerCount: 2
Fore
SplineSet
983 629 m 0,0,1
 983 718 983 718 963 802.5 c 128,-1,2
 943 887 943 887 905 959 c 1,3,-1
 377 203 l 1,4,5
 425 149 425 149 483 119.5 c 128,-1,6
 541 90 541 90 604 90 c 0,7,8
 687 90 687 90 756.5 124.5 c 128,-1,9
 826 159 826 159 876.5 227 c 128,-1,10
 927 295 927 295 955 396 c 128,-1,11
 983 497 983 497 983 629 c 0,0,1
225 641 m 0,12,13
 225 547 225 547 246 462 c 128,-1,14
 267 377 267 377 305 307 c 1,15,-1
 835 1063 l 1,16,17
 788 1116 788 1116 730 1146 c 128,-1,18
 672 1176 672 1176 604 1176 c 0,19,20
 515 1176 515 1176 444.5 1138 c 128,-1,21
 374 1100 374 1100 325.5 1030.5 c 128,-1,22
 277 961 277 961 251 862 c 128,-1,23
 225 763 225 763 225 641 c 0,12,13
1003 1099 m 1,24,25
 1071 1008 1071 1008 1105 890.5 c 128,-1,26
 1139 773 1139 773 1139 647 c 0,27,28
 1139 557 1139 557 1118.5 471.5 c 128,-1,29
 1098 386 1098 386 1060.5 310.5 c 128,-1,30
 1023 235 1023 235 971 172.5 c 128,-1,31
 919 110 919 110 856.5 65 c 128,-1,32
 794 20 794 20 722.5 -5 c 128,-1,33
 651 -30 651 -30 575 -30 c 0,34,35
 488 -30 488 -30 416.5 -2.5 c 128,-1,36
 345 25 345 25 286 74 c 1,37,-1
 233 -2 l 1,38,39
 224 -10 224 -10 207.5 -17.5 c 128,-1,40
 191 -25 191 -25 172 -31.5 c 128,-1,41
 153 -38 153 -38 134.5 -43.5 c 128,-1,42
 116 -49 116 -49 104 -53 c 1,43,-1
 76 -20 l 1,44,-1
 204 162 l 1,45,46
 138 252 138 252 104 368 c 128,-1,47
 70 484 70 484 70 612 c 0,48,49
 70 748 70 748 114 871 c 128,-1,50
 158 994 158 994 234 1087 c 128,-1,51
 310 1180 310 1180 412.5 1235 c 128,-1,52
 515 1290 515 1290 633 1290 c 0,53,54
 720 1290 720 1290 792 1262.5 c 128,-1,55
 864 1235 864 1235 921 1187 c 1,56,-1
 975 1264 l 1,57,58
 1003 1281 1003 1281 1037 1293 c 128,-1,59
 1071 1305 1071 1305 1102 1313 c 1,60,-1
 1130 1280 l 1,61,-1
 1003 1099 l 1,24,25
EndSplineSet
EndChar

StartChar: germandbls
Encoding: 223 223 146
Width: 1157
Flags: W
LayerCount: 2
Fore
SplineSet
1067 283 m 0,0,1
 1067 224 1067 224 1048 168 c 128,-1,2
 1029 112 1029 112 988 68 c 128,-1,3
 947 24 947 24 883 -3 c 128,-1,4
 819 -30 819 -30 729 -30 c 0,5,6
 701 -30 701 -30 660 -22.5 c 128,-1,7
 619 -15 619 -15 579 -4 c 128,-1,8
 539 7 539 7 507.5 21 c 128,-1,9
 476 35 476 35 469 47 c 0,10,11
 466 52 466 52 464.5 69.5 c 128,-1,12
 463 87 463 87 463 111 c 256,13,14
 463 135 463 135 464 162 c 128,-1,15
 465 189 465 189 467.5 214 c 128,-1,16
 470 239 470 239 474 257.5 c 128,-1,17
 478 276 478 276 483 283 c 1,18,-1
 522 270 l 1,19,20
 529 216 529 216 554 178 c 128,-1,21
 579 140 579 140 614 115.5 c 128,-1,22
 649 91 649 91 689.5 79.5 c 128,-1,23
 730 68 730 68 768 68 c 0,24,25
 803 68 803 68 834 79 c 128,-1,26
 865 90 865 90 887.5 109.5 c 128,-1,27
 910 129 910 129 923 156.5 c 128,-1,28
 936 184 936 184 936 217 c 0,29,30
 936 286 936 286 902.5 332 c 128,-1,31
 869 378 869 378 818.5 412.5 c 128,-1,32
 768 447 768 447 709.5 475 c 128,-1,33
 651 503 651 503 600.5 537 c 128,-1,34
 550 571 550 571 516.5 616 c 128,-1,35
 483 661 483 661 483 729 c 0,36,37
 483 796 483 796 507.5 838.5 c 128,-1,38
 532 881 532 881 569 908.5 c 128,-1,39
 606 936 606 936 649 955 c 128,-1,40
 692 974 692 974 729 995 c 128,-1,41
 766 1016 766 1016 790.5 1045 c 128,-1,42
 815 1074 815 1074 815 1122 c 0,43,44
 815 1173 815 1173 801 1227 c 128,-1,45
 787 1281 787 1281 757 1325.5 c 128,-1,46
 727 1370 727 1370 679.5 1398.5 c 128,-1,47
 632 1427 632 1427 565 1427 c 0,48,49
 517 1427 517 1427 476 1409 c 128,-1,50
 435 1391 435 1391 406 1345 c 128,-1,51
 377 1299 377 1299 360.5 1219.5 c 128,-1,52
 344 1140 344 1140 344 1016 c 2,53,-1
 344 0 l 1,54,-1
 55 0 l 1,55,-1
 55 43 l 1,56,57
 123 55 123 55 159 72.5 c 128,-1,58
 195 90 195 90 195 102 c 2,59,-1
 195 961 l 2,60,61
 195 1081 195 1081 211.5 1162 c 128,-1,62
 228 1243 228 1243 255 1298 c 128,-1,63
 282 1353 282 1353 318 1389.5 c 128,-1,64
 354 1426 354 1426 393 1458 c 0,65,66
 447 1502 447 1502 514 1526 c 128,-1,67
 581 1550 581 1550 653 1550 c 0,68,69
 739 1550 739 1550 799 1514.5 c 128,-1,70
 859 1479 859 1479 896.5 1425 c 128,-1,71
 934 1371 934 1371 950.5 1308 c 128,-1,72
 967 1245 967 1245 967 1190 c 0,73,74
 967 1108 967 1108 941.5 1056 c 128,-1,75
 916 1004 916 1004 878 971 c 128,-1,76
 840 938 840 938 795 917 c 128,-1,77
 750 896 750 896 712 877 c 128,-1,78
 674 858 674 858 648.5 834 c 128,-1,79
 623 810 623 810 623 770 c 0,80,81
 623 737 623 737 642 712.5 c 128,-1,82
 661 688 661 688 692.5 667 c 128,-1,83
 724 646 724 646 763.5 626.5 c 128,-1,84
 803 607 803 607 845 585 c 128,-1,85
 887 563 887 563 926.5 536.5 c 128,-1,86
 966 510 966 510 997.5 474.5 c 128,-1,87
 1029 439 1029 439 1048 392 c 128,-1,88
 1067 345 1067 345 1067 283 c 0,0,1
EndSplineSet
EndChar

StartChar: ae
Encoding: 230 230 153
Width: 1417
Flags: W
LayerCount: 2
Fore
SplineSet
995 856 m 0,0,1
 972 856 972 856 941.5 845.5 c 128,-1,2
 911 835 911 835 881 805 c 128,-1,3
 851 775 851 775 824.5 721 c 128,-1,4
 798 667 798 667 785 580 c 1,5,-1
 1133 580 l 2,6,7
 1154 580 1154 580 1162.5 587.5 c 128,-1,8
 1171 595 1171 595 1171 616 c 0,9,10
 1171 664 1171 664 1161 707.5 c 128,-1,11
 1151 751 1151 751 1130 784 c 128,-1,12
 1109 817 1109 817 1075.5 836.5 c 128,-1,13
 1042 856 1042 856 995 856 c 0,0,1
637 243 m 1,14,15
 630 272 630 272 626.5 302 c 128,-1,16
 623 332 623 332 623 365 c 2,17,-1
 623 372 l 1,18,-1
 623 375 l 1,19,-1
 623 485 l 1,20,21
 590 483 590 483 564 480 c 128,-1,22
 538 477 538 477 526 473 c 1,23,24
 376 436 376 436 309 373.5 c 128,-1,25
 242 311 242 311 242 229 c 0,26,27
 242 189 242 189 254.5 164 c 128,-1,28
 267 139 267 139 284 124.5 c 128,-1,29
 301 110 301 110 320 105 c 128,-1,30
 339 100 339 100 352 100 c 0,31,32
 379 100 379 100 413 109 c 128,-1,33
 447 118 447 118 484.5 135.5 c 128,-1,34
 522 153 522 153 561 180 c 128,-1,35
 600 207 600 207 637 243 c 1,14,15
1337 557 m 1,36,37
 1317 537 1317 537 1287 519.5 c 128,-1,38
 1257 502 1257 502 1225 489 c 1,39,-1
 776 489 l 1,40,41
 774 472 774 472 774 454 c 0,42,43
 774 437 774 437 774 418 c 0,44,45
 774 360 774 360 789.5 303.5 c 128,-1,46
 805 247 805 247 835 202 c 128,-1,47
 865 157 865 157 908.5 129.5 c 128,-1,48
 952 102 952 102 1008 102 c 0,49,50
 1039 102 1039 102 1067.5 105.5 c 128,-1,51
 1096 109 1096 109 1128.5 122.5 c 128,-1,52
 1161 136 1161 136 1200 163 c 128,-1,53
 1239 190 1239 190 1292 236 c 1,54,55
 1305 229 1305 229 1314.5 216 c 128,-1,56
 1324 203 1324 203 1329 195 c 1,57,58
 1269 123 1269 123 1219 79 c 128,-1,59
 1169 35 1169 35 1123.5 11 c 128,-1,60
 1078 -13 1078 -13 1034.5 -21.5 c 128,-1,61
 991 -30 991 -30 944 -30 c 0,62,63
 900 -30 900 -30 857.5 -16 c 128,-1,64
 815 -2 815 -2 777.5 25 c 128,-1,65
 740 52 740 52 709.5 90.5 c 128,-1,66
 679 129 679 129 658 179 c 1,67,68
 615 127 615 127 564.5 88 c 128,-1,69
 514 49 514 49 464 22.5 c 128,-1,70
 414 -4 414 -4 369 -17 c 128,-1,71
 324 -30 324 -30 293 -30 c 0,72,73
 257 -30 257 -30 219 -18 c 128,-1,74
 181 -6 181 -6 150.5 20 c 128,-1,75
 120 46 120 46 100 87 c 128,-1,76
 80 128 80 128 80 186 c 0,77,78
 80 245 80 245 103.5 299.5 c 128,-1,79
 127 354 127 354 174 401 c 128,-1,80
 221 448 221 448 293 486.5 c 128,-1,81
 365 525 365 525 463 553 c 0,82,83
 496 562 496 562 537.5 567.5 c 128,-1,84
 579 573 579 573 623 576 c 1,85,-1
 623 662 l 2,86,87
 623 701 623 701 617 737 c 128,-1,88
 611 773 611 773 594 800 c 128,-1,89
 577 827 577 827 546.5 843.5 c 128,-1,90
 516 860 516 860 467 860 c 0,91,92
 435 860 435 860 399 845.5 c 128,-1,93
 363 831 363 831 335 805.5 c 128,-1,94
 307 780 307 780 293.5 746.5 c 128,-1,95
 280 713 280 713 295 676 c 0,96,97
 298 667 298 667 276.5 656 c 128,-1,98
 255 645 255 645 225.5 636 c 128,-1,99
 196 627 196 627 166.5 622.5 c 128,-1,100
 137 618 137 618 125 621 c 1,101,-1
 111 657 l 1,102,103
 116 696 116 696 140 734 c 128,-1,104
 164 772 164 772 199.5 805.5 c 128,-1,105
 235 839 235 839 279 867.5 c 128,-1,106
 323 896 323 896 368.5 916.5 c 128,-1,107
 414 937 414 937 457 948.5 c 128,-1,108
 500 960 500 960 535 960 c 0,109,110
 623 960 623 960 674.5 924 c 128,-1,111
 726 888 726 888 749 816 c 1,112,113
 781 856 781 856 817 884 c 128,-1,114
 853 912 853 912 889.5 928.5 c 128,-1,115
 926 945 926 945 960.5 952.5 c 128,-1,116
 995 960 995 960 1024 960 c 0,117,118
 1085 960 1085 960 1132 942.5 c 128,-1,119
 1179 925 1179 925 1213.5 895.5 c 128,-1,120
 1248 866 1248 866 1272 826 c 128,-1,121
 1296 786 1296 786 1310.5 741.5 c 128,-1,122
 1325 697 1325 697 1331 649.5 c 128,-1,123
 1337 602 1337 602 1337 557 c 1,36,37
EndSplineSet
EndChar

StartChar: divide
Encoding: 247 247 169
Width: 840
Flags: W
LayerCount: 2
Fore
SplineSet
499 820 m 0,0,1
 499 798 499 798 492 778 c 128,-1,2
 485 758 485 758 472.5 743 c 128,-1,3
 460 728 460 728 443 719.5 c 128,-1,4
 426 711 426 711 407 711 c 0,5,6
 372 711 372 711 356 731 c 128,-1,7
 340 751 340 751 340 788 c 0,8,9
 340 810 340 810 347 830 c 128,-1,10
 354 850 354 850 366.5 864.5 c 128,-1,11
 379 879 379 879 396 887.5 c 128,-1,12
 413 896 413 896 432 896 c 0,13,14
 499 896 499 896 499 820 c 0,0,1
499 340 m 0,15,16
 499 318 499 318 492 298 c 128,-1,17
 485 278 485 278 472.5 263 c 128,-1,18
 460 248 460 248 443 239.5 c 128,-1,19
 426 231 426 231 407 231 c 0,20,21
 372 231 372 231 356 251 c 128,-1,22
 340 271 340 271 340 308 c 0,23,24
 340 330 340 330 347 350 c 128,-1,25
 354 370 354 370 366.5 384.5 c 128,-1,26
 379 399 379 399 396 407.5 c 128,-1,27
 413 416 413 416 432 416 c 0,28,29
 499 416 499 416 499 340 c 0,15,16
778 594 m 1,30,31
 773 574 773 574 764.5 548.5 c 128,-1,32
 756 523 756 523 748 506 c 1,33,-1
 86 506 l 1,34,-1
 61 530 l 1,35,36
 66 550 66 550 74.5 574 c 128,-1,37
 83 598 83 598 92 618 c 1,38,-1
 754 618 l 1,39,-1
 778 594 l 1,40,-1
 778 594 l 1,30,31
EndSplineSet
EndChar

StartChar: oslash
Encoding: 248 248 170
Width: 1030
Flags: W
LayerCount: 2
Fore
SplineSet
797 455 m 0,0,1
 797 515 797 515 781 571.5 c 128,-1,2
 765 628 765 628 739 676 c 1,3,-1
 356 169 l 1,4,5
 396 127 396 127 440 103.5 c 128,-1,6
 484 80 484 80 524 80 c 0,7,8
 595 80 595 80 646.5 106.5 c 128,-1,9
 698 133 698 133 731.5 182 c 128,-1,10
 765 231 765 231 781 300 c 128,-1,11
 797 369 797 369 797 455 c 0,0,1
233 473 m 0,12,13
 233 412 233 412 249.5 356.5 c 128,-1,14
 266 301 266 301 294 253 c 1,15,-1
 678 761 l 1,16,17
 639 803 639 803 594.5 826.5 c 128,-1,18
 550 850 550 850 506 850 c 0,19,20
 430 850 430 850 378 821 c 128,-1,21
 326 792 326 792 293.5 741.5 c 128,-1,22
 261 691 261 691 247 622 c 128,-1,23
 233 553 233 553 233 473 c 0,12,13
946 950 m 1,24,-1
 844 815 l 1,25,26
 895 752 895 752 922.5 668 c 128,-1,27
 950 584 950 584 950 485 c 0,28,29
 950 419 950 419 933 354.5 c 128,-1,30
 916 290 916 290 886 233 c 128,-1,31
 856 176 856 176 814 127.5 c 128,-1,32
 772 79 772 79 721.5 44 c 128,-1,33
 671 9 671 9 614 -10.5 c 128,-1,34
 557 -30 557 -30 496 -30 c 0,35,36
 427 -30 427 -30 368 -11 c 128,-1,37
 309 8 309 8 261 43 c 1,38,-1
 242 18 l 1,39,40
 233 10 233 10 216.5 -0.5 c 128,-1,41
 200 -11 200 -11 182 -21.5 c 128,-1,42
 164 -32 164 -32 146.5 -40.5 c 128,-1,43
 129 -49 129 -49 117 -53 c 1,44,-1
 88 -20 l 1,45,-1
 188 112 l 1,46,47
 136 175 136 175 108 259.5 c 128,-1,48
 80 344 80 344 80 444 c 0,49,50
 80 510 80 510 96.5 574 c 128,-1,51
 113 638 113 638 142.5 695.5 c 128,-1,52
 172 753 172 753 213.5 801.5 c 128,-1,53
 255 850 255 850 305.5 885 c 128,-1,54
 356 920 356 920 414 940 c 128,-1,55
 472 960 472 960 535 960 c 0,56,57
 604 960 604 960 663.5 940.5 c 128,-1,58
 723 921 723 921 772 885 c 1,59,-1
 793 913 l 1,60,61
 806 922 806 922 821.5 932.5 c 128,-1,62
 837 943 837 943 853 953 c 128,-1,63
 869 963 869 963 885 971 c 128,-1,64
 901 979 901 979 915 983 c 1,65,-1
 946 950 l 1,24,-1
EndSplineSet
EndChar

StartChar: dotlessi
Encoding: 305 305 176
Width: 555
Flags: W
LayerCount: 2
Fore
SplineSet
70 0 m 1,0,-1
 70 43 l 1,1,2
 138 57 138 57 174 73.5 c 128,-1,3
 210 90 210 90 210 104 c 2,4,-1
 210 670 l 2,5,6
 210 721 210 721 208 752.5 c 128,-1,7
 206 784 206 784 193 801.5 c 128,-1,8
 180 819 180 819 151.5 827 c 128,-1,9
 123 835 123 835 70 840 c 1,10,-1
 70 880 l 1,11,12
 101 886 101 886 135.5 894.5 c 128,-1,13
 170 903 170 903 204 913.5 c 128,-1,14
 238 924 238 924 269 936 c 128,-1,15
 300 948 300 948 326 960 c 1,16,-1
 360 960 l 1,17,-1
 360 104 l 2,18,19
 360 92 360 92 393.5 74.5 c 128,-1,20
 427 57 427 57 500 43 c 1,21,-1
 500 0 l 1,22,-1
 70 0 l 1,0,-1
EndSplineSet
EndChar

StartChar: OE
Encoding: 338 338 177
Width: 1634
Flags: W
LayerCount: 2
Fore
SplineSet
604 90 m 0,0,1
 644 90 644 90 679 91.5 c 128,-1,2
 714 93 714 93 744.5 98 c 128,-1,3
 775 103 775 103 802 112.5 c 128,-1,4
 829 122 829 122 854 139 c 1,5,-1
 854 1099 l 1,6,7
 801 1140 801 1140 738 1158 c 128,-1,8
 675 1176 675 1176 604 1176 c 0,9,10
 515 1176 515 1176 444.5 1138 c 128,-1,11
 374 1100 374 1100 325.5 1030.5 c 128,-1,12
 277 961 277 961 251 862 c 128,-1,13
 225 763 225 763 225 641 c 0,14,15
 225 529 225 529 255.5 429 c 128,-1,16
 286 329 286 329 337.5 253.5 c 128,-1,17
 389 178 389 178 458 134 c 128,-1,18
 527 90 527 90 604 90 c 0,0,1
1575 244 m 1,19,20
 1567 157 1567 157 1554.5 93 c 128,-1,21
 1542 29 1542 29 1534 0 c 1,22,-1
 880 0 l 1,23,24
 827 -1 827 -1 789 -5.5 c 128,-1,25
 751 -10 751 -10 718 -15.5 c 128,-1,26
 685 -21 685 -21 652 -25.5 c 128,-1,27
 619 -30 619 -30 575 -30 c 0,28,29
 455 -30 455 -30 361 23 c 128,-1,30
 267 76 267 76 202.5 165 c 128,-1,31
 138 254 138 254 104 370 c 128,-1,32
 70 486 70 486 70 612 c 0,33,34
 70 748 70 748 114 871 c 128,-1,35
 158 994 158 994 234 1087 c 128,-1,36
 310 1180 310 1180 412.5 1235 c 128,-1,37
 515 1290 515 1290 633 1290 c 0,38,39
 673 1290 673 1290 702.5 1285.5 c 128,-1,40
 732 1281 732 1281 759 1275.5 c 128,-1,41
 786 1270 786 1270 815.5 1265.5 c 128,-1,42
 845 1261 845 1261 885 1260 c 1,43,-1
 1477 1260 l 1,44,-1
 1507 1235 l 1,45,46
 1505 1209 1505 1209 1501.5 1178 c 128,-1,47
 1498 1147 1498 1147 1492.5 1116 c 128,-1,48
 1487 1085 1487 1085 1480.5 1057 c 128,-1,49
 1474 1029 1474 1029 1468 1010 c 1,50,-1
 1421 1010 l 1,51,52
 1419 1056 1419 1056 1413 1086.5 c 128,-1,53
 1407 1117 1407 1117 1397 1135.5 c 128,-1,54
 1387 1154 1387 1154 1372.5 1161.5 c 128,-1,55
 1358 1169 1358 1169 1339 1169 c 2,56,-1
 1016 1169 l 1,57,-1
 1016 735 l 1,58,-1
 1378 735 l 1,59,-1
 1407 707 l 1,60,61
 1398 693 1398 693 1386 677.5 c 128,-1,62
 1374 662 1374 662 1361.5 647.5 c 128,-1,63
 1349 633 1349 633 1337 620.5 c 128,-1,64
 1325 608 1325 608 1315 600 c 1,65,66
 1300 615 1300 615 1282.5 625 c 128,-1,67
 1265 635 1265 635 1242.5 642 c 128,-1,68
 1220 649 1220 649 1189 652 c 128,-1,69
 1158 655 1158 655 1116 655 c 2,70,-1
 1016 655 l 1,71,-1
 1016 154 l 2,72,73
 1016 139 1016 139 1017 127.5 c 128,-1,74
 1018 116 1018 116 1032 107.5 c 128,-1,75
 1046 99 1046 99 1080 94.5 c 128,-1,76
 1114 90 1114 90 1180 90 c 2,77,-1
 1309 90 l 2,78,79
 1355 90 1355 90 1387.5 95 c 128,-1,80
 1420 100 1420 100 1444.5 117.5 c 128,-1,81
 1469 135 1469 135 1489.5 169 c 128,-1,82
 1510 203 1510 203 1532 262 c 1,83,-1
 1575 244 l 1,84,-1
 1575 244 l 1,19,20
EndSplineSet
EndChar

StartChar: oe
Encoding: 339 339 178
Width: 1624
Flags: W
LayerCount: 2
Fore
SplineSet
1184 856 m 0,0,1
 1136 856 1136 856 1095 836 c 128,-1,2
 1054 816 1054 816 1022 780 c 128,-1,3
 990 744 990 744 968 693 c 128,-1,4
 946 642 946 642 937 580 c 1,5,-1
 1339 580 l 2,6,7
 1361 580 1361 580 1369.5 587.5 c 128,-1,8
 1378 595 1378 595 1378 616 c 0,9,10
 1378 643 1378 643 1370.5 684 c 128,-1,11
 1363 725 1363 725 1342 763 c 128,-1,12
 1321 801 1321 801 1283 828.5 c 128,-1,13
 1245 856 1245 856 1184 856 c 0,0,1
776 455 m 256,14,15
 776 535 776 535 750.5 606.5 c 128,-1,16
 725 678 725 678 682.5 732 c 128,-1,17
 640 786 640 786 586 818 c 128,-1,18
 532 850 532 850 475 850 c 0,19,20
 421 850 421 850 376.5 821 c 128,-1,21
 332 792 332 792 300 741.5 c 128,-1,22
 268 691 268 691 250.5 622 c 128,-1,23
 233 553 233 553 233 473 c 0,24,25
 233 394 233 394 260 322.5 c 128,-1,26
 287 251 287 251 330 197 c 128,-1,27
 373 143 373 143 427 111.5 c 128,-1,28
 481 80 481 80 535 80 c 256,29,30
 589 80 589 80 633 108.5 c 128,-1,31
 677 137 677 137 709 187.5 c 128,-1,32
 741 238 741 238 758.5 306.5 c 128,-1,33
 776 375 776 375 776 455 c 256,14,15
1544 557 m 1,34,35
 1524 537 1524 537 1494 519.5 c 128,-1,36
 1464 502 1464 502 1432 489 c 1,37,-1
 930 489 l 1,38,-1
 930 487 l 2,39,40
 930 412 930 412 950 342.5 c 128,-1,41
 970 273 970 273 1007 219.5 c 128,-1,42
 1044 166 1044 166 1096.5 134 c 128,-1,43
 1149 102 1149 102 1214 102 c 0,44,45
 1242 102 1242 102 1269 105.5 c 128,-1,46
 1296 109 1296 109 1328.5 122.5 c 128,-1,47
 1361 136 1361 136 1402 163 c 128,-1,48
 1443 190 1443 190 1499 236 c 1,49,50
 1512 229 1512 229 1521.5 216 c 128,-1,51
 1531 203 1531 203 1536 195 c 1,52,53
 1470 122 1470 122 1419.5 77.5 c 128,-1,54
 1369 33 1369 33 1325.5 9 c 128,-1,55
 1282 -15 1282 -15 1241 -22.5 c 128,-1,56
 1200 -30 1200 -30 1153 -30 c 0,57,58
 1104 -30 1104 -30 1057 -15.5 c 128,-1,59
 1010 -1 1010 -1 968.5 26.5 c 128,-1,60
 927 54 927 54 892 93.5 c 128,-1,61
 857 133 857 133 832 183 c 1,62,63
 800 136 800 136 759.5 97 c 128,-1,64
 719 58 719 58 673 29.5 c 128,-1,65
 627 1 627 1 577 -14.5 c 128,-1,66
 527 -30 527 -30 475 -30 c 0,67,68
 390 -30 390 -30 317.5 6 c 128,-1,69
 245 42 245 42 192.5 105 c 128,-1,70
 140 168 140 168 110 255 c 128,-1,71
 80 342 80 342 80 444 c 0,72,73
 80 510 80 510 97 574 c 128,-1,74
 114 638 114 638 144.5 695.5 c 128,-1,75
 175 753 175 753 217 801.5 c 128,-1,76
 259 850 259 850 309.5 885 c 128,-1,77
 360 920 360 920 417 940 c 128,-1,78
 474 960 474 960 535 960 c 0,79,80
 644 960 644 960 730.5 903.5 c 128,-1,81
 817 847 817 847 868 750 c 1,82,83
 894 788 894 788 925.5 821 c 128,-1,84
 957 854 957 854 995 880 c 0,85,86
 1017 895 1017 895 1045.5 909.5 c 128,-1,87
 1074 924 1074 924 1103 935.5 c 128,-1,88
 1132 947 1132 947 1160.5 953.5 c 128,-1,89
 1189 960 1189 960 1212 960 c 0,90,91
 1274 960 1274 960 1322.5 942 c 128,-1,92
 1371 924 1371 924 1408 893.5 c 128,-1,93
 1445 863 1445 863 1471 822.5 c 128,-1,94
 1497 782 1497 782 1513 737 c 128,-1,95
 1529 692 1529 692 1536.5 645.5 c 128,-1,96
 1544 599 1544 599 1544 557 c 1,34,35
EndSplineSet
EndChar

StartChar: florin
Encoding: 402 402 180
Width: 592
Flags: W
LayerCount: 2
Fore
SplineSet
793 1454 m 0,0,1
 793 1446 793 1446 778.5 1430 c 128,-1,2
 764 1414 764 1414 744 1397 c 128,-1,3
 724 1380 724 1380 702.5 1365 c 128,-1,4
 681 1350 681 1350 666 1343 c 1,5,6
 641 1364 641 1364 616 1379.5 c 128,-1,7
 591 1395 591 1395 568.5 1405.5 c 128,-1,8
 546 1416 546 1416 527 1421.5 c 128,-1,9
 508 1427 508 1427 496 1427 c 0,10,11
 470 1427 470 1427 440 1409 c 128,-1,12
 410 1391 410 1391 384.5 1345 c 128,-1,13
 359 1299 359 1299 342.5 1219.5 c 128,-1,14
 326 1140 326 1140 326 1016 c 2,15,-1
 326 930 l 1,16,-1
 584 930 l 1,17,-1
 612 901 l 1,18,19
 603 887 603 887 590 871.5 c 128,-1,20
 577 856 577 856 563 841.5 c 128,-1,21
 549 827 549 827 535.5 816 c 128,-1,22
 522 805 522 805 512 801 c 1,23,24
 489 813 489 813 446.5 824.5 c 128,-1,25
 404 836 404 836 326 836 c 1,26,-1
 326 98 l 2,27,28
 326 -19 326 -19 310 -101 c 128,-1,29
 294 -183 294 -183 267 -240.5 c 128,-1,30
 240 -298 240 -298 203.5 -337 c 128,-1,31
 167 -376 167 -376 127 -407 c 0,32,33
 99 -428 99 -428 69 -445.5 c 128,-1,34
 39 -463 39 -463 10.5 -475 c 128,-1,35
 -18 -487 -18 -487 -43.5 -493.5 c 128,-1,36
 -69 -500 -69 -500 -88 -500 c 0,37,38
 -118 -500 -118 -500 -147 -492 c 128,-1,39
 -176 -484 -176 -484 -199 -472.5 c 128,-1,40
 -222 -461 -222 -461 -236 -449.5 c 128,-1,41
 -250 -438 -250 -438 -250 -431 c 0,42,43
 -250 -423 -250 -423 -236 -407 c 128,-1,44
 -222 -391 -222 -391 -202 -374 c 128,-1,45
 -182 -357 -182 -357 -160.5 -342 c 128,-1,46
 -139 -327 -139 -327 -124 -320 c 1,47,48
 -104 -335 -104 -335 -87 -344 c 128,-1,49
 -70 -353 -70 -353 -54 -357.5 c 128,-1,50
 -38 -362 -38 -362 -21.5 -363.5 c 128,-1,51
 -5 -365 -5 -365 14 -365 c 0,52,53
 42 -365 42 -365 70.5 -347.5 c 128,-1,54
 99 -330 99 -330 122 -284 c 128,-1,55
 145 -238 145 -238 159.5 -158.5 c 128,-1,56
 174 -79 174 -79 174 45 c 2,57,-1
 174 836 l 1,58,-1
 41 836 l 1,59,-1
 20 864 l 1,60,-1
 98 930 l 1,61,-1
 174 930 l 1,62,-1
 174 961 l 2,63,64
 174 1079 174 1079 190.5 1159.5 c 128,-1,65
 207 1240 207 1240 234.5 1295.5 c 128,-1,66
 262 1351 262 1351 298.5 1388.5 c 128,-1,67
 335 1426 335 1426 375 1458 c 0,68,69
 402 1480 402 1480 433.5 1497 c 128,-1,70
 465 1514 465 1514 496 1526 c 128,-1,71
 527 1538 527 1538 555 1544 c 128,-1,72
 583 1550 583 1550 602 1550 c 0,73,74
 633 1550 633 1550 666.5 1538 c 128,-1,75
 700 1526 700 1526 728 1510.5 c 128,-1,76
 756 1495 756 1495 774.5 1479 c 128,-1,77
 793 1463 793 1463 793 1454 c 0,0,1
EndSplineSet
EndChar

StartChar: circumflex
Encoding: 710 710 181
Width: 733
Flags: W
LayerCount: 2
Fore
SplineSet
682 1092 m 1,0,1
 670 1073 670 1073 663 1064 c 128,-1,2
 656 1055 656 1055 639 1047 c 1,3,-1
 365 1315 l 1,4,-1
 94 1047 l 1,5,6
 86 1051 86 1051 80.5 1055 c 128,-1,7
 75 1059 75 1059 70.5 1064 c 128,-1,8
 66 1069 66 1069 61 1076 c 128,-1,9
 56 1083 56 1083 49 1092 c 1,10,-1
 313 1471 l 1,11,-1
 420 1471 l 1,12,-1
 682 1092 l 1,13,-1
 682 1092 l 1,0,1
EndSplineSet
EndChar

StartChar: caron
Encoding: 711 711 182
Width: 733
Flags: W
LayerCount: 2
Fore
SplineSet
421 1071 m 1,0,-1
 314 1071 l 1,1,-1
 50 1428 l 1,2,3
 57 1438 57 1438 62 1445 c 128,-1,4
 67 1452 67 1452 71.5 1457 c 128,-1,5
 76 1462 76 1462 81.5 1466 c 128,-1,6
 87 1470 87 1470 95 1475 c 1,7,-1
 370 1224 l 1,8,-1
 640 1475 l 1,9,10
 657 1466 657 1466 664 1457 c 128,-1,11
 671 1448 671 1448 683 1428 c 1,12,-1
 421 1071 l 1,0,-1
EndSplineSet
EndChar

StartChar: breve
Encoding: 728 728 183
Width: 730
Flags: W
LayerCount: 2
Fore
SplineSet
690 1360 m 1,0,1
 660 1279 660 1279 622.5 1224 c 128,-1,2
 585 1169 585 1169 543.5 1134.5 c 128,-1,3
 502 1100 502 1100 457 1085 c 128,-1,4
 412 1070 412 1070 367 1070 c 0,5,6
 318 1070 318 1070 272 1085 c 128,-1,7
 226 1100 226 1100 184.5 1134.5 c 128,-1,8
 143 1169 143 1169 106.5 1224 c 128,-1,9
 70 1279 70 1279 40 1360 c 1,10,11
 52 1378 52 1378 64 1387.5 c 128,-1,12
 76 1397 76 1397 93 1405 c 1,13,14
 118 1348 118 1348 150.5 1309 c 128,-1,15
 183 1270 183 1270 219 1246.5 c 128,-1,16
 255 1223 255 1223 292.5 1212.5 c 128,-1,17
 330 1202 330 1202 363 1202 c 0,18,19
 398 1202 398 1202 436.5 1212.5 c 128,-1,20
 475 1223 475 1223 511.5 1246.5 c 128,-1,21
 548 1270 548 1270 580.5 1309 c 128,-1,22
 613 1348 613 1348 637 1405 c 1,23,24
 654 1397 654 1397 666 1387.5 c 128,-1,25
 678 1378 678 1378 690 1360 c 1,0,1
EndSplineSet
EndChar

StartChar: dotaccent
Encoding: 729 729 184
Width: 400
Flags: W
LayerCount: 2
Fore
SplineSet
300 1261 m 0,0,1
 300 1233 300 1233 291 1208 c 128,-1,2
 282 1183 282 1183 266.5 1164.5 c 128,-1,3
 251 1146 251 1146 230 1135 c 128,-1,4
 209 1124 209 1124 184 1124 c 0,5,6
 139 1124 139 1124 119.5 1149 c 128,-1,7
 100 1174 100 1174 100 1220 c 0,8,9
 100 1248 100 1248 109 1273 c 128,-1,10
 118 1298 118 1298 134 1316.5 c 128,-1,11
 150 1335 150 1335 170.5 1345.5 c 128,-1,12
 191 1356 191 1356 215 1356 c 0,13,14
 300 1356 300 1356 300 1261 c 0,0,1
EndSplineSet
EndChar

StartChar: ring
Encoding: 730 730 185
Width: 512
Flags: W
LayerCount: 2
Fore
SplineSet
352 1243 m 0,0,1
 352 1267 352 1267 346 1289 c 128,-1,2
 340 1311 340 1311 329 1327.5 c 128,-1,3
 318 1344 318 1344 302 1354 c 128,-1,4
 286 1364 286 1364 266 1364 c 0,5,6
 245 1364 245 1364 226 1355.5 c 128,-1,7
 207 1347 207 1347 192.5 1331.5 c 128,-1,8
 178 1316 178 1316 169 1294 c 128,-1,9
 160 1272 160 1272 160 1245 c 0,10,11
 160 1222 160 1222 166 1200.5 c 128,-1,12
 172 1179 172 1179 183 1162.5 c 128,-1,13
 194 1146 194 1146 210 1136 c 128,-1,14
 226 1126 226 1126 246 1126 c 256,15,16
 266 1126 266 1126 285 1133.5 c 128,-1,17
 304 1141 304 1141 319 1156 c 128,-1,18
 334 1171 334 1171 343 1192.5 c 128,-1,19
 352 1214 352 1214 352 1243 c 0,0,1
442 1284 m 0,20,21
 442 1233 442 1233 422.5 1190.5 c 128,-1,22
 403 1148 403 1148 371.5 1116.5 c 128,-1,23
 340 1085 340 1085 301.5 1067.5 c 128,-1,24
 263 1050 263 1050 225 1050 c 0,25,26
 191 1050 191 1050 162.5 1062 c 128,-1,27
 134 1074 134 1074 113.5 1095 c 128,-1,28
 93 1116 93 1116 81.5 1144 c 128,-1,29
 70 1172 70 1172 70 1204 c 0,30,31
 70 1255 70 1255 89.5 1298.5 c 128,-1,32
 109 1342 109 1342 140 1373.5 c 128,-1,33
 171 1405 171 1405 209.5 1422.5 c 128,-1,34
 248 1440 248 1440 287 1440 c 0,35,36
 319 1440 319 1440 347.5 1427.5 c 128,-1,37
 376 1415 376 1415 397 1393.5 c 128,-1,38
 418 1372 418 1372 430 1343.5 c 128,-1,39
 442 1315 442 1315 442 1284 c 0,20,21
EndSplineSet
EndChar

StartChar: ogonek
Encoding: 731 731 186
Width: 530
Flags: W
LayerCount: 2
Fore
SplineSet
479 -299 m 1,0,1
 458 -326 458 -326 429.5 -352 c 128,-1,2
 401 -378 401 -378 371 -398.5 c 128,-1,3
 341 -419 341 -419 311 -431.5 c 128,-1,4
 281 -444 281 -444 256 -444 c 0,5,6
 227 -444 227 -444 199 -438 c 128,-1,7
 171 -432 171 -432 149 -416 c 128,-1,8
 127 -400 127 -400 113.5 -372 c 128,-1,9
 100 -344 100 -344 100 -299 c 0,10,11
 100 -209 100 -209 178.5 -123.5 c 128,-1,12
 257 -38 257 -38 408 43 c 1,13,-1
 453 24 l 1,14,15
 381 -20 381 -20 337 -62 c 128,-1,16
 293 -104 293 -104 269 -141 c 128,-1,17
 245 -178 245 -178 237 -209 c 128,-1,18
 229 -240 229 -240 229 -264 c 0,19,20
 229 -301 229 -301 253 -318.5 c 128,-1,21
 277 -336 277 -336 315 -336 c 0,22,23
 340 -336 340 -336 376.5 -318 c 128,-1,24
 413 -300 413 -300 455 -262 c 1,25,-1
 479 -299 l 1,26,-1
 479 -299 l 1,0,1
EndSplineSet
EndChar

StartChar: tilde
Encoding: 732 732 187
Width: 822
Flags: W
LayerCount: 2
Fore
SplineSet
752 1346 m 1,0,1
 734 1305 734 1305 709 1265 c 128,-1,2
 684 1225 684 1225 653.5 1193 c 128,-1,3
 623 1161 623 1161 587 1141 c 128,-1,4
 551 1121 551 1121 512 1121 c 0,5,6
 477 1121 477 1121 445.5 1138.5 c 128,-1,7
 414 1156 414 1156 384 1177.5 c 128,-1,8
 354 1199 354 1199 324.5 1216.5 c 128,-1,9
 295 1234 295 1234 266 1234 c 0,10,11
 226 1234 226 1234 193 1201.5 c 128,-1,12
 160 1169 160 1169 123 1113 c 1,13,-1
 70 1133 l 1,14,15
 88 1174 88 1174 112.5 1214.5 c 128,-1,16
 137 1255 137 1255 168 1287 c 128,-1,17
 199 1319 199 1319 234.5 1339 c 128,-1,18
 270 1359 270 1359 309 1359 c 0,19,20
 347 1359 347 1359 381 1341.5 c 128,-1,21
 415 1324 415 1324 445 1302.5 c 128,-1,22
 475 1281 475 1281 502 1263.5 c 128,-1,23
 529 1246 529 1246 553 1246 c 0,24,25
 591 1246 591 1246 627.5 1278 c 128,-1,26
 664 1310 664 1310 698 1369 c 1,27,-1
 752 1346 l 1,28,-1
 752 1346 l 1,0,1
EndSplineSet
EndChar

StartChar: hungarumlaut
Encoding: 733 733 188
Width: 768
Flags: W
LayerCount: 2
Fore
SplineSet
137 1047 m 1,0,1
 120 1051 120 1051 110 1056.5 c 128,-1,2
 100 1062 100 1062 80 1074 c 1,3,-1
 256 1489 l 1,4,5
 268 1487 268 1487 284.5 1484.5 c 128,-1,6
 301 1482 301 1482 317.5 1478.5 c 128,-1,7
 334 1475 334 1475 349.5 1471.5 c 128,-1,8
 365 1468 365 1468 375 1464 c 1,9,-1
 397 1423 l 1,10,-1
 137 1047 l 1,0,1
428 1047 m 1,11,12
 409 1051 409 1051 399 1056.5 c 128,-1,13
 389 1062 389 1062 371 1074 c 1,14,-1
 547 1489 l 1,15,16
 559 1487 559 1487 575 1484.5 c 128,-1,17
 591 1482 591 1482 607.5 1478.5 c 128,-1,18
 624 1475 624 1475 639.5 1471.5 c 128,-1,19
 655 1468 655 1468 666 1464 c 1,20,-1
 688 1423 l 1,21,-1
 428 1047 l 1,11,12
EndSplineSet
EndChar

StartChar: pi
Encoding: 960 960 189
Width: 1078
Flags: W
LayerCount: 2
Fore
SplineSet
1046 110 m 1,0,1
 995 67 995 67 957 39.5 c 128,-1,2
 919 12 919 12 889.5 -3.5 c 128,-1,3
 860 -19 860 -19 836.5 -25 c 128,-1,4
 813 -31 813 -31 791 -31 c 0,5,6
 756 -31 756 -31 730 -10 c 128,-1,7
 704 11 704 11 686.5 49.5 c 128,-1,8
 669 88 669 88 660.5 143 c 128,-1,9
 652 198 652 198 652 267 c 0,10,11
 652 299 652 299 654 344.5 c 128,-1,12
 656 390 656 390 660 453 c 128,-1,13
 664 516 664 516 670.5 597.5 c 128,-1,14
 677 679 677 679 686 784 c 1,15,16
 615 785 615 785 546.5 787.5 c 128,-1,17
 478 790 478 790 396 792 c 1,18,19
 387 678 387 678 382 553 c 128,-1,20
 377 428 377 428 377 300 c 0,21,22
 377 228 377 228 379.5 166.5 c 128,-1,23
 382 105 382 105 387 50 c 1,24,25
 373 41 373 41 344.5 29.5 c 128,-1,26
 316 18 316 18 282 6.5 c 128,-1,27
 248 -5 248 -5 214.5 -15.5 c 128,-1,28
 181 -26 181 -26 159 -32 c 1,29,30
 156 -28 156 -28 148.5 -19 c 128,-1,31
 141 -10 141 -10 136 -3.5 c 128,-1,32
 131 3 131 3 130 4 c 1,33,34
 157 42 157 42 177 76 c 128,-1,35
 197 110 197 110 212 150 c 128,-1,36
 227 190 227 190 238 242.5 c 128,-1,37
 249 295 249 295 259 369.5 c 128,-1,38
 269 444 269 444 278 547.5 c 128,-1,39
 287 651 287 651 298 793 c 1,40,-1
 247 793 l 2,41,42
 215 793 215 793 190 790.5 c 128,-1,43
 165 788 165 788 141.5 781.5 c 128,-1,44
 118 775 118 775 94.5 762.5 c 128,-1,45
 71 750 71 750 43 730 c 1,46,-1
 20 766 l 1,47,48
 49 801 49 801 77 831 c 128,-1,49
 105 861 105 861 133.5 883 c 128,-1,50
 162 905 162 905 191 917.5 c 128,-1,51
 220 930 220 930 252 930 c 2,52,-1
 885 930 l 2,53,54
 927 930 927 930 963 934 c 128,-1,55
 999 938 999 938 1030 960 c 1,56,-1
 1058 931 l 1,57,58
 1006 859 1006 859 953.5 820.5 c 128,-1,59
 901 782 901 782 853 782 c 2,60,-1
 788 782 l 1,61,62
 780 701 780 701 777 618 c 128,-1,63
 774 535 774 535 774 457 c 0,64,65
 774 366 774 366 779 301 c 128,-1,66
 784 236 784 236 794.5 194 c 128,-1,67
 805 152 805 152 822 132.5 c 128,-1,68
 839 113 839 113 862 113 c 0,69,70
 877 113 877 113 891.5 114.5 c 128,-1,71
 906 116 906 116 924 120.5 c 128,-1,72
 942 125 942 125 966 133 c 128,-1,73
 990 141 990 141 1024 154 c 1,74,-1
 1046 110 l 1,75,-1
 1046 110 l 1,0,1
EndSplineSet
EndChar

StartChar: endash
Encoding: 8211 8211 190
Width: 961
Flags: W
LayerCount: 2
Fore
SplineSet
900 545 m 1,0,1
 895 523 895 523 887 497.5 c 128,-1,2
 879 472 879 472 871 455 c 1,3,-1
 86 455 l 1,4,-1
 61 479 l 1,5,6
 66 501 66 501 74.5 525 c 128,-1,7
 83 549 83 549 92 569 c 1,8,-1
 877 569 l 1,9,-1
 900 545 l 1,10,-1
 900 545 l 1,0,1
EndSplineSet
EndChar

StartChar: emdash
Encoding: 8212 8212 191
Width: 1569
Flags: W
LayerCount: 2
Fore
SplineSet
1508 545 m 1,0,1
 1503 523 1503 523 1494.5 497.5 c 128,-1,2
 1486 472 1486 472 1478 455 c 1,3,-1
 86 455 l 1,4,-1
 61 479 l 1,5,6
 66 501 66 501 74.5 525 c 128,-1,7
 83 549 83 549 92 569 c 1,8,-1
 1484 569 l 1,9,-1
 1508 545 l 1,10,-1
 1508 545 l 1,0,1
EndSplineSet
EndChar

StartChar: quoteleft
Encoding: 8216 8216 192
Width: 469
Flags: W
LayerCount: 2
Fore
SplineSet
383 1051 m 1,0,1
 374 1039 374 1039 344.5 1022.5 c 128,-1,2
 315 1006 315 1006 280.5 991.5 c 128,-1,3
 246 977 246 977 213 968 c 128,-1,4
 180 959 180 959 162 961 c 1,5,6
 128 990 128 990 110 1024.5 c 128,-1,7
 92 1059 92 1059 92 1118 c 0,8,9
 92 1157 92 1157 105.5 1202 c 128,-1,10
 119 1247 119 1247 145 1292 c 128,-1,11
 171 1337 171 1337 209 1378 c 128,-1,12
 247 1419 247 1419 295 1450 c 1,13,-1
 338 1415 l 1,14,15
 317 1393 317 1393 301 1365.5 c 128,-1,16
 285 1338 285 1338 274.5 1310 c 128,-1,17
 264 1282 264 1282 259 1255.5 c 128,-1,18
 254 1229 254 1229 254 1208 c 0,19,20
 254 1163 254 1163 281 1130.5 c 128,-1,21
 308 1098 308 1098 367 1096 c 1,22,-1
 383 1051 l 1,23,-1
 383 1051 l 1,0,1
EndSplineSet
EndChar

StartChar: quoteright
Encoding: 8217 8217 193
Width: 469
Flags: W
LayerCount: 2
Fore
SplineSet
377 1296 m 0,0,1
 377 1257 377 1257 363.5 1211.5 c 128,-1,2
 350 1166 350 1166 324 1121 c 128,-1,3
 298 1076 298 1076 261 1034.5 c 128,-1,4
 224 993 224 993 176 963 c 1,5,-1
 131 997 l 1,6,7
 152 1019 152 1019 168 1047 c 128,-1,8
 184 1075 184 1075 194.5 1103 c 128,-1,9
 205 1131 205 1131 210 1157.5 c 128,-1,10
 215 1184 215 1184 215 1204 c 0,11,12
 215 1249 215 1249 188 1282.5 c 128,-1,13
 161 1316 161 1316 104 1319 c 1,14,-1
 88 1364 l 1,15,16
 97 1376 97 1376 126 1391.5 c 128,-1,17
 155 1407 155 1407 189.5 1421.5 c 128,-1,18
 224 1436 224 1436 257.5 1445.5 c 128,-1,19
 291 1455 291 1455 309 1454 c 1,20,21
 341 1423 341 1423 359 1388 c 128,-1,22
 377 1353 377 1353 377 1296 c 0,0,1
EndSplineSet
EndChar

StartChar: quotesinglbase
Encoding: 8218 8218 194
Width: 469
Flags: W
LayerCount: 2
Fore
SplineSet
377 61 m 0,0,1
 377 22 377 22 363.5 -23.5 c 128,-1,2
 350 -69 350 -69 324 -114 c 128,-1,3
 298 -159 298 -159 261 -200 c 128,-1,4
 224 -241 224 -241 176 -272 c 1,5,-1
 131 -238 l 1,6,7
 152 -216 152 -216 168 -188 c 128,-1,8
 184 -160 184 -160 194.5 -132 c 128,-1,9
 205 -104 205 -104 210 -77.5 c 128,-1,10
 215 -51 215 -51 215 -31 c 0,11,12
 215 14 215 14 188 47.5 c 128,-1,13
 161 81 161 81 104 84 c 1,14,-1
 88 129 l 1,15,16
 97 141 97 141 126 156.5 c 128,-1,17
 155 172 155 172 189.5 186.5 c 128,-1,18
 224 201 224 201 257.5 210.5 c 128,-1,19
 291 220 291 220 309 219 c 1,20,21
 341 188 341 188 359 153 c 128,-1,22
 377 118 377 118 377 61 c 0,0,1
EndSplineSet
EndChar

